<?xml version="1.0" encoding="UTF-8" standalone="no"?>
<!-- Created with Inkscape (http://www.inkscape.org/) -->
<svg
   xmlns:dc="http://purl.org/dc/elements/1.1/"
   xmlns:cc="http://web.resource.org/cc/"
   xmlns:rdf="http://www.w3.org/1999/02/22-rdf-syntax-ns#"
   xmlns:svg="http://www.w3.org/2000/svg"
   xmlns="http://www.w3.org/2000/svg"
   xmlns:xlink="http://www.w3.org/1999/xlink"
   xmlns:sodipodi="http://sodipodi.sourceforge.net/DTD/sodipodi-0.dtd"
   xmlns:inkscape="http://www.inkscape.org/namespaces/inkscape"
   width="7086.6138"
   height="7086.6138"
   id="svg2"
   sodipodi:version="0.32"
   inkscape:version="0.45.1"
   version="1.0"
   sodipodi:docbase="C:\Documents and Settings\Seth Galbraith\My Documents\My Pictures"
   sodipodi:docname="full-body-man-injured.svg"
   inkscape:output_extension="org.inkscape.output.svg.inkscape"
   inkscape:export-filename="C:\Documents and Settings\Seth Galbraith\My Documents\My Pictures\full-body-man-injured.png"
   inkscape:export-xdpi="2.5400002"
   inkscape:export-ydpi="2.5400002">
  <defs
     id="defs4">
    <linearGradient
       id="linearGradient27559">
      <stop
         style="stop-color:#000000;stop-opacity:1;"
         offset="0"
         id="stop27561" />
      <stop
         style="stop-color:#000000;stop-opacity:0;"
         offset="1"
         id="stop27563" />
    </linearGradient>
    <linearGradient
       inkscape:collect="always"
       id="linearGradient27551">
      <stop
         style="stop-color:#000000;stop-opacity:1;"
         offset="0"
         id="stop27553" />
      <stop
         style="stop-color:#000000;stop-opacity:0;"
         offset="1"
         id="stop27555" />
    </linearGradient>
    <linearGradient
       id="linearGradient16795">
      <stop
         id="stop16797"
         offset="0"
         style="stop-color:#000000;stop-opacity:0;" />
      <stop
         style="stop-color:#000000;stop-opacity:1;"
         offset="0.5"
         id="stop16799" />
      <stop
         id="stop16801"
         offset="1"
         style="stop-color:#000000;stop-opacity:1;" />
    </linearGradient>
    <linearGradient
       id="linearGradient15800">
      <stop
         style="stop-color:#000000;stop-opacity:0;"
         offset="0"
         id="stop15802" />
      <stop
         id="stop15808"
         offset="0.5"
         style="stop-color:#000000;stop-opacity:1;" />
      <stop
         style="stop-color:#000000;stop-opacity:0;"
         offset="1"
         id="stop15804" />
    </linearGradient>
    <linearGradient
       inkscape:collect="always"
       xlink:href="#linearGradient16795"
       id="linearGradient15806"
       x1="3596.4565"
       y1="1352.8043"
       x2="3812.9106"
       y2="1364.1727"
       gradientUnits="userSpaceOnUse"
       gradientTransform="translate(177.16538,602.35242)" />
    <linearGradient
       inkscape:collect="always"
       xlink:href="#linearGradient15800"
       id="linearGradient15816"
       x1="3561.0237"
       y1="1098.3855"
       x2="3773.6221"
       y2="1098.3855"
       gradientUnits="userSpaceOnUse"
       gradientTransform="translate(177.16537,673.2185)" />
    <linearGradient
       inkscape:collect="always"
       xlink:href="#linearGradient15800"
       id="linearGradient15824"
       x1="3651.031"
       y1="1452.7555"
       x2="3773.6221"
       y2="1452.7555"
       gradientUnits="userSpaceOnUse"
       gradientTransform="translate(177.16538,602.35242)" />
    <linearGradient
       inkscape:collect="always"
       xlink:href="#linearGradient16795"
       id="linearGradient16809"
       x1="3711.4448"
       y1="1283.3334"
       x2="3808.2375"
       y2="1282.2473"
       gradientUnits="userSpaceOnUse"
       gradientTransform="translate(177.16538,602.35242)" />
    <linearGradient
       inkscape:collect="always"
       xlink:href="#linearGradient27551"
       id="linearGradient27557"
       x1="3005.6147"
       y1="1768.2559"
       x2="3064.9607"
       y2="1797.0911"
       gradientUnits="userSpaceOnUse"
       gradientTransform="translate(70.86609,496.05317)" />
    <linearGradient
       inkscape:collect="always"
       xlink:href="#linearGradient27559"
       id="linearGradient27565"
       x1="3018.4697"
       y1="2178.5039"
       x2="3018.4697"
       y2="2128.864"
       gradientUnits="userSpaceOnUse"
       gradientTransform="translate(70.866358,496.05319)" />
  </defs>
  <sodipodi:namedview
     id="base"
     pagecolor="#ffffff"
     bordercolor="#666666"
     borderopacity="1.0"
     gridtolerance="10000"
     guidetolerance="10"
     objecttolerance="10"
     inkscape:pageopacity="0.0"
     inkscape:pageshadow="2"
     inkscape:zoom="0.089538342"
     inkscape:cx="3367.0315"
     inkscape:cy="3204.535"
     inkscape:document-units="cm"
     inkscape:current-layer="layer1"
     width="200cm"
     height="200cm"
     units="cm"
     showgrid="true"
     gridspacingx="1cm"
     gridspacingy="1cm"
     gridanglex="0.84666669cm"
     gridanglez="0.84666669cm"
     grid_units="cm"
     gridempspacing="10"
     inkscape:grid-bbox="false"
     inkscape:grid-points="true"
     showguides="true"
     inkscape:guide-bbox="true"
     inkscape:window-width="1280"
     inkscape:window-height="744"
     inkscape:window-x="-4"
     inkscape:window-y="-4" />
  <metadata
     id="metadata7">
    <rdf:RDF>
      <cc:Work
         rdf:about="">
        <dc:format>image/svg+xml</dc:format>
        <dc:type
           rdf:resource="http://purl.org/dc/dcmitype/StillImage" />
      </cc:Work>
    </rdf:RDF>
  </metadata>
  <g
     inkscape:label="Layer 1"
     inkscape:groupmode="layer"
     id="layer1"
     style="display:inline">
    <use
       x="0"
       y="0"
       xlink:href="#path16837"
       id="use23657"
       transform="translate(896.41191,-17.716512)"
       width="7086.6138"
       height="7086.6138" />
    <path
       id="path3212"
       style="fill:#ffffff;fill-opacity:1;stroke:#000000;stroke-width:41.70478821;stroke-linecap:round;stroke-linejoin:round;stroke-miterlimit:4;stroke-dashoffset:0;stroke-opacity:1"
       d="M 3972.3377,5489.702 C 3972.3377,5666.8673 3897.6378,5659.3599 3897.6378,5952.7457 C 3897.6378,6246.1315 4039.3701,6377.9425 4039.3701,6732.2732 C 4039.3701,6803.1394 3937.2432,7046.0644 4039.3701,7051.1708 C 4083.6614,7053.3853 4753.3173,7051.1709 4854.3307,7051.1709 C 4907.4804,7051.1709 4973.9174,6943.7644 4854.3307,6944.8717 C 4689.4121,6946.3987 4322.8347,6732.2732 4322.8347,6625.974 C 4322.8347,6236.2102 4429.1338,6281.5645 4429.1338,5988.1787 C 4429.1338,5694.7929 4399.4435,5633.848 4390.2905,5434.6775 C 4411.9351,5369.2758 4421.5214,5270.743 4391.1362,5154.7508 C 4347.8555,4989.5312 4402.6235,4786.9132 4301.7452,4410.4303 C 4165.0643,3900.3302 3956.5443,3512.4852 3711.8777,3578.0435 C 3403.8463,3660.5802 3436.6358,4056.7584 3573.3167,4566.8585 C 3709.9976,5076.9586 3889.8009,5181.6705 3972.3377,5489.702 z "
       sodipodi:nodetypes="cssssssscsscsc" />
    <path
       id="path16825"
       style="fill:#ffffff;fill-opacity:1;stroke:#000000;stroke-width:41.70478821;stroke-linecap:round;stroke-linejoin:round;stroke-miterlimit:4;stroke-dashoffset:0;stroke-opacity:1"
       d="M 3419.2913,5685.9977 C 3454.7244,5650.5646 3507.2028,5503.7208 3507.874,5383.8166 C 3508.83,5213.0249 3614.1732,5031.4859 3614.1732,4641.7221 C 3614.1732,4113.6276 3513.14,3685.0292 3259.8425,3685.0292 C 2940.9449,3685.0292 2870.0787,4076.1945 2870.0787,4604.289 C 2870.0787,5132.3835 3011.811,5312.9504 3022.5772,5579.6985 C 2944.7607,5680.9785 2870.633,5667.6394 2723.9401,5921.719 C 2577.2472,6175.7986 2629.5183,6348.0301 2480.3149,6696.8402 C 2440.3148,6790.3531 2342.755,7046.0645 2444.8819,7051.1708 C 2489.1732,7053.3853 3158.8291,7051.171 3259.8425,7051.171 C 3312.9922,7051.1709 3379.4292,6943.7645 3259.8425,6944.8718 C 3094.9239,6946.3988 2763.7794,6767.7063 2799.2125,6661.4071 C 3007.6997,6369.5498 3019.8197,6472.2324 3166.5126,6218.1529 C 3313.2055,5964.0733 3335.682,5842.2987 3419.2913,5685.9977 z "
       sodipodi:nodetypes="csssscssscsccc" />
    <path
       id="path16842"
       style="fill:#ffffff;fill-opacity:1;stroke:#000000;stroke-width:35.43307877;stroke-linecap:round;stroke-linejoin:round;stroke-miterlimit:4;stroke-dashoffset:0;stroke-opacity:1"
       d="M 3862.2048,2232.2732 C 3791.3387,2196.8401 3649.6064,2125.9741 3720.4725,2055.108 L 3826.7718,1665.3441 L 4039.3702,1665.3441 L 4039.3701,1629.9111 C 4039.3701,1453.8796 3896.504,1311.0134 3720.4725,1311.0134 C 3544.441,1311.0134 3401.5749,1453.8796 3401.5749,1629.9111 C 3401.5749,1805.9426 3437.008,1913.3757 3259.8426,2019.6749 C 3056.7509,2151.0225 2905.6264,2315.463 2870.0788,2551.1709 C 2870.0788,2976.1689 2870.0787,2728.3362 2870.0787,3011.8008 C 2870.0787,3224.3992 2870.0787,3366.1316 2870.0787,3685.0292 C 2870.0787,3939.2968 2870.0787,4216.5252 2870.0787,4393.6906 C 3614.1732,4393.6906 4003.937,4393.6906 4251.9685,4251.9583 C 4181.1024,3862.1945 3862.2047,3578.73 3862.2047,3472.4308 L 3862.2047,3295.2654 C 3862.2047,3047.2339 4110.2363,2870.0686 4110.2363,2551.171 C 4123.1503,2404.7172 3999.5828,2299.3189 3862.2048,2232.2732 z "
       sodipodi:nodetypes="cccccssccsscccccc" />
    <path
       sodipodi:nodetypes="cccsscc"
       d="M 3614.1732,1665.3441 L 4039.3701,1665.3441 L 4039.37,1629.9111 C 4039.37,1453.8796 3896.5039,1311.0134 3720.4724,1311.0134 C 3544.4409,1311.0134 3401.5748,1453.8796 3401.5748,1629.9111 C 3401.5748,1700.7772 3401.5748,1781.1421 3401.5748,1852.0082 L 3614.1732,1665.3441 z "
       style="fill:#ffffff;fill-opacity:1;stroke:#000000;stroke-width:35.43307877;stroke-linecap:round;stroke-linejoin:round;stroke-miterlimit:4;stroke-dashoffset:0;stroke-opacity:1"
       id="path3188" />
    <path
       id="path14801"
       style="fill:#ffffff;fill-opacity:1;fill-rule:evenodd;stroke:#000000;stroke-width:35.43307114;stroke-linecap:round;stroke-linejoin:miter;stroke-miterlimit:4;stroke-opacity:1"
       d="M 3614.1733,1665.3441 C 3507.874,1594.478 3472.441,1807.0764 3543.3071,1842.5094 C 3543.3071,2021.3896 3720.4724,2135.4728 3826.7717,2135.4728 C 3933.0708,2135.4728 3981.3961,1908.6985 4003.937,1807.0764 C 4003.937,1736.2102 4039.37,1666.5437 4039.37,1629.9111 C 4039.3701,1523.6118 4003.937,1488.1788 4003.937,1488.1788 C 4003.937,1523.6118 4003.937,1559.0449 3968.504,1559.0449 C 3755.9055,1559.0449 3720.4725,1452.7457 3649.6063,1665.3441 L 3614.1732,1771.6433 L 3578.7402,1736.2102 L 3614.1733,1665.3441"
       sodipodi:nodetypes="ccccccccccc" />
    <path
       style="fill:none;fill-rule:evenodd;stroke:url(#linearGradient15806);stroke-width:35.43307114;stroke-linecap:round;stroke-linejoin:miter;stroke-miterlimit:4;stroke-dasharray:none;stroke-opacity:1"
       d="M 3791.3386,1984.2417 C 3826.7716,1984.2417 3897.6378,1984.2417 3933.0709,1984.2417"
       id="path4116"
       sodipodi:nodetypes="cc" />
    <path
       id="path7032"
       style="fill:none;fill-rule:evenodd;stroke:url(#linearGradient15816);stroke-width:35.43307114;stroke-linecap:round;stroke-linejoin:miter;stroke-miterlimit:4;stroke-opacity:1"
       d="M 3933.0709,1736.2102 C 3933.0709,1736.2102 3791.3386,1736.2102 3755.9055,1736.2102 C 3755.9055,1771.6433 3791.3386,1807.0764 3826.7717,1807.0764 C 3861.0015,1807.0764 3897.6378,1807.0764 3933.0709,1807.0764"
       sodipodi:nodetypes="ccsc" />
    <path
       sodipodi:nodetypes="cc"
       id="path7036"
       d="M 3755.9055,1665.3441 C 3826.7717,1665.3441 3826.7717,1700.7772 3933.0709,1700.7772"
       style="fill:none;fill-rule:evenodd;stroke:#000000;stroke-width:35.43307114;stroke-linecap:round;stroke-linejoin:miter;stroke-miterlimit:4;stroke-dasharray:none;stroke-opacity:1" />
    <path
       sodipodi:nodetypes="ccscs"
       id="path5087"
       d="M 4039.3701,1665.3441 C 4035.8031,1702.5014 3968.504,1700.7772 3968.504,1736.2102 C 3968.504,1771.6433 3968.504,1842.5094 3968.504,1877.9425 C 3968.5039,1922.8744 3933.0709,1958.3074 3862.2047,1922.8744 C 3933.0709,1958.3074 3968.504,1984.2417 3968.504,1913.3756"
       style="fill:none;fill-opacity:1;fill-rule:evenodd;stroke:url(#linearGradient16809);stroke-width:35.43307114;stroke-linecap:round;stroke-linejoin:round;stroke-miterlimit:4;stroke-dasharray:none;stroke-opacity:1" />
    <path
       style="fill:none;fill-rule:evenodd;stroke:#000000;stroke-width:35.43307114;stroke-linecap:round;stroke-linejoin:miter;stroke-miterlimit:4;stroke-dasharray:none;stroke-opacity:1"
       d="M 4039.3701,1629.911 C 4039.3701,1665.344 4039.3701,1665.3441 4003.937,1700.7772"
       id="path13826"
       sodipodi:nodetypes="cc" />
    <path
       sodipodi:type="arc"
       style="fill:none;fill-opacity:1;stroke:#000000;stroke-width:35.43310547;stroke-linecap:round;stroke-linejoin:round;stroke-miterlimit:4;stroke-dasharray:none;stroke-dashoffset:0;stroke-opacity:1"
       id="path13828"
       sodipodi:cx="3667.3228"
       sodipodi:cy="1098.4248"
       sodipodi:rx="17.716536"
       sodipodi:ry="20.227396"
       d="M 3685.0393 1098.4248 A 17.716536 20.227396 0 1 1  3649.6062,1098.4248 A 17.716536 20.227396 0 1 1  3685.0393 1098.4248 z"
       transform="matrix(1,0,0,0.9999982,194.88198,652.99316)" />
    <path
       transform="matrix(1,0,0,0.5,336.61426,1186.9979)"
       d="M 3685.0393 1098.4248 A 17.716536 35.433071 0 1 1  3649.6062,1098.4248 A 17.716536 35.433071 0 1 1  3685.0393 1098.4248 z"
       sodipodi:ry="35.433071"
       sodipodi:rx="17.716536"
       sodipodi:cy="1098.4248"
       sodipodi:cx="3667.3228"
       id="path13830"
       style="fill:none;fill-opacity:1;stroke:#000000;stroke-width:50.10993195;stroke-linecap:round;stroke-linejoin:round;stroke-miterlimit:4;stroke-dasharray:none;stroke-dashoffset:0;stroke-opacity:1"
       sodipodi:type="arc" />
    <path
       sodipodi:type="arc"
       style="fill:none;fill-opacity:1;stroke:#000000;stroke-width:35.43307114;stroke-linecap:round;stroke-linejoin:round;stroke-miterlimit:4;stroke-dasharray:none;stroke-dashoffset:0;stroke-opacity:1"
       id="path14803"
       sodipodi:cx="3472.4409"
       sodipodi:cy="868.1098"
       sodipodi:rx="0"
       sodipodi:ry="17.716536"
       d="M 3472.4409,855.0938 A 0,17.716536 0 0 0 3472.4409,868.1098 L 3472.4409,868.1098 z"
       sodipodi:start="5.4579888"
       sodipodi:end="3.1415927"
       transform="translate(0,141.7225)" />
    <path
       sodipodi:type="arc"
       style="fill:#ffffff;fill-opacity:1;stroke:none;stroke-width:35.43307114;stroke-linecap:round;stroke-linejoin:round;stroke-miterlimit:4;stroke-dasharray:none;stroke-dashoffset:0;stroke-opacity:1"
       id="path14805"
       sodipodi:cx="3525.5906"
       sodipodi:cy="832.67676"
       sodipodi:rx="17.716536"
       sodipodi:ry="17.716536"
       d="M 3543.3071 832.67676 A 17.716536 17.716536 0 1 1  3507.874,832.67676 A 17.716536 17.716536 0 1 1  3543.3071 832.67676 z"
       transform="matrix(0.5,0,0,0.5,2108.2678,1346.4467)" />
    <path
       transform="matrix(0.5,0,0,0.5,2241.1417,1319.8719)"
       d="M 3543.3071 832.67676 A 17.716536 17.716536 0 1 1  3507.874,832.67676 A 17.716536 17.716536 0 1 1  3543.3071 832.67676 z"
       sodipodi:ry="17.716536"
       sodipodi:rx="17.716536"
       sodipodi:cy="832.67676"
       sodipodi:cx="3525.5906"
       id="path15776"
       style="fill:#ffffff;fill-opacity:1;stroke:none;stroke-width:35.43307114;stroke-linecap:round;stroke-linejoin:round;stroke-miterlimit:4;stroke-dasharray:none;stroke-dashoffset:0;stroke-opacity:1"
       sodipodi:type="arc" />
    <path
       sodipodi:nodetypes="cc"
       id="path15778"
       d="M 3826.7717,2055.1079 L 3933.0709,2055.1079"
       style="fill:none;fill-rule:evenodd;stroke:url(#linearGradient15824);stroke-width:35.43307114;stroke-linecap:round;stroke-linejoin:miter;stroke-miterlimit:4;stroke-dasharray:none;stroke-opacity:1" />
    <path
       style="fill:none;fill-rule:evenodd;stroke:#000000;stroke-width:35.43307114;stroke-linecap:butt;stroke-linejoin:miter;stroke-miterlimit:4;stroke-dasharray:none;stroke-opacity:1"
       d="M 2870.0787,3366.1312 C 3153.5433,3436.9973 3330.7088,3436.9977 3614.1733,3436.9977 C 3897.6378,3436.9978 3862.2047,3330.6985 3862.2047,3330.6985 L 3862.2047,3507.8638 C 3862.2047,3507.8638 3862.2048,3578.73 3614.1733,3578.73 C 3330.7088,3578.73 3153.5433,3578.7296 2870.0787,3507.8635 L 2870.0787,3366.1312 z "
       id="path26580"
       sodipodi:nodetypes="csccscc" />
    <path
       id="path16837"
       style="fill:#ffffff;fill-opacity:1;stroke:url(#linearGradient27565);stroke-width:35.43307114;stroke-linecap:round;stroke-linejoin:round;stroke-miterlimit:4;stroke-dasharray:none;stroke-dashoffset:0;stroke-opacity:1"
       d="M 2905.5119,2622.037 C 2870.0788,2728.3363 2870.0787,2763.7693 2870.0787,2870.0685 C 2870.0787,2967.8637 2905.5119,3047.2339 2905.5119,3153.5331 C 2905.5119,3222.0623 2870.0788,3259.8323 2905.5119,3330.6985 C 2905.5119,3401.5646 2905.5119,3401.5646 2905.5119,3507.8638 C 2905.5119,3649.5961 2976.378,3897.6276 2976.378,4074.7929 C 2976.378,4393.6905 2834.6457,4677.1551 2905.5118,4677.1551 C 2940.9449,4677.1551 3035.807,4351.3037 3047.244,4393.6905 C 3058.681,4436.0773 2923.5022,4780.9742 2976.378,4783.4543 C 3029.2538,4785.9343 3082.6772,4499.9898 3118.1102,4429.1236 C 3118.1102,4535.4229 3049.6126,4854.3208 3082.6772,4854.3205 C 3115.7418,4854.3202 3174.0138,4468.056 3188.9763,4429.1236 C 3204.6393,4465.224 3153.5433,4818.8874 3188.9764,4818.8874 C 3259.8426,4818.8874 3249.6541,4371.8549 3259.8425,4322.8244 C 3295.2756,4393.6904 3321.322,4557.8327 3366.1417,4535.4228 C 3401.5747,4517.7063 3295.2756,4287.3913 3259.8425,4181.0921 C 3243.9964,4133.5537 3188.9764,4074.7929 3188.9764,4003.9268 C 3188.9764,3826.7615 3259.8426,3738.8873 3259.8426,3543.2969 C 3259.8426,3401.5646 3224.4095,3366.1315 3224.4095,3295.2654 C 3224.4095,3224.3992 3259.8426,3136.5251 3259.8426,2940.9347 C 3259.8426,2834.6355 3224.4095,2657.4701 3188.9764,2622.037"
       sodipodi:nodetypes="csscsczczczczcssccssc" />
    <path
       id="path16835"
       style="fill:#ffffff;fill-opacity:1;stroke:url(#linearGradient27557);stroke-width:35.43307114;stroke-linecap:round;stroke-linejoin:round;stroke-miterlimit:4;stroke-dasharray:none;stroke-dashoffset:0;stroke-opacity:1"
       d="M 3118.1103,2267.7063 C 3011.8111,2232.2733 2834.6456,2362.9506 2834.6457,2480.3048 C 2834.6457,2515.7379 2834.6457,2657.4701 2940.9449,2728.3363"
       sodipodi:nodetypes="csc" />
    <path
       style="fill:none;fill-rule:evenodd;stroke:#000000;stroke-width:35.43307114;stroke-linecap:round;stroke-linejoin:miter;stroke-miterlimit:4;stroke-dasharray:none;stroke-opacity:1"
       d="M 2976.378,4039.3598 L 3188.9765,4039.3598"
       id="path27570"
       sodipodi:nodetypes="cc" />
    <rect
       style="fill:#ffffff;fill-opacity:1;stroke:#000000;stroke-width:35.43306732;stroke-linecap:round;stroke-linejoin:round;stroke-miterlimit:4;stroke-dasharray:none;stroke-dashoffset:0;stroke-opacity:1"
       id="rect2207"
       width="177.16528"
       height="177.1657"
       x="3543.5278"
       y="3436.9976"
       rx="0.22097082"
       ry="0.22097076" />
    <rect
       ry="0.22097076"
       rx="0.22097084"
       y="3472.4307"
       x="3614.394"
       height="70.866417"
       width="141.73253"
       id="rect2209"
       style="fill:#ffffff;fill-opacity:1;stroke:#000000;stroke-width:35.43306732;stroke-linecap:round;stroke-linejoin:round;stroke-miterlimit:4;stroke-dasharray:none;stroke-dashoffset:0;stroke-opacity:1" />
    <path
       style="fill:#ffffff;fill-opacity:1;stroke:#000000;stroke-width:35.43307114;stroke-linecap:round;stroke-linejoin:round;stroke-miterlimit:4;stroke-dashoffset:0;stroke-opacity:1"
       d="M 3543.3077,3436.998 L 3543.5287,3578.5096 C 3508.095,3578.7302 3472.6619,3578.7302 3401.7958,3614.1633 C 3330.9296,3649.5964 3330.9296,3507.8641 3401.5748,3472.6517 C 3472.6619,3436.9979 3508.095,3436.9979 3543.3077,3436.998 z "
       id="rect2211"
       sodipodi:nodetypes="ccccc" />
    <path
       style="fill:none;fill-rule:evenodd;stroke:#000000;stroke-width:35.43307114;stroke-linecap:round;stroke-linejoin:miter;stroke-miterlimit:4;stroke-dasharray:none;stroke-opacity:1"
       d="M 3153.5433,2090.541 C 3082.6771,2161.4072 3789.549,2585.837 3791.3386,2196.8402"
       id="path2214"
       sodipodi:nodetypes="cc" />
  </g>
  <g
     inkscape:groupmode="layer"
     id="layer2"
     inkscape:label="foreground"
     sodipodi:insensitive="true"
     style="display:none">
    <path
       sodipodi:type="arc"
       style="fill:none;fill-opacity:1;stroke:#000000;stroke-width:35.43307114;stroke-linecap:round;stroke-linejoin:round;stroke-miterlimit:4;stroke-dasharray:none;stroke-dashoffset:0;stroke-opacity:0.25"
       id="path3349"
       sodipodi:cx="3578.7402"
       sodipodi:cy="1045.2751"
       sodipodi:rx="318.89764"
       sodipodi:ry="70.527519"
       d="M 3897.6379,1045.2751 A 318.89764,70.527519 0 1 1 3259.8426,1045.2751"
       transform="translate(-7.6894685e-5,124.01579)"
       sodipodi:start="0"
       sodipodi:end="3.1415927"
       sodipodi:open="true" />
    <path
       sodipodi:open="true"
       sodipodi:end="3.1415927"
       sodipodi:start="0"
       transform="translate(-7.6894685e-5,53.149647)"
       d="M 3897.6379,1045.2751 A 318.89764,70.527519 0 1 1 3259.8426,1045.2751"
       sodipodi:ry="70.527519"
       sodipodi:rx="318.89764"
       sodipodi:cy="1045.2751"
       sodipodi:cx="3578.7402"
       id="path2298"
       style="fill:none;fill-opacity:1;stroke:#000000;stroke-width:35.43307114;stroke-linecap:round;stroke-linejoin:round;stroke-miterlimit:4;stroke-dasharray:none;stroke-dashoffset:0;stroke-opacity:0.25"
       sodipodi:type="arc" />
    <path
       sodipodi:open="true"
       sodipodi:end="3.1415927"
       sodipodi:start="0"
       transform="translate(-7.6894685e-5,194.88193)"
       d="M 3897.6379,1045.2751 A 318.89764,70.527519 0 1 1 3259.8426,1045.2751"
       sodipodi:ry="70.527519"
       sodipodi:rx="318.89764"
       sodipodi:cy="1045.2751"
       sodipodi:cx="3578.7402"
       id="path2300"
       style="fill:none;fill-opacity:1;stroke:#000000;stroke-width:35.43307114;stroke-linecap:round;stroke-linejoin:round;stroke-miterlimit:4;stroke-dasharray:none;stroke-dashoffset:0;stroke-opacity:0.25"
       sodipodi:type="arc" />
    <path
       sodipodi:type="arc"
       style="fill:none;fill-opacity:1;stroke:#000000;stroke-width:35.43307114;stroke-linecap:round;stroke-linejoin:round;stroke-miterlimit:4;stroke-dasharray:none;stroke-dashoffset:0;stroke-opacity:0.25"
       id="path2302"
       sodipodi:cx="3578.7402"
       sodipodi:cy="1045.2751"
       sodipodi:rx="318.89764"
       sodipodi:ry="70.527519"
       d="M 3897.6379,1045.2751 A 318.89764,70.527519 0 1 1 3259.8426,1045.2751"
       transform="translate(-7.6894685e-5,265.74807)"
       sodipodi:start="0"
       sodipodi:end="3.1415927"
       sodipodi:open="true" />
    <path
       sodipodi:open="true"
       sodipodi:end="3.1415927"
       sodipodi:start="0"
       transform="translate(-7.6894685e-5,336.61421)"
       d="M 3897.6379,1045.2751 A 318.89764,70.527519 0 1 1 3259.8426,1045.2751"
       sodipodi:ry="70.527519"
       sodipodi:rx="318.89764"
       sodipodi:cy="1045.2751"
       sodipodi:cx="3578.7402"
       id="path2304"
       style="fill:none;fill-opacity:1;stroke:#000000;stroke-width:35.43307114;stroke-linecap:round;stroke-linejoin:round;stroke-miterlimit:4;stroke-dasharray:none;stroke-dashoffset:0;stroke-opacity:0.25"
       sodipodi:type="arc" />
    <path
       sodipodi:type="arc"
       style="fill:none;fill-opacity:1;stroke:#000000;stroke-width:35.43307114;stroke-linecap:round;stroke-linejoin:round;stroke-miterlimit:4;stroke-dasharray:none;stroke-dashoffset:0;stroke-opacity:0.25"
       id="path2306"
       sodipodi:cx="3578.7402"
       sodipodi:cy="1045.2751"
       sodipodi:rx="318.89764"
       sodipodi:ry="70.527519"
       d="M 3897.6379,1045.2751 A 318.89764,70.527519 0 1 1 3259.8426,1045.2751"
       transform="translate(-7.6894685e-5,407.48036)"
       sodipodi:start="0"
       sodipodi:end="3.1415927"
       sodipodi:open="true" />
    <path
       sodipodi:type="arc"
       style="fill:none;fill-opacity:1;stroke:#000000;stroke-width:35.43307114;stroke-linecap:round;stroke-linejoin:round;stroke-miterlimit:4;stroke-dasharray:none;stroke-dashoffset:0;stroke-opacity:0.25"
       id="path2308"
       sodipodi:cx="3578.7402"
       sodipodi:cy="1045.2751"
       sodipodi:rx="318.89764"
       sodipodi:ry="70.527519"
       d="M 3897.6379,1045.2751 A 318.89764,70.527519 0 1 1 3259.8426,1045.2751"
       transform="translate(-7.6894685e-5,-17.716495)"
       sodipodi:start="0"
       sodipodi:end="3.1415927"
       sodipodi:open="true" />
  </g>
</svg>
