<?xml version="1.0" encoding="UTF-8" standalone="no"?>
<!-- Created with Inkscape (http://www.inkscape.org/) -->
<svg
   xmlns:dc="http://purl.org/dc/elements/1.1/"
   xmlns:cc="http://web.resource.org/cc/"
   xmlns:rdf="http://www.w3.org/1999/02/22-rdf-syntax-ns#"
   xmlns:svg="http://www.w3.org/2000/svg"
   xmlns="http://www.w3.org/2000/svg"
   xmlns:xlink="http://www.w3.org/1999/xlink"
   xmlns:sodipodi="http://sodipodi.sourceforge.net/DTD/sodipodi-0.dtd"
   xmlns:inkscape="http://www.inkscape.org/namespaces/inkscape"
   width="25920"
   height="12960"
   id="svg2"
   sodipodi:version="0.32"
   inkscape:version="0.45.1"
   version="1.0"
   sodipodi:docbase="C:\Documents and Settings\Seth Galbraith\My Documents\My Pictures"
   sodipodi:docname="manperson.svg"
   inkscape:output_extension="org.inkscape.output.svg.inkscape">
  <defs
     id="defs4" />
  <sodipodi:namedview
     id="base"
     pagecolor="#ffffff"
     bordercolor="#666666"
     borderopacity="1.0"
     gridtolerance="10000"
     guidetolerance="10"
     objecttolerance="10"
     inkscape:pageopacity="0.0"
     inkscape:pageshadow="2"
     inkscape:zoom="0.065891473"
     inkscape:cx="10727.825"
     inkscape:cy="2308.4921"
     inkscape:document-units="in"
     inkscape:current-layer="layer1"
     width="288in"
     height="144in"
     units="in"
     gridspacingx="0.5in"
     gridspacingy="0.5in"
     gridanglex="0.33333333in"
     gridanglez="0.33333333in"
     grid_units="in"
     showgrid="true"
     gridempspacing="9"
     inkscape:grid-points="true"
     showguides="true"
     inkscape:guide-bbox="true"
     inkscape:guide-points="true"
     inkscape:grid-bbox="false"
     inkscape:window-width="1280"
     inkscape:window-height="740"
     inkscape:window-x="-4"
     inkscape:window-y="-4">
    <sodipodi:guide
       orientation="horizontal"
       position="6480"
       id="guide2160" />
    <sodipodi:guide
       orientation="horizontal"
       position="5670"
       id="guide2162" />
    <sodipodi:guide
       orientation="horizontal"
       position="3240"
       id="guide2164" />
    <sodipodi:guide
       orientation="horizontal"
       position="4050"
       id="guide2166" />
    <sodipodi:guide
       orientation="horizontal"
       position="1620"
       id="guide2168" />
    <sodipodi:guide
       orientation="horizontal"
       position="2430"
       id="guide2170" />
  </sodipodi:namedview>
  <metadata
     id="metadata7">
    <rdf:RDF>
      <cc:Work
         rdf:about="">
        <dc:format>image/svg+xml</dc:format>
        <dc:type
           rdf:resource="http://purl.org/dc/dcmitype/StillImage" />
      </cc:Work>
    </rdf:RDF>
  </metadata>
  <g
     inkscape:label="Layer 1"
     inkscape:groupmode="layer"
     id="layer1">
    <rect
       style="fill:none;fill-opacity:1;stroke:#000000;stroke-width:3;stroke-linecap:square;stroke-linejoin:miter;stroke-miterlimit:4;stroke-dasharray:none;stroke-dashoffset:0;stroke-opacity:1"
       id="rect2204"
       width="90"
       height="0"
       x="3600"
       y="6750"
       ry="0" />
    <path
       style="fill:#000000;fill-opacity:1;fill-rule:evenodd;stroke:#000000;stroke-width:1px;stroke-linecap:butt;stroke-linejoin:miter;stroke-opacity:1"
       d="M 7289.96,7245 C 7334.96,7200 7289.96,7110 7334.96,7065 C 7405.6897,6994.2703 7289.96,6930 7289.96,6885 C 7289.96,6772.5 7247.46,6671.25 7175.585,6598.125 C 7103.71,6525 7002.46,6480 6884.96,6480 C 6653.96,6480 6479.96,6660 6479.96,6885 C 6479.96,7155 6698.17,7226.5314 6704.96,7290 C 6709.7742,7335 6704.96,7425 6659.96,7470 C 6614.96,7515 6479.96,7695 6479.96,8055 C 6479.96,8460 6659.96,8595 6659.96,8730 C 6659.96,8775 6659.96,8910 6659.96,8955 C 6659.96,9000 6479.96,9090 6479.96,9315 C 6479.96,9495 6569.96,9540 6569.96,9585 C 6569.96,9630 6479.96,10035 6479.96,10305 C 6479.96,10800 6614.96,11070 6614.96,11160 C 6614.96,11250 6614.96,11340 6614.96,11430 C 6614.96,11520 6479.96,11610 6479.96,11880 C 6479.96,12150 6569.96,12195 6614.96,12330 C 6662.3374,12472.132 6644.96,12585 6659.96,12735 C 6644.96,12780 6614.96,12825 6614.96,12870 C 6614.96,12915 6659.96,12960 6704.96,12960 C 6929.96,12960 7199.96,12960 7424.96,12960 C 7469.96,12960 7604.96,12960 7604.96,12870 C 7604.96,12825 7469.96,12825 7379.96,12780 C 7289.96,12735 7154.96,12690 7064.96,12600 C 7019.96,12555 7049.96,12375 7064.96,12240 C 7094.96,12120 7154.96,12000.988 7154.96,11880 C 7154.96,11790 7154.96,11686.794 7154.96,11565 C 7154.96,11475 7199.96,11430 7203.96,11340 C 7207.96,11250 7199.96,11159.518 7199.96,11025 C 7199.96,10935 7289.96,10710 7289.96,10350 C 7289.96,10080 7244.96,9900 7244.96,9855 C 7289.96,9810 7289.96,9810 7289.96,9720 C 7289.96,9586.3396 7289.96,9450 7289.96,9315 C 7289.2933,9180 7288.6267,9045 7287.96,8910 C 7288.6267,8640 7289.2933,8370 7289.96,8100 C 7289.96,7650 7064.96,7560 7064.96,7470 C 7063.2933,7410 7097.6267,7350 7095.96,7290 C 7173.2933,7290 7243.9491,7291.0109 7289.96,7245 z "
       id="path4181"
       sodipodi:nodetypes="cssssssssssssssssscsssscscscssscscccccs" />
    <path
       style="fill:#000000;fill-opacity:1;fill-rule:evenodd;stroke:#000000;stroke-width:1px;stroke-linecap:butt;stroke-linejoin:miter;stroke-opacity:1"
       d="M 10529.96,6480 C 10297.96,6480 10169.96,6615 10169.96,6840 C 10169.96,7065 10260,7245 10350,7290 C 10352.101,7335 10350,7335 10305,7380 C 9990.04,7425 9900,7515 9810,7515 C 9675,7515 9540,7605 9540,7785 C 9540,7875 9540,7920 9540,7965 C 9533.2895,8001.3723 9495.1299,8083.0241 9495,8280 C 9495,8460 9495,8595 9495,8640 C 9495,8685 9405,8820 9405,9000 C 9405,9225 9405,9450 9405,9675 C 9405,9750 9405,9825 9405,9900 C 9405,10035 9405,10170 9405,10305 C 9435,10305 9450,10305 9450,10260 C 9450,10215 9450,10035 9540,9900 C 9540,9900 9585,9900 9585,9900 C 9630,9945 9630,10005 9630,10080 C 9630,10125 9645,10125 9675,10125 C 9675,10050 9675,9975 9675,9900 C 9675,9810 9630,9765 9630,9675 C 9630,9495 9855,9270 9855,9000 C 9840,8880 9810,8775 9810,8640 C 9810,8595 9900,8460 9900,8280 C 9900,8100 9900,8100 9900,8055 C 9900,8415 9973.3507,8504.5779 9990,8730 C 9990,8820 9990,8865 9990,8955 C 9990,9045 9900,9180 9900,9315 C 9900,9405 9900,9540 9900,9630 C 9900,9765 9810,9900 9810,10305 C 9810,10845 9945,11025 9945,11160 C 9945,11295 9945,11340 9945,11475 C 9945,11610 9900,11745 9900,11880 C 9900,12150 10035,12375 10035,12555 C 10035,12690 9945,12825 9945,12915 C 9945,12960 9990,12960 10035,12960 C 10140,12960 10154.96,12960 10259.96,12960 C 10304.96,12960 10349.96,12960 10349.96,12915 C 10349.96,12825 10259.96,12690 10259.96,12555 C 10259.96,12330 10439.96,12195 10439.96,11880 C 10439.96,11745 10394.96,11610 10394.96,11520 C 10394.96,11385 10394.96,11295 10394.96,11160 C 10394.96,11070 10485,10800 10485,10305 C 10485,10080 10485,9900 10485,9855 C 10500,9855 10515,9855 10530,9855"
       id="path4231"
       sodipodi:nodetypes="cccccccccccccccccccccccccccccccccccccccccccc" />
    <use
       x="0"
       y="0"
       xlink:href="#path4231"
       id="use5202"
       style="stroke:#000000;stroke-opacity:1"
       transform="matrix(-0.9987993,0,0,1,21048.277,0)"
       width="25920"
       height="12960" />
    <path
       sodipodi:nodetypes="cssssssssssssssssscsssscscscssscscccccs"
       id="path6173"
       d="M 14985,7245 C 15030,7200 14985,7110 15030,7065 C 15100.73,6994.2703 14985,6930 14985,6885 C 14985,6772.5 14942.5,6671.25 14870.625,6598.125 C 14798.75,6525 14697.5,6480 14580,6480 C 14349,6480 14175,6660 14175,6885 C 14175,7155 14393.21,7226.5314 14400,7290 C 14404.814,7335 14400,7425 14355,7470 C 14310,7515 14175,7695 14175,8055 C 14175,8460 14355,8595 14355,8730 C 14355,8775 14355,8910 14355,8955 C 14355,9000 14175,9090 14175,9315 C 14175,9495 14265,9540 14265,9585 C 14265,9630 14175,10035 14175,10305 C 14175,10800 14310,11070 14310,11160 C 14310,11250 14310,11340 14310,11430 C 14310,11520 14175,11610 14175,11880 C 14175,12150 14265,12195 14310,12330 C 14357.377,12472.132 14340,12585 14355,12735 C 14340,12780 14310,12825 14310,12870 C 14310,12915 14355,12960 14400,12960 C 14625,12960 14895,12960 15120,12960 C 15165,12960 15300,12960 15300,12870 C 15300,12825 15165,12825 15075,12780 C 14985,12735 14850,12690 14760,12600 C 14715,12555 14745,12375 14760,12240 C 14790,12120 14850,12000.988 14850,11880 C 14850,11790 14850,11686.794 14850,11565 C 14850,11475 14895,11430 14899,11340 C 14903,11250 14895,11159.518 14895,11025 C 14895,10935 14985,10710 14985,10350 C 14985,10080 14940,9900 14940,9855 C 14985,9810 14985,9810 14985,9720 C 14985,9586.3396 14985,9450 14985,9315 C 14984.333,9180 14983.667,9045 14983,8910 C 14983.667,8640 14984.333,8370 14985,8100 C 14985,7650 14760,7560 14760,7470 C 14758.333,7410 14792.667,7350 14791,7290 C 14868.333,7290 14938.989,7291.0109 14985,7245 z "
       style="fill:#000000;fill-opacity:1;fill-rule:evenodd;stroke:#000000;stroke-width:1px;stroke-linecap:butt;stroke-linejoin:miter;stroke-opacity:1" />
    <path
       sodipodi:nodetypes="cccccccccccccccccccccccccccccccccccccccccccc"
       id="path6175"
       d="M 14579.96,6480 C 14347.96,6480 14219.96,6615 14219.96,6840 C 14219.96,7065 14310,7245 14400,7290 C 14402.101,7335 14400,7335 14355,7380 C 14040.04,7425 13950,7515 13860,7515 C 13725,7515 13590,7605 13590,7785 C 13590,7875 13590,7920 13590,7965 C 13583.29,8001.3723 13545.13,8083.0241 13545,8280 C 13545,8460 13545,8595 13545,8640 C 13545,8685 13455,8820 13455,9000 C 13455,9225 13455,9450 13455,9675 C 13455,9750 13455,9825 13455,9900 C 13455,10035 13455,10170 13455,10305 C 13485,10305 13500,10305 13500,10260 C 13500,10215 13500,10035 13590,9900 C 13590,9900 13635,9900 13635,9900 C 13680,9945 13680,10005 13680,10080 C 13680,10125 13695,10125 13725,10125 C 13725,10050 13725,9975 13725,9900 C 13725,9810 13680,9765 13680,9675 C 13680,9495 13905,9270 13905,9000 C 13890,8880 13860,8775 13860,8640 C 13860,8595 13950,8460 13950,8280 C 13950,8100 13950,8100 13950,8055 C 13950,8415 14023.351,8504.5779 14040,8730 C 14040,8820 14040,8865 14040,8955 C 14040,9045 13950,9180 13950,9315 C 13950,9405 13950,9540 13950,9630 C 13950,9765 13860,9900 13860,10305 C 13860,10845 13995,11025 13995,11160 C 13995,11295 13995,11340 13995,11475 C 13995,11610 13950,11745 13950,11880 C 13950,12150 14085,12375 14085,12555 C 14085,12690 13995,12825 13995,12915 C 13995,12960 14040,12960 14085,12960 C 14190,12960 14204.96,12960 14309.96,12960 C 14354.96,12960 14399.96,12960 14399.96,12915 C 14399.96,12825 14309.96,12690 14309.96,12555 C 14309.96,12330 14489.96,12195 14489.96,11880 C 14489.96,11745 14444.96,11610 14444.96,11520 C 14444.96,11385 14444.96,11295 14444.96,11160 C 14444.96,11070 14535,10800 14535,10305 C 14535,10080 14535,9900 14535,9855 C 14550,9855 14565,9855 14580,9855"
       style="fill:#000000;fill-opacity:1;fill-rule:evenodd;stroke:#000000;stroke-width:1px;stroke-linecap:butt;stroke-linejoin:miter;stroke-opacity:1" />
    <path
       style="fill:#000000;fill-opacity:1;fill-rule:evenodd;stroke:#000000;stroke-width:1px;stroke-linecap:butt;stroke-linejoin:miter;stroke-opacity:1"
       d="M 17820,7245 C 17865,7200 17820,7110 17865,7065 C 17935.73,6994.2703 17820,6930 17820,6885 C 17820,6772.5 17777.5,6671.25 17705.625,6598.125 C 17633.75,6525 17532.5,6480 17415,6480 C 17184,6480 17010,6660 17010,6885 C 17010,7155 17228.21,7226.5314 17235,7290 C 17239.814,7335 17235,7425 17190,7470 C 17145,7515 17010,7695 17010,8055 C 17010,8460 17190,8595 17190,8730 C 17190,8775 17190,8910 17190,8955 C 17190,9000 17010,9090 17010,9315 C 17010,9495 17100,9540 17100,9585 C 17100,9630 17010,10035 17010,10305 C 17010,10800 17145,11070 17145,11160 C 17145,11250 17145,11340 17145,11430 C 17145,11520 17010,11610 17010,11880 C 17010,12150 17100,12195 17145,12330 C 17192.377,12472.132 17175,12585 17190,12735 C 17175,12780 17145,12825 17145,12870 C 17145,12915 17190,12960 17235,12960 C 17460,12960 17730,12960 17955,12960 C 18000,12960 18135,12960 18135,12870 C 18135,12825 18000,12825 17910,12780 C 17820,12735 17685,12690 17595,12600 C 17550,12555 17580,12375 17595,12240 C 17625,12120 17685,12000.988 17685,11880 C 17685,11790 17685,11686.794 17685,11565 C 17685,11475 17730,11430 17734,11340 C 17738,11250 17730,11159.518 17730,11025 C 17730,10935 17820,10710 17820,10350 C 17820,10080 17775,9900 17775,9855 C 17820,9810 17820,9810 17820,9720 C 17820,9586.3396 17820,9450 17820,9315 C 17819.333,9180 17818.667,9045 17818,8910 C 17818.667,8640 17819.333,8370 17820,8100 C 17820,7650 17595,7560 17595,7470 C 17593.333,7410 17627.667,7350 17626,7290 C 17703.333,7290 17773.989,7291.0109 17820,7245 z "
       id="path6177"
       sodipodi:nodetypes="cssssssssssssssssscsssscscscssscscccccs" />
    <use
       height="12960"
       width="25920"
       transform="matrix(-0.9987993,0,0,1,27932.856,-0.4996997)"
       style="stroke:#000000;stroke-opacity:1"
       id="use6179"
       xlink:href="#path4231"
       y="0"
       x="0" />
    <path
       sodipodi:nodetypes="cssssssssssssssssscsssscscscssscscccccs"
       id="path6181"
       d="M 8505,7245 C 8550,7200 8505,7110 8550,7065 C 8620.7297,6994.2703 8505,6930 8505,6885 C 8505,6772.5 8462.5,6671.25 8390.625,6598.125 C 8318.75,6525 8217.5,6480 8100,6480 C 7869,6480 7695,6660 7695,6885 C 7695,7155 7913.21,7226.5314 7920,7290 C 7924.8142,7335 7920,7425 7875,7470 C 7830,7515 7695,7695 7695,8055 C 7695,8460 7875,8595 7875,8730 C 7875,8775 7875,8910 7875,8955 C 7875,9000 7695,9090 7695,9315 C 7695,9495 7785,9540 7785,9585 C 7785,9630 7695,10035 7695,10305 C 7695,10800 7830,11070 7830,11160 C 7830,11250 7830,11340 7830,11430 C 7830,11520 7695,11610 7695,11880 C 7695,12150 7785,12195 7830,12330 C 7877.3774,12472.132 7860,12585 7875,12735 C 7860,12780 7830,12825 7830,12870 C 7830,12915 7875,12960 7920,12960 C 8145,12960 8415,12960 8640,12960 C 8685,12960 8820,12960 8820,12870 C 8820,12825 8685,12825 8595,12780 C 8505,12735 8370,12690 8280,12600 C 8235,12555 8265,12375 8280,12240 C 8310,12120 8370,12000.988 8370,11880 C 8370,11790 8370,11686.794 8370,11565 C 8370,11475 8415,11430 8419,11340 C 8423,11250 8415,11159.518 8415,11025 C 8415,10935 8505,10710 8505,10350 C 8505,10080 8460,9900 8460,9855 C 8505,9810 8505,9810 8505,9720 C 8505,9586.3396 8505,9450 8505,9315 C 8504.3333,9180 8503.6667,9045 8503,8910 C 8503.6667,8640 8504.3333,8370 8505,8100 C 8505,7650 8280,7560 8280,7470 C 8278.3333,7410 8312.6667,7350 8311,7290 C 8388.3333,7290 8458.9891,7291.0109 8505,7245 z "
       style="fill:#000000;fill-opacity:1;fill-rule:evenodd;stroke:#000000;stroke-width:1px;stroke-linecap:butt;stroke-linejoin:miter;stroke-opacity:1" />
    <path
       style="fill:#000000;fill-opacity:1;fill-rule:evenodd;stroke:#000000;stroke-width:1px;stroke-linecap:butt;stroke-linejoin:miter;stroke-opacity:1"
       d="M 9000,7245 C 9045,7200 9000,7110 9045,7065 C 9115.7297,6994.2703 9000,6930 9000,6885 C 9000,6772.5 8957.5,6671.25 8885.625,6598.125 C 8813.75,6525 8712.5,6480 8595,6480 C 8364,6480 8190,6660 8190,6885 C 8190,7155 8408.21,7226.5314 8415,7290 C 8419.8142,7335 8415,7425 8370,7470 C 8325,7515 8190,7695 8190,8055 C 8190,8460 8370,8595 8370,8730 C 8370,8775 8370,8910 8370,8955 C 8370,9000 8190,9090 8190,9315 C 8190,9495 8280,9540 8280,9585 C 8280,9630 8190,10035 8190,10305 C 8190,10800 8325,11070 8325,11160 C 8325,11250 8325,11340 8325,11430 C 8325,11520 8190,11610 8190,11880 C 8190,12150 8280,12195 8325,12330 C 8372.3774,12472.132 8355,12585 8370,12735 C 8355,12780 8325,12825 8325,12870 C 8325,12915 8370,12960 8415,12960 C 8640,12960 8910,12960 9135,12960 C 9180,12960 9315,12960 9315,12870 C 9315,12825 9180,12825 9090,12780 C 9000,12735 8865,12690 8775,12600 C 8730,12555 8760,12375 8775,12240 C 8805,12120 8865,12000.988 8865,11880 C 8865,11790 8865,11686.794 8865,11565 C 8865,11475 8910,11430 8914,11340 C 8918,11250 8910,11159.518 8910,11025 C 8910,10935 9000,10710 9000,10350 C 9000,10080 8955,9900 8955,9855 C 9000,9810 9000,9810 9000,9720 C 9000,9586.3396 9000,9450 9000,9315 C 8999.3333,9180 8998.6667,9045 8998,8910 C 8998.6667,8640 8999.3333,8370 9000,8100 C 9000,7650 8775,7560 8775,7470 C 8773.3333,7410 8807.6667,7350 8806,7290 C 8883.3333,7290 8953.9891,7291.0109 9000,7245 z "
       id="path6183"
       sodipodi:nodetypes="cssssssssssssssssscsssscscscssscscccccs" />
  </g>
</svg>
