<?xml version="1.0" encoding="UTF-8" standalone="no"?>
<!-- Created with Inkscape (http://www.inkscape.org/) -->
<svg
   xmlns:dc="http://purl.org/dc/elements/1.1/"
   xmlns:cc="http://web.resource.org/cc/"
   xmlns:rdf="http://www.w3.org/1999/02/22-rdf-syntax-ns#"
   xmlns:svg="http://www.w3.org/2000/svg"
   xmlns="http://www.w3.org/2000/svg"
   xmlns:xlink="http://www.w3.org/1999/xlink"
   xmlns:sodipodi="http://sodipodi.sourceforge.net/DTD/sodipodi-0.dtd"
   xmlns:inkscape="http://www.inkscape.org/namespaces/inkscape"
   width="7086.6138"
   height="7086.6138"
   id="svg2"
   sodipodi:version="0.32"
   inkscape:version="0.45.1"
   version="1.0"
   sodipodi:docbase="C:\Documents and Settings\Seth Galbraith\My Documents\My Pictures"
   sodipodi:docname="warrior-healthy.svg"
   inkscape:output_extension="org.inkscape.output.svg.inkscape"
   inkscape:export-filename="C:\Documents and Settings\Seth Galbraith\My Documents\My Pictures\full-body-man-healthy.png"
   inkscape:export-xdpi="2.5400002"
   inkscape:export-ydpi="2.5400002">
  <defs
     id="defs4">
    <linearGradient
       id="linearGradient27559">
      <stop
         style="stop-color:#000000;stop-opacity:1;"
         offset="0"
         id="stop27561" />
      <stop
         style="stop-color:#000000;stop-opacity:0;"
         offset="1"
         id="stop27563" />
    </linearGradient>
    <linearGradient
       inkscape:collect="always"
       id="linearGradient27551">
      <stop
         style="stop-color:#000000;stop-opacity:1;"
         offset="0"
         id="stop27553" />
      <stop
         style="stop-color:#000000;stop-opacity:0;"
         offset="1"
         id="stop27555" />
    </linearGradient>
    <linearGradient
       id="linearGradient16795">
      <stop
         id="stop16797"
         offset="0"
         style="stop-color:#000000;stop-opacity:0;" />
      <stop
         style="stop-color:#000000;stop-opacity:1;"
         offset="0.5"
         id="stop16799" />
      <stop
         id="stop16801"
         offset="1"
         style="stop-color:#000000;stop-opacity:1;" />
    </linearGradient>
    <linearGradient
       id="linearGradient15800">
      <stop
         style="stop-color:#000000;stop-opacity:0;"
         offset="0"
         id="stop15802" />
      <stop
         id="stop15808"
         offset="0.5"
         style="stop-color:#000000;stop-opacity:1;" />
      <stop
         style="stop-color:#000000;stop-opacity:0;"
         offset="1"
         id="stop15804" />
    </linearGradient>
    <linearGradient
       inkscape:collect="always"
       xlink:href="#linearGradient16795"
       id="linearGradient15806"
       x1="3639.2937"
       y1="1346.4563"
       x2="3879.9211"
       y2="1346.4563"
       gradientUnits="userSpaceOnUse"
       gradientTransform="translate(35.433095,177.15558)" />
    <linearGradient
       inkscape:collect="always"
       xlink:href="#linearGradient15800"
       id="linearGradient15816"
       x1="3561.0237"
       y1="1098.3855"
       x2="3773.6221"
       y2="1098.3855"
       gradientUnits="userSpaceOnUse"
       gradientTransform="translate(35.433095,177.15558)" />
    <linearGradient
       inkscape:collect="always"
       xlink:href="#linearGradient15800"
       id="linearGradient15824"
       x1="3738.189"
       y1="1417.3224"
       x2="3844.4883"
       y2="1417.3224"
       gradientUnits="userSpaceOnUse"
       gradientTransform="translate(35.433095,177.15558)" />
    <linearGradient
       inkscape:collect="always"
       xlink:href="#linearGradient16795"
       id="linearGradient16809"
       x1="3773.6221"
       y1="1169.2909"
       x2="3879.9214"
       y2="1169.2909"
       gradientUnits="userSpaceOnUse"
       gradientTransform="translate(35.433095,177.15558)" />
    <linearGradient
       inkscape:collect="always"
       xlink:href="#linearGradient27551"
       id="linearGradient27557"
       x1="3005.6147"
       y1="1768.2559"
       x2="3064.9607"
       y2="1797.0911"
       gradientUnits="userSpaceOnUse"
       gradientTransform="translate(35.433065,141.72246)" />
    <linearGradient
       inkscape:collect="always"
       xlink:href="#linearGradient27559"
       id="linearGradient27565"
       x1="3018.4697"
       y1="2178.5039"
       x2="3018.4697"
       y2="2128.864"
       gradientUnits="userSpaceOnUse"
       gradientTransform="translate(35.433164,141.72253)" />
  </defs>
  <sodipodi:namedview
     id="base"
     pagecolor="#ffffff"
     bordercolor="#666666"
     borderopacity="1.0"
     gridtolerance="10000"
     guidetolerance="10"
     objecttolerance="10"
     inkscape:pageopacity="0.0"
     inkscape:pageshadow="2"
     inkscape:zoom="0.057544306"
     inkscape:cx="4226.7188"
     inkscape:cy="3414.6369"
     inkscape:document-units="cm"
     inkscape:current-layer="layer1"
     width="200cm"
     height="200cm"
     units="cm"
     showgrid="true"
     gridspacingx="1cm"
     gridspacingy="1cm"
     gridanglex="0.84666669cm"
     gridanglez="0.84666669cm"
     grid_units="cm"
     gridempspacing="10"
     inkscape:grid-bbox="false"
     inkscape:grid-points="true"
     showguides="true"
     inkscape:guide-bbox="true"
     inkscape:window-width="1280"
     inkscape:window-height="744"
     inkscape:window-x="0"
     inkscape:window-y="22" />
  <metadata
     id="metadata7">
    <rdf:RDF>
      <cc:Work
         rdf:about="">
        <dc:format>image/svg+xml</dc:format>
        <dc:type
           rdf:resource="http://purl.org/dc/dcmitype/StillImage" />
      </cc:Work>
    </rdf:RDF>
  </metadata>
  <g
     inkscape:label="Layer 1"
     inkscape:groupmode="layer"
     id="layer1">
    <path
       id="path3212"
       style="fill:#ffffff;fill-opacity:1;stroke:#000000;stroke-width:41.70478821;stroke-linecap:round;stroke-linejoin:round;stroke-miterlimit:4;stroke-dashoffset:0;stroke-opacity:1"
       d="M 3972.3377,5489.702 C 3972.3377,5666.8673 3897.6378,5659.3599 3897.6378,5952.7457 C 3897.6378,6246.1315 4039.3701,6377.9425 4039.3701,6732.2732 C 4039.3701,6803.1394 3937.2432,7046.0644 4039.3701,7051.1708 C 4083.6614,7053.3853 4753.3173,7051.1709 4854.3307,7051.1709 C 4907.4804,7051.1709 4973.9174,6943.7644 4854.3307,6944.8717 C 4689.4121,6946.3987 4322.8347,6732.2732 4322.8347,6625.974 C 4322.8347,6236.2102 4429.1338,6281.5645 4429.1338,5988.1787 C 4429.1338,5694.7929 4399.4435,5633.848 4390.2905,5434.6775 C 4411.9351,5369.2758 4421.5214,5270.743 4391.1362,5154.7508 C 4347.8555,4989.5312 4402.6235,4786.9132 4301.7452,4410.4303 C 4165.0643,3900.3302 3956.5443,3512.4852 3711.8777,3578.0435 C 3403.8463,3660.5802 3436.6358,4056.7584 3573.3167,4566.8585 C 3709.9976,5076.9586 3889.8009,5181.6705 3972.3377,5489.702 z "
       sodipodi:nodetypes="cssssssscsscsc" />
    <path
       id="path16825"
       style="fill:#ffffff;fill-opacity:1;stroke:#000000;stroke-width:41.70478821;stroke-linecap:round;stroke-linejoin:round;stroke-miterlimit:4;stroke-dashoffset:0;stroke-opacity:1"
       d="M 3490.1575,5685.9977 C 3525.5906,5650.5646 3578.069,5503.7208 3578.7402,5383.8166 C 3579.6962,5213.0249 3685.0394,5031.4859 3685.0394,4641.7221 C 3685.0394,4113.6276 3584.0062,3685.0292 3330.7087,3685.0292 C 3011.8111,3685.0292 2940.9449,4076.1945 2940.9449,4604.289 C 2940.9449,5132.3835 3082.6772,5312.9504 3093.4434,5579.6985 C 3015.6269,5680.9785 2941.4992,5667.6394 2794.8063,5921.719 C 2648.1134,6175.7986 2700.3845,6348.0301 2551.1811,6696.8402 C 2511.181,6790.3531 2413.6212,7046.0645 2515.7481,7051.1708 C 2560.0394,7053.3853 3229.6953,7051.171 3330.7087,7051.171 C 3383.8584,7051.1709 3450.2954,6943.7645 3330.7087,6944.8718 C 3165.7901,6946.3988 2834.6456,6767.7063 2870.0787,6661.4071 C 3078.5659,6369.5498 3090.6859,6472.2324 3237.3788,6218.1529 C 3384.0717,5964.0733 3406.5482,5842.2987 3490.1575,5685.9977 z "
       sodipodi:nodetypes="csssscssscsccc" />
    <path
       id="path16842"
       style="fill:#ffffff;fill-opacity:1;stroke:#000000;stroke-width:35.43307877;stroke-linecap:round;stroke-linejoin:round;stroke-miterlimit:4;stroke-dashoffset:0;stroke-opacity:1"
       d="M 3862.2047,1877.9426 C 3791.3386,1842.5095 3649.6063,1771.6434 3649.6063,1700.7772 L 3685.0394,1240.1472 L 3897.6378,1240.1472 L 3897.6377,1204.7142 C 3897.6377,1028.6827 3754.7716,885.81653 3578.7401,885.81653 C 3402.7086,885.81653 3259.8425,1028.6827 3259.8425,1204.7142 C 3259.8425,1380.7457 3330.7085,1381.8795 3259.8424,1665.3441 C 3188.9763,1700.7772 3118.1102,1771.6434 3047.244,1877.9427 L 2834.6457,2196.8402 C 2834.6457,2692.9032 2976.378,2728.3362 2976.378,3011.8008 C 2976.378,3224.3992 2905.5118,3366.1316 2905.5118,3685.0292 C 2905.5118,3939.2968 2905.5118,4216.5252 2905.5118,4393.6906 C 3649.6063,4393.6906 4003.937,4393.6906 4251.9685,4251.9583 C 4181.1024,4003.9268 4003.937,3614.163 4003.937,3366.1315 C 4003.937,2976.3678 4003.937,3330.6985 4003.937,2940.9348 C 4003.937,2834.6356 4039.3701,2657.4701 4039.3701,2267.7063 C 4039.3701,2196.8402 4039.3701,2125.974 4039.3701,2090.541 C 4039.3701,2019.6749 3968.5039,1913.3756 3862.2047,1877.9426 z "
       sodipodi:nodetypes="cccccsscccssccsscsc" />
    <path
       id="path14801"
       style="fill:#ffffff;fill-opacity:1;fill-rule:evenodd;stroke:#000000;stroke-width:35.43307114;stroke-linecap:round;stroke-linejoin:miter;stroke-miterlimit:4;stroke-opacity:1"
       d="M 3472.441,1240.1473 C 3366.1418,1240.1473 3401.5748,1435.0292 3472.441,1452.7457 C 3472.441,1683.0607 3897.6378,1718.6355 3897.6377,1629.9111 C 3897.6377,1592.3717 3897.6377,1526.2378 3897.6377,1455.7598 C 3897.6377,1428.9924 3897.6377,1401.5983 3897.6377,1374.9062 C 3897.6377,1305.7721 3897.6377,1241.3469 3897.6377,1204.7143 C 3897.6378,1062.9819 3826.7717,1027.5489 3826.7717,1027.5489 L 3791.3386,1027.5489 C 3366.1418,1027.5489 3507.874,956.68273 3507.874,1240.1473 L 3507.874,1311.0135 L 3472.441,1311.0135 L 3472.441,1240.1473"
       sodipodi:nodetypes="ccsssccccccc" />
    <path
       style="fill:none;fill-rule:evenodd;stroke:url(#linearGradient15806);stroke-width:35.43307114;stroke-linecap:round;stroke-linejoin:miter;stroke-miterlimit:4;stroke-dasharray:none;stroke-opacity:1"
       d="M 3685.0394,1523.6119 L 3897.6378,1523.6119"
       id="path4116"
       sodipodi:nodetypes="cc" />
    <path
       id="path7032"
       style="fill:none;fill-rule:evenodd;stroke:url(#linearGradient15816);stroke-width:35.43307114;stroke-linecap:round;stroke-linejoin:miter;stroke-miterlimit:4;stroke-opacity:1"
       d="M 3791.3386,1240.1473 C 3791.3386,1240.7659 3729.3307,1239.7974 3685.0394,1240.1473 C 3637.3377,1240.5242 3614.1733,1311.0135 3614.1733,1311.0135 L 3791.3386,1311.0135"
       sodipodi:nodetypes="cscc" />
    <path
       sodipodi:nodetypes="cc"
       id="path7036"
       d="M 3614.1733,1204.7143 C 3649.6063,1133.8481 3685.0394,1169.2812 3791.3386,1169.2812"
       style="fill:none;fill-rule:evenodd;stroke:#000000;stroke-width:35.43307114;stroke-linecap:round;stroke-linejoin:miter;stroke-miterlimit:4;stroke-dasharray:none;stroke-opacity:1" />
    <path
       sodipodi:nodetypes="ccscc"
       id="path5087"
       d="M 3897.6378,1240.1473 L 3826.7717,1240.1473 C 3826.7717,1275.5804 3897.6378,1381.8796 3897.6378,1417.3127 C 3897.6378,1452.7457 3826.7717,1452.7457 3791.3386,1452.7457 L 3897.6378,1452.7457"
       style="fill:none;fill-opacity:1;fill-rule:evenodd;stroke:url(#linearGradient16809);stroke-width:35.43307114;stroke-linecap:round;stroke-linejoin:round;stroke-miterlimit:4;stroke-dasharray:none;stroke-opacity:1" />
    <path
       style="fill:none;fill-rule:evenodd;stroke:#000000;stroke-width:35.43307114;stroke-linecap:round;stroke-linejoin:miter;stroke-miterlimit:4;stroke-dasharray:none;stroke-opacity:1"
       d="M 3897.6378,1204.7143 C 3897.6378,1169.2812 3897.6378,1169.2812 3862.2048,1169.2812"
       id="path13826"
       sodipodi:nodetypes="cc" />
    <path
       sodipodi:type="arc"
       style="fill:none;fill-opacity:1;stroke:#000000;stroke-width:35.43307114;stroke-linecap:round;stroke-linejoin:round;stroke-miterlimit:4;stroke-dasharray:none;stroke-dashoffset:0;stroke-opacity:1"
       id="path13828"
       sodipodi:cx="3667.3228"
       sodipodi:cy="1098.4248"
       sodipodi:rx="17.716536"
       sodipodi:ry="35.433071"
       d="M 3685.0393 1098.4248 A 17.716536 35.433071 0 1 1  3649.6062,1098.4248 A 17.716536 35.433071 0 1 1  3685.0393 1098.4248 z"
       transform="translate(53.149711,177.15556)" />
    <path
       transform="translate(194.882,177.15556)"
       d="M 3685.0393 1098.4248 A 17.716536 35.433071 0 1 1  3649.6062,1098.4248 A 17.716536 35.433071 0 1 1  3685.0393 1098.4248 z"
       sodipodi:ry="35.433071"
       sodipodi:rx="17.716536"
       sodipodi:cy="1098.4248"
       sodipodi:cx="3667.3228"
       id="path13830"
       style="fill:none;fill-opacity:1;stroke:#000000;stroke-width:35.43307114;stroke-linecap:round;stroke-linejoin:round;stroke-miterlimit:4;stroke-dasharray:none;stroke-dashoffset:0;stroke-opacity:1"
       sodipodi:type="arc" />
    <path
       sodipodi:type="arc"
       style="fill:none;fill-opacity:1;stroke:#000000;stroke-width:35.43307114;stroke-linecap:round;stroke-linejoin:round;stroke-miterlimit:4;stroke-dasharray:none;stroke-dashoffset:0;stroke-opacity:1"
       id="path14803"
       sodipodi:cx="3472.4409"
       sodipodi:cy="868.1098"
       sodipodi:rx="0"
       sodipodi:ry="17.716536"
       d="M 3472.4409,855.0938 A 0,17.716536 0 0 0 3472.4409,868.1098 L 3472.4409,868.1098 z"
       sodipodi:start="5.4579888"
       sodipodi:end="3.1415927"
       transform="translate(0,141.7225)" />
    <path
       sodipodi:type="arc"
       style="fill:#ffffff;fill-opacity:1;stroke:none;stroke-width:35.43307114;stroke-linecap:round;stroke-linejoin:round;stroke-miterlimit:4;stroke-dasharray:none;stroke-dashoffset:0;stroke-opacity:1"
       id="path14805"
       sodipodi:cx="3525.5906"
       sodipodi:cy="832.67676"
       sodipodi:rx="17.716536"
       sodipodi:ry="17.716536"
       d="M 3543.3071 832.67676 A 17.716536 17.716536 0 1 1  3507.874,832.67676 A 17.716536 17.716536 0 1 1  3543.3071 832.67676 z"
       transform="matrix(0.5,0,0,0.5,1966.5355,850.38372)" />
    <path
       transform="matrix(0.5,0,0,0.5,2108.2677,850.38372)"
       d="M 3543.3071 832.67676 A 17.716536 17.716536 0 1 1  3507.874,832.67676 A 17.716536 17.716536 0 1 1  3543.3071 832.67676 z"
       sodipodi:ry="17.716536"
       sodipodi:rx="17.716536"
       sodipodi:cy="832.67676"
       sodipodi:cx="3525.5906"
       id="path15776"
       style="fill:#ffffff;fill-opacity:1;stroke:none;stroke-width:35.43307114;stroke-linecap:round;stroke-linejoin:round;stroke-miterlimit:4;stroke-dasharray:none;stroke-dashoffset:0;stroke-opacity:1"
       sodipodi:type="arc" />
    <path
       sodipodi:nodetypes="cc"
       id="path15778"
       d="M 3791.3386,1594.478 L 3862.2048,1594.478"
       style="fill:none;fill-rule:evenodd;stroke:url(#linearGradient15824);stroke-width:35.43307114;stroke-linecap:round;stroke-linejoin:miter;stroke-miterlimit:4;stroke-dasharray:none;stroke-opacity:1" />
    <path
       style="fill:none;fill-rule:evenodd;stroke:#000000;stroke-width:35.43307114;stroke-linecap:butt;stroke-linejoin:miter;stroke-miterlimit:4;stroke-dasharray:none;stroke-opacity:1"
       d="M 2976.378,3188.9662 C 3224.4095,3188.9662 3472.4411,3259.8323 3755.9056,3259.8323 C 4039.3701,3259.8324 4003.937,3153.5331 4003.937,3153.5331 L 4003.937,3330.6984 C 4003.937,3330.6984 4003.9371,3401.5646 3755.9056,3401.5646 C 3472.4411,3401.5646 3224.4095,3330.6985 2940.9449,3330.6985 L 2976.378,3188.9662 z "
       id="path26580"
       sodipodi:nodetypes="csccscc" />
    <path
       style="fill:#ffffff;fill-rule:evenodd;stroke:#000000;stroke-width:35.43307087;stroke-linecap:butt;stroke-linejoin:miter;stroke-opacity:1;stroke-miterlimit:4;stroke-dasharray:none;fill-opacity:1"
       d="M 3259.8425,3897.6374 L 2692.9134,3933.0705 L 2692.9134,4003.9366 L 3259.8425,4039.3697 L 3259.8425,3897.6374 z "
       id="path7082"
       sodipodi:nodetypes="ccccc" />
    <path
       id="path16837"
       style="fill:#ffffff;fill-opacity:1;stroke:url(#linearGradient27565);stroke-width:35.43307114;stroke-linecap:round;stroke-linejoin:round;stroke-miterlimit:4;stroke-dasharray:none;stroke-dashoffset:0;stroke-opacity:1"
       d="M 2870.0788,2267.7063 C 2834.6457,2374.0056 2799.2126,2409.4484 2799.2126,2515.7476 C 2799.2126,2613.5428 2799.2126,2657.4799 2799.2126,2763.7791 C 2799.2126,2832.3083 2763.7795,2905.5113 2799.2126,2976.3775 C 2799.2126,3047.2436 2799.2126,3047.2436 2799.2126,3153.5428 C 2799.2126,3295.2751 2870.0787,3507.8737 2870.0787,3685.039 C 2870.0787,3720.477 2834.6457,3826.7712 2834.6457,3897.6374 C 2834.6457,3968.5035 2799.2126,4039.3697 2834.6457,4074.8027 C 2870.0787,4074.8027 2870.0787,4110.2358 2905.5118,4110.2358 C 2940.9449,4110.2358 2940.945,4110.2455 2940.9449,4110.2358 C 2940.9449,4110.2358 2978.7464,4145.6692 3011.811,4145.6689 C 3044.8756,4145.6686 3047.2442,4110.2455 3082.6772,4110.2358 C 3127.8457,4110.2234 3153.5433,4145.6689 3188.9764,4110.2358 C 3224.4094,4074.8027 3153.5433,3968.5035 3188.9764,3897.6374 C 3259.8426,3897.6374 3188.9763,3897.6374 3224.4094,3897.6374 C 3224.4094,3826.7712 3188.9764,3791.3382 3153.5433,3755.9051 C 3118.1103,3720.472 3118.1102,3720.4623 3118.1102,3649.5962 C 3118.1102,3472.4309 3188.9764,3384.5663 3188.9764,3188.9759 C 3188.9764,3047.2436 3153.5433,3011.8105 3153.5433,2940.9444 C 3153.5433,2870.0782 3224.4095,2782.1944 3224.4095,2586.604 C 3224.4095,2480.3048 3188.9764,2303.1394 3153.5433,2267.7063"
       sodipodi:nodetypes="csscscsccczszccsccssc" />
    <path
       id="path16835"
       style="fill:#ffffff;fill-opacity:1;stroke:url(#linearGradient27557);stroke-width:35.43307114;stroke-linecap:round;stroke-linejoin:round;stroke-miterlimit:4;stroke-dasharray:none;stroke-dashoffset:0;stroke-opacity:1"
       d="M 3082.6772,1913.3756 C 2976.378,1877.9426 2799.2125,2008.6199 2799.2126,2125.9741 C 2799.2126,2161.4072 2799.2126,2303.1394 2905.5118,2374.0056"
       sodipodi:nodetypes="csc" />
    <path
       style="fill:none;fill-rule:evenodd;stroke:#000000;stroke-width:35.43307114;stroke-linecap:round;stroke-linejoin:miter;stroke-miterlimit:4;stroke-dasharray:none;stroke-opacity:1"
       d="M 2870.0787,3685.039 L 3118.1102,3685.0292"
       id="path27570"
       sodipodi:nodetypes="cc" />
    <rect
       style="fill:#ffffff;fill-opacity:1;stroke:#000000;stroke-width:35.43306732;stroke-linecap:round;stroke-linejoin:round;stroke-miterlimit:4;stroke-dasharray:none;stroke-dashoffset:0;stroke-opacity:1"
       id="rect2207"
       width="177.16528"
       height="177.1657"
       x="3685.0393"
       y="3259.8323"
       rx="0.22097082"
       ry="0.22097076" />
    <rect
       ry="0.22097076"
       rx="0.22097084"
       y="3295.2654"
       x="3755.9055"
       height="70.866417"
       width="141.73253"
       id="rect2209"
       style="fill:#ffffff;fill-opacity:1;stroke:#000000;stroke-width:35.43306732;stroke-linecap:round;stroke-linejoin:round;stroke-miterlimit:4;stroke-dasharray:none;stroke-dashoffset:0;stroke-opacity:1" />
    <path
       style="fill:#ffffff;fill-opacity:1;stroke:#000000;stroke-width:35.43307114;stroke-linecap:round;stroke-linejoin:round;stroke-miterlimit:4;stroke-dashoffset:0;stroke-opacity:1"
       d="M 3684.819,3259.8324 L 3685.04,3401.344 C 3649.6063,3401.5646 3614.1732,3401.5646 3543.3071,3436.9977 C 3472.4409,3472.4308 3472.4409,3330.6985 3543.0861,3295.4861 C 3614.1732,3259.8323 3649.6063,3259.8323 3684.819,3259.8324 z "
       id="rect2211"
       sodipodi:nodetypes="ccccc" />
    <path
       style="fill:none;fill-rule:evenodd;stroke:#000000;stroke-width:35.43307114;stroke-linecap:round;stroke-linejoin:miter;stroke-miterlimit:4;stroke-dasharray:none;stroke-opacity:1"
       d="M 3011.811,1913.3854 C 3188.9764,1807.0862 3791.3386,2763.7791 3897.6378,1913.3854"
       id="path2214"
       sodipodi:nodetypes="cc" />
    <path
       style="fill:#fcfcfc;fill-opacity:1;fill-rule:evenodd;stroke:#000000;stroke-width:35.43307114;stroke-linecap:butt;stroke-linejoin:round;stroke-miterlimit:4;stroke-dasharray:none;stroke-opacity:1"
       d="M 3259.8425,1133.8579 C 3472.4409,1133.8579 3685.0394,1133.8578 3897.6378,1133.8578 C 3897.6378,921.25944 3685.0394,779.52716 3578.7402,705.28646 C 3472.4409,779.52716 3259.8425,921.2595 3259.8425,1133.8579 z "
       id="path2220"
       sodipodi:nodetypes="cccc" />
    <path
       style="fill:none;fill-rule:evenodd;stroke:#000000;stroke-width:35.43307087;stroke-linecap:butt;stroke-linejoin:miter;stroke-opacity:1;stroke-miterlimit:4;stroke-dasharray:none"
       d="M 3755.9055,1027.5587 C 3720.4725,885.82629 3578.7402,708.66101 3437.0079,814.96018 L 3578.7402,708.66101 C 3720.4724,814.96023 3791.3386,885.82632 3826.7717,1027.5587 C 3803.1497,1027.5587 3779.5275,1027.5587 3755.9055,1027.5587 z "
       id="path4163"
       sodipodi:nodetypes="ccccc" />
    <path
       style="fill:none;fill-rule:evenodd;stroke:#000000;stroke-width:35.43307087;stroke-linecap:square;stroke-linejoin:miter;stroke-opacity:1;stroke-miterlimit:4;stroke-dasharray:none"
       d="M 3295.2756,1027.5587 L 3862.2047,1027.5587"
       id="path5134"
       sodipodi:nodetypes="cc" />
    <path
       sodipodi:type="arc"
       style="fill:#fcfcfc;fill-opacity:1;stroke:#000000;stroke-width:37.58243561;stroke-linecap:square;stroke-linejoin:round;stroke-miterlimit:4;stroke-dasharray:none;stroke-dashoffset:0;stroke-opacity:1"
       id="path7078"
       sodipodi:cx="4251.9683"
       sodipodi:cy="3366.1414"
       sodipodi:rx="354.33072"
       sodipodi:ry="1594.4882"
       d="M 4606.299 3366.1414 A 354.33072 1594.4882 0 1 1  3897.6375,3366.1414 A 354.33072 1594.4882 0 1 1  4606.299 3366.1414 z"
       transform="matrix(1,0,0,0.8888889,35.430429,196.85029)" />
    <path
       sodipodi:type="arc"
       style="fill:#fcfcfc;fill-opacity:1;stroke:#000000;stroke-width:29.77260971;stroke-linecap:square;stroke-linejoin:round;stroke-miterlimit:4;stroke-dasharray:none;stroke-dashoffset:0;stroke-opacity:1"
       id="path7080"
       sodipodi:cx="4269.6851"
       sodipodi:cy="2923.228"
       sodipodi:rx="265.74802"
       sodipodi:ry="1080.7086"
       d="M 4535.4331 2923.228 A 265.74802 1080.7086 0 1 1  4003.937,2923.228 A 265.74802 1080.7086 0 1 1  4535.4331 2923.228 z"
       transform="matrix(1.1999999,0,0,1.1803277,-765.35393,-261.39104)" />
    <path
       sodipodi:nodetypes="ccccc"
       id="path9022"
       d="M 2586.6142,3897.6374 L 2692.9134,3897.6374 L 2692.9134,4039.3697 L 2586.6142,4039.3697 L 2586.6142,3897.6374 z "
       style="fill:#ffffff;fill-rule:evenodd;stroke:#000000;stroke-width:35.43307087;stroke-linecap:butt;stroke-linejoin:miter;stroke-opacity:1;stroke-miterlimit:4;stroke-dasharray:none;fill-opacity:1" />
    <path
       sodipodi:nodetypes="cccc"
       id="path9026"
       d="M 3330.7087,3862.2043 C 5917.3228,3897.6374 5917.3228,3897.6374 6023.622,3968.5035 C 5917.3228,4039.3697 5917.3228,4039.3697 3330.7087,4074.8027 L 3330.7087,3862.2043 z "
       style="fill:#ffffff;fill-rule:evenodd;stroke:#000000;stroke-width:35.43307087;stroke-linecap:butt;stroke-linejoin:miter;stroke-opacity:1;stroke-miterlimit:4;stroke-dasharray:none;fill-opacity:1" />
    <path
       style="fill:#ffffff;fill-rule:evenodd;stroke:#000000;stroke-width:35.43307087;stroke-linecap:butt;stroke-linejoin:miter;stroke-opacity:1;stroke-miterlimit:4;stroke-dasharray:none;fill-opacity:1"
       d="M 3224.4094,3791.3382 L 3366.1417,3791.3382 C 3366.1417,3791.3382 3330.7087,3879.9209 3330.7087,3968.5035 C 3330.7087,4057.0862 3366.1417,4145.6689 3366.1417,4145.6689 L 3224.4094,4145.6689 C 3224.4094,4145.6689 3259.8425,4057.0862 3259.8425,3968.5035 C 3259.8425,3879.9208 3224.4094,3791.3382 3224.4094,3791.3382 z "
       id="path9024"
       sodipodi:nodetypes="cczcczc" />
    <path
       style="fill:#ffffff;fill-rule:evenodd;stroke:#000000;stroke-width:35.43307087;stroke-linecap:butt;stroke-linejoin:miter;stroke-opacity:1;stroke-miterlimit:4;stroke-dasharray:none;fill-opacity:1"
       d="M 3330.7087,3933.0705 C 4251.9685,3933.0705 4251.9685,3933.0705 4287.4016,3968.5035 C 4251.9685,4003.9366 4251.9685,4003.9366 3330.7087,4003.9366 L 3330.7087,3933.0705 z "
       id="path9028"
       sodipodi:nodetypes="cccc" />
  </g>
</svg>
