<?xml version="1.0" encoding="UTF-8" standalone="no"?>
<!-- Created with Inkscape (http://www.inkscape.org/) -->
<svg
   xmlns:dc="http://purl.org/dc/elements/1.1/"
   xmlns:cc="http://web.resource.org/cc/"
   xmlns:rdf="http://www.w3.org/1999/02/22-rdf-syntax-ns#"
   xmlns:svg="http://www.w3.org/2000/svg"
   xmlns="http://www.w3.org/2000/svg"
   xmlns:xlink="http://www.w3.org/1999/xlink"
   xmlns:sodipodi="http://sodipodi.sourceforge.net/DTD/sodipodi-0.dtd"
   xmlns:inkscape="http://www.inkscape.org/namespaces/inkscape"
   width="7086.6138"
   height="7086.6138"
   id="svg2"
   sodipodi:version="0.32"
   inkscape:version="0.45.1"
   version="1.0"
   sodipodi:docbase="C:\Documents and Settings\Seth Galbraith\My Documents\My Pictures"
   sodipodi:docname="full-body-man-attack.svg"
   inkscape:output_extension="org.inkscape.output.svg.inkscape"
   inkscape:export-filename="C:\Documents and Settings\Seth Galbraith\My Documents\My Pictures\full-body-man-healthy.png"
   inkscape:export-xdpi="2.5400002"
   inkscape:export-ydpi="2.5400002">
  <defs
     id="defs4">
    <linearGradient
       id="linearGradient27559">
      <stop
         style="stop-color:#000000;stop-opacity:1;"
         offset="0"
         id="stop27561" />
      <stop
         style="stop-color:#000000;stop-opacity:0;"
         offset="1"
         id="stop27563" />
    </linearGradient>
    <linearGradient
       inkscape:collect="always"
       id="linearGradient27551">
      <stop
         style="stop-color:#000000;stop-opacity:1;"
         offset="0"
         id="stop27553" />
      <stop
         style="stop-color:#000000;stop-opacity:0;"
         offset="1"
         id="stop27555" />
    </linearGradient>
    <linearGradient
       id="linearGradient16795">
      <stop
         id="stop16797"
         offset="0"
         style="stop-color:#000000;stop-opacity:0;" />
      <stop
         style="stop-color:#000000;stop-opacity:1;"
         offset="0.5"
         id="stop16799" />
      <stop
         id="stop16801"
         offset="1"
         style="stop-color:#000000;stop-opacity:1;" />
    </linearGradient>
    <linearGradient
       id="linearGradient15800">
      <stop
         style="stop-color:#000000;stop-opacity:0;"
         offset="0"
         id="stop15802" />
      <stop
         id="stop15808"
         offset="0.5"
         style="stop-color:#000000;stop-opacity:1;" />
      <stop
         style="stop-color:#000000;stop-opacity:0;"
         offset="1"
         id="stop15804" />
    </linearGradient>
    <linearGradient
       inkscape:collect="always"
       xlink:href="#linearGradient16795"
       id="linearGradient15806"
       x1="3639.2937"
       y1="1346.4563"
       x2="3879.9211"
       y2="1346.4563"
       gradientUnits="userSpaceOnUse"
       gradientTransform="translate(35.433095,177.15558)" />
    <linearGradient
       inkscape:collect="always"
       xlink:href="#linearGradient15800"
       id="linearGradient15816"
       x1="3561.0237"
       y1="1098.3855"
       x2="3773.6221"
       y2="1098.3855"
       gradientUnits="userSpaceOnUse"
       gradientTransform="translate(35.433095,177.15558)" />
    <linearGradient
       inkscape:collect="always"
       xlink:href="#linearGradient15800"
       id="linearGradient15824"
       x1="3738.189"
       y1="1417.3224"
       x2="3844.4883"
       y2="1417.3224"
       gradientUnits="userSpaceOnUse"
       gradientTransform="translate(35.433095,177.15558)" />
    <linearGradient
       inkscape:collect="always"
       xlink:href="#linearGradient16795"
       id="linearGradient16809"
       x1="3773.6221"
       y1="1169.2909"
       x2="3879.9214"
       y2="1169.2909"
       gradientUnits="userSpaceOnUse"
       gradientTransform="translate(35.433095,177.15558)" />
    <linearGradient
       inkscape:collect="always"
       xlink:href="#linearGradient27551"
       id="linearGradient27557"
       x1="3005.6147"
       y1="1768.2559"
       x2="3064.9607"
       y2="1797.0911"
       gradientUnits="userSpaceOnUse"
       gradientTransform="translate(35.433065,141.72246)" />
    <linearGradient
       inkscape:collect="always"
       xlink:href="#linearGradient27559"
       id="linearGradient27565"
       x1="3018.4697"
       y1="2178.5039"
       x2="3018.4697"
       y2="2128.864"
       gradientUnits="userSpaceOnUse"
       gradientTransform="matrix(0,-1,1,0,1842.5202,5066.9286)" />
    <linearGradient
       inkscape:collect="always"
       xlink:href="#linearGradient27559"
       id="linearGradient2204"
       gradientUnits="userSpaceOnUse"
       gradientTransform="matrix(0.8660254,0.5,-0.5,0.8660254,1429.7929,-1086.2044)"
       x1="3018.4697"
       y1="2178.5039"
       x2="3018.4697"
       y2="2128.864" />
    <linearGradient
       inkscape:collect="always"
       xlink:href="#linearGradient27551"
       id="linearGradient2208"
       gradientUnits="userSpaceOnUse"
       gradientTransform="matrix(0.3915988,0.9201361,-0.9201361,0.3915988,4547.101,-1530.7708)"
       x1="3005.6147"
       y1="1768.2559"
       x2="3064.9607"
       y2="1797.0911" />
  </defs>
  <sodipodi:namedview
     id="base"
     pagecolor="#ffffff"
     bordercolor="#666666"
     borderopacity="1.0"
     gridtolerance="10000"
     guidetolerance="10"
     objecttolerance="10"
     inkscape:pageopacity="0.0"
     inkscape:pageshadow="2"
     inkscape:zoom="0.057544306"
     inkscape:cx="3343.4172"
     inkscape:cy="3592.8233"
     inkscape:document-units="cm"
     inkscape:current-layer="layer1"
     width="200cm"
     height="200cm"
     units="cm"
     showgrid="true"
     gridspacingx="1cm"
     gridspacingy="1cm"
     gridanglex="0.84666669cm"
     gridanglez="0.84666669cm"
     grid_units="cm"
     gridempspacing="10"
     inkscape:grid-bbox="false"
     inkscape:grid-points="true"
     showguides="true"
     inkscape:guide-bbox="true"
     inkscape:window-width="1280"
     inkscape:window-height="744"
     inkscape:window-x="0"
     inkscape:window-y="22" />
  <metadata
     id="metadata7">
    <rdf:RDF>
      <cc:Work
         rdf:about="">
        <dc:format>image/svg+xml</dc:format>
        <dc:type
           rdf:resource="http://purl.org/dc/dcmitype/StillImage" />
      </cc:Work>
    </rdf:RDF>
  </metadata>
  <g
     inkscape:label="Layer 1"
     inkscape:groupmode="layer"
     id="layer1">
    <path
       sodipodi:nodetypes="csscsczczczczcssccssc"
       d="M 2821.6762,2172.2744 C 2737.8405,2246.6157 2720.1239,2277.3015 2666.9743,2369.3593 C 2618.0767,2454.0525 2609.0777,2540.5057 2555.9281,2632.5635 C 2521.6635,2691.9116 2472.0925,2706.9047 2467.3454,2785.9933 C 2431.9124,2847.3651 2431.9124,2847.3651 2378.7628,2939.4229 C 2307.8966,3062.1667 2214.5666,3294.6848 2125.984,3448.1145 C 2090.5509,3509.4864 1732.7452,3916.6258 1794.1171,3952.0589 C 1824.8031,3969.7754 1977.8239,3681.8614 1966.5352,3724.2879 C 1955.2465,3766.7144 1727.1017,4033.2476 1771.6535,4061.8333 C 1816.2052,4090.4189 1944.0716,3834.0624 2010.1906,3790.4069 C 1957.0409,3882.4648 1799.6432,4159.8227 1828.2781,4176.3547 C 1856.9132,4192.8868 2069.8243,3869.7917 2102.2483,3843.5565 C 2097.7627,3882.6519 1938.0526,4198.8184 1968.7385,4216.535 C 2030.1104,4251.968 2214.1171,3842.0158 2247.4558,3804.6483 C 2308.8277,3840.0814 2262.2828,4043.6584 2312.3027,4046.6607 C 2351.8469,4049.0343 2361.9773,3748.0237 2336.0384,3651.2187 C 2323.0689,3602.8162 2310.0996,3554.4137 2345.5327,3493.0418 C 2434.1153,3339.6122 2570.1104,3316.6605 2667.9056,3147.2742 C 2738.7718,3024.5305 2725.8024,2976.128 2761.2354,2914.7561 C 2796.6685,2853.3842 2871.2915,2794.9995 2969.0867,2625.6133 C 3022.2363,2533.5555 3080.1331,2362.4092 3067.1637,2314.0067"
       style="fill:#ffffff;fill-opacity:1;stroke:url(#linearGradient2204);stroke-width:35.43307114;stroke-linecap:round;stroke-linejoin:round;stroke-miterlimit:4;stroke-dasharray:none;stroke-dashoffset:0;stroke-opacity:1"
       id="use23657" />
    <path
       id="path16825"
       style="fill:#ffffff;fill-opacity:1;stroke:#000000;stroke-width:41.70478821;stroke-linecap:round;stroke-linejoin:round;stroke-miterlimit:4;stroke-dashoffset:0;stroke-opacity:1"
       d="M 4021.6535,5686.0074 C 4057.0866,5650.5743 4109.565,5503.7305 4110.2362,5383.8263 C 4111.1922,5213.0346 4216.5354,5031.4956 4216.5354,4641.7318 C 4216.5354,4113.6373 4115.5022,3685.0389 3862.2047,3685.0389 C 3543.3071,3685.0389 3472.4409,4076.2042 3472.4409,4604.2987 C 3472.4409,5132.3932 3614.1732,5312.9601 3624.9394,5579.7082 C 3547.1229,5680.9882 3472.9952,5667.6491 3326.3023,5921.7287 C 3179.6094,6175.8083 3231.8805,6348.0398 3082.6771,6696.8499 C 3042.677,6790.3628 2945.1172,7046.0742 3047.2441,7051.1805 C 3091.5354,7053.395 3761.1913,7051.1807 3862.2047,7051.1807 C 3915.3544,7051.1806 3981.7914,6943.7742 3862.2047,6944.8815 C 3697.2861,6946.4085 3366.1416,6767.716 3401.5747,6661.4168 C 3610.0619,6369.5595 3622.1819,6472.2421 3768.8748,6218.1626 C 3915.5677,5964.083 3938.0442,5842.3084 4021.6535,5686.0074 z "
       sodipodi:nodetypes="csssscssscsccc" />
    <path
       id="path3212"
       style="fill:#ffffff;fill-opacity:1;stroke:#000000;stroke-width:41.70478821;stroke-linecap:round;stroke-linejoin:round;stroke-miterlimit:4;stroke-dashoffset:0;stroke-opacity:1"
       d="M 2406.7537,5489.7199 C 2318.1711,5643.1495 2257.2328,5599.298 2110.5399,5853.3775 C 1963.847,6107.4571 2020.6852,6292.4749 1843.5199,6599.3343 C 1808.0868,6660.7062 1598.1798,6820.022 1684.0711,6875.5077 C 1721.3212,6899.5712 2302.3674,7232.4814 2389.8476,7282.9881 C 2435.8766,7309.563 2547.116,7249.7647 2442.9972,7190.9303 C 2299.41,7109.7934 2089.0074,6741.0666 2142.157,6649.0088 C 2337.0389,6311.4634 2406.4195,6403.891 2553.1124,6149.8114 C 2699.8053,5895.7319 2704.5652,5828.1069 2796.2237,5651.0437 C 2847.6693,5605.2264 2905.2377,5524.6877 2936.9195,5409.0429 C 2982.0471,5244.3182 3130.7865,5096.2298 3231.6648,4719.7469 C 3368.3457,4209.6468 3381.6846,3769.5032 3137.018,3703.9451 C 2828.9866,3621.4082 2659.2941,3980.9034 2522.6131,4491.0035 C 2385.9322,5001.1036 2489.2905,5181.6884 2406.7537,5489.7199 z "
       sodipodi:nodetypes="cssssssscsscsc" />
    <path
       id="path16842"
       style="fill:#ffffff;fill-opacity:1;stroke:#000000;stroke-width:35.43307877;stroke-linecap:round;stroke-linejoin:round;stroke-miterlimit:4;stroke-dashoffset:0;stroke-opacity:1"
       d="M 3862.2047,1877.9426 C 3791.3386,1842.5095 3649.6063,1771.6434 3649.6063,1700.7772 L 3685.0394,1240.1472 L 3897.6378,1240.1472 L 3897.6377,1204.7142 C 3897.6377,1028.6827 3754.7716,885.81653 3578.7401,885.81653 C 3402.7086,885.81653 3259.8425,1028.6827 3259.8425,1204.7142 C 3259.8425,1380.7457 3330.7085,1381.8795 3259.8424,1665.3441 C 3188.9763,1700.7772 3118.1102,1771.6434 3047.244,1877.9427 L 2834.6457,2196.8402 C 2834.6457,2692.9032 3011.8111,2728.346 3011.811,3011.8106 C 3011.811,3118.1197 2976.378,3224.409 2940.9448,3366.1511 C 2913.7706,3474.8553 2622.0472,3755.9051 2551.1811,4322.8342 C 3152.1805,4465.9294 3968.5039,4393.7004 4216.5354,4251.9681 C 4181.1024,3933.0705 4003.937,3614.1728 4003.937,3366.1413 C 4003.937,2976.3776 4003.937,3330.6985 4003.937,2940.9348 C 4003.937,2834.6356 4039.3701,2657.4701 4039.3701,2267.7063 C 4039.3701,2196.8402 4039.3701,2125.974 4039.3701,2090.541 C 4039.3701,2019.6749 3968.5039,1913.3756 3862.2047,1877.9426 z "
       sodipodi:nodetypes="cccccsscccssccsscsc" />
    <path
       sodipodi:nodetypes="cccsscc"
       d="M 3472.4409,1240.1473 L 3897.6378,1240.1473 L 3897.6377,1204.7143 C 3897.6377,1028.6827 3754.7716,885.81658 3578.7401,885.81658 C 3402.7086,885.81658 3259.8425,1028.6827 3259.8425,1204.7143 C 3259.8425,1275.5804 3259.8425,1346.4465 3295.2756,1452.7457 L 3472.4409,1240.1473 z "
       style="fill:#ffffff;fill-opacity:1;stroke:#000000;stroke-width:35.43307877;stroke-linecap:round;stroke-linejoin:round;stroke-miterlimit:4;stroke-dashoffset:0;stroke-opacity:1"
       id="path3188" />
    <path
       id="path14801"
       style="fill:#ffffff;fill-opacity:1;fill-rule:evenodd;stroke:#000000;stroke-width:35.43307114;stroke-linecap:round;stroke-linejoin:miter;stroke-miterlimit:4;stroke-opacity:1"
       d="M 3472.441,1240.1473 C 3366.1418,1240.1473 3401.5748,1435.0292 3472.441,1452.7457 C 3472.441,1683.0607 3897.6378,1718.6355 3897.6377,1629.9111 C 3897.6377,1592.3717 3897.6377,1526.2378 3897.6377,1455.7598 C 3897.6377,1428.9924 3897.6377,1401.5983 3897.6377,1374.9062 C 3897.6377,1305.7721 3897.6377,1241.3469 3897.6377,1204.7143 C 3897.6378,1062.9819 3826.7717,1027.5489 3826.7717,1027.5489 L 3791.3386,1027.5489 C 3366.1418,1027.5489 3507.874,956.68273 3507.874,1240.1473 L 3507.874,1311.0135 L 3472.441,1311.0135 L 3472.441,1240.1473"
       sodipodi:nodetypes="ccsssccccccc" />
    <path
       style="fill:none;fill-rule:evenodd;stroke:url(#linearGradient15806);stroke-width:35.43307114;stroke-linecap:round;stroke-linejoin:miter;stroke-miterlimit:4;stroke-dasharray:none;stroke-opacity:1"
       d="M 3685.0394,1523.6119 L 3897.6378,1523.6119"
       id="path4116"
       sodipodi:nodetypes="cc" />
    <path
       id="path7032"
       style="fill:none;fill-rule:evenodd;stroke:url(#linearGradient15816);stroke-width:35.43307114;stroke-linecap:round;stroke-linejoin:miter;stroke-miterlimit:4;stroke-opacity:1"
       d="M 3791.3386,1240.1473 C 3791.3386,1240.7659 3729.3307,1239.7974 3685.0394,1240.1473 C 3637.3377,1240.5242 3614.1733,1311.0135 3614.1733,1311.0135 L 3791.3386,1311.0135"
       sodipodi:nodetypes="cscc" />
    <path
       sodipodi:nodetypes="cc"
       id="path7036"
       d="M 3614.1733,1204.7143 C 3649.6063,1133.8481 3685.0394,1169.2812 3791.3386,1169.2812"
       style="fill:none;fill-rule:evenodd;stroke:#000000;stroke-width:35.43307114;stroke-linecap:round;stroke-linejoin:miter;stroke-miterlimit:4;stroke-dasharray:none;stroke-opacity:1" />
    <path
       sodipodi:nodetypes="ccscc"
       id="path5087"
       d="M 3897.6378,1240.1473 L 3826.7717,1240.1473 C 3826.7717,1275.5804 3897.6378,1381.8796 3897.6378,1417.3127 C 3897.6378,1452.7457 3826.7717,1452.7457 3791.3386,1452.7457 L 3897.6378,1452.7457"
       style="fill:none;fill-opacity:1;fill-rule:evenodd;stroke:url(#linearGradient16809);stroke-width:35.43307114;stroke-linecap:round;stroke-linejoin:round;stroke-miterlimit:4;stroke-dasharray:none;stroke-opacity:1" />
    <path
       style="fill:none;fill-rule:evenodd;stroke:#000000;stroke-width:35.43307114;stroke-linecap:round;stroke-linejoin:miter;stroke-miterlimit:4;stroke-dasharray:none;stroke-opacity:1"
       d="M 3897.6378,1204.7143 C 3897.6378,1169.2812 3897.6378,1169.2812 3862.2048,1169.2812"
       id="path13826"
       sodipodi:nodetypes="cc" />
    <path
       sodipodi:type="arc"
       style="fill:none;fill-opacity:1;stroke:#000000;stroke-width:35.43307114;stroke-linecap:round;stroke-linejoin:round;stroke-miterlimit:4;stroke-dasharray:none;stroke-dashoffset:0;stroke-opacity:1"
       id="path13828"
       sodipodi:cx="3667.3228"
       sodipodi:cy="1098.4248"
       sodipodi:rx="17.716536"
       sodipodi:ry="35.433071"
       d="M 3685.0393 1098.4248 A 17.716536 35.433071 0 1 1  3649.6062,1098.4248 A 17.716536 35.433071 0 1 1  3685.0393 1098.4248 z"
       transform="translate(53.149711,177.15556)" />
    <path
       transform="translate(194.882,177.15556)"
       d="M 3685.0393 1098.4248 A 17.716536 35.433071 0 1 1  3649.6062,1098.4248 A 17.716536 35.433071 0 1 1  3685.0393 1098.4248 z"
       sodipodi:ry="35.433071"
       sodipodi:rx="17.716536"
       sodipodi:cy="1098.4248"
       sodipodi:cx="3667.3228"
       id="path13830"
       style="fill:none;fill-opacity:1;stroke:#000000;stroke-width:35.43307114;stroke-linecap:round;stroke-linejoin:round;stroke-miterlimit:4;stroke-dasharray:none;stroke-dashoffset:0;stroke-opacity:1"
       sodipodi:type="arc" />
    <path
       sodipodi:type="arc"
       style="fill:none;fill-opacity:1;stroke:#000000;stroke-width:35.43307114;stroke-linecap:round;stroke-linejoin:round;stroke-miterlimit:4;stroke-dasharray:none;stroke-dashoffset:0;stroke-opacity:1"
       id="path14803"
       sodipodi:cx="3472.4409"
       sodipodi:cy="868.1098"
       sodipodi:rx="0"
       sodipodi:ry="17.716536"
       d="M 3472.4409,855.0938 A 0,17.716536 0 0 0 3472.4409,868.1098 L 3472.4409,868.1098 z"
       sodipodi:start="5.4579888"
       sodipodi:end="3.1415927"
       transform="translate(0,141.7225)" />
    <path
       sodipodi:type="arc"
       style="fill:#ffffff;fill-opacity:1;stroke:none;stroke-width:35.43307114;stroke-linecap:round;stroke-linejoin:round;stroke-miterlimit:4;stroke-dasharray:none;stroke-dashoffset:0;stroke-opacity:1"
       id="path14805"
       sodipodi:cx="3525.5906"
       sodipodi:cy="832.67676"
       sodipodi:rx="17.716536"
       sodipodi:ry="17.716536"
       d="M 3543.3071 832.67676 A 17.716536 17.716536 0 1 1  3507.874,832.67676 A 17.716536 17.716536 0 1 1  3543.3071 832.67676 z"
       transform="matrix(0.5,0,0,0.5,1966.5355,850.38372)" />
    <path
       transform="matrix(0.5,0,0,0.5,2108.2677,850.38372)"
       d="M 3543.3071 832.67676 A 17.716536 17.716536 0 1 1  3507.874,832.67676 A 17.716536 17.716536 0 1 1  3543.3071 832.67676 z"
       sodipodi:ry="17.716536"
       sodipodi:rx="17.716536"
       sodipodi:cy="832.67676"
       sodipodi:cx="3525.5906"
       id="path15776"
       style="fill:#ffffff;fill-opacity:1;stroke:none;stroke-width:35.43307114;stroke-linecap:round;stroke-linejoin:round;stroke-miterlimit:4;stroke-dasharray:none;stroke-dashoffset:0;stroke-opacity:1"
       sodipodi:type="arc" />
    <path
       sodipodi:nodetypes="cc"
       id="path15778"
       d="M 3791.3386,1594.478 L 3862.2048,1594.478"
       style="fill:none;fill-rule:evenodd;stroke:url(#linearGradient15824);stroke-width:35.43307114;stroke-linecap:round;stroke-linejoin:miter;stroke-miterlimit:4;stroke-dasharray:none;stroke-opacity:1" />
    <path
       style="fill:none;fill-rule:evenodd;stroke:#000000;stroke-width:35.43307114;stroke-linecap:butt;stroke-linejoin:miter;stroke-miterlimit:4;stroke-dasharray:none;stroke-opacity:1"
       d="M 2976.378,3224.409 C 3188.9764,3153.5429 3295.2756,3153.5429 3472.4409,3153.5429 C 3685.0394,3153.5429 3862.2047,3224.409 4003.937,3224.409 L 4003.937,3366.1413 C 3862.2047,3366.1413 3685.0394,3295.2752 3472.4409,3295.2752 C 3295.2756,3295.2752 3188.9764,3295.2752 2940.9449,3366.1413 L 2976.378,3224.409 z "
       id="path26580"
       sodipodi:nodetypes="csccscc" />
    <path
       id="path16837"
       style="fill:#ffffff;fill-opacity:1;stroke:url(#linearGradient27565);stroke-width:35.43307114;stroke-linecap:round;stroke-linejoin:round;stroke-miterlimit:4;stroke-dasharray:none;stroke-dashoffset:0;stroke-opacity:1"
       d="M 3968.5039,2232.283 C 4074.8032,2267.7161 4110.2362,2267.7162 4216.5354,2267.7162 C 4314.3306,2267.7162 4393.7008,2232.283 4500,2232.283 C 4568.5292,2232.283 4606.2992,2267.7161 4677.1654,2232.283 C 4748.0315,2232.283 4748.0315,2232.283 4854.3307,2232.283 C 4996.063,2232.283 5244.0946,2196.85 5421.2599,2196.85 C 5492.1261,2196.85 6023.622,2303.1491 6023.622,2232.283 C 6023.622,2196.8499 5697.7707,2208.287 5740.1575,2196.85 C 5782.5443,2185.413 6127.4412,2249.7257 6129.9213,2196.8499 C 6132.4013,2143.9741 5846.4568,2161.4169 5775.5906,2125.9839 C 5881.8899,2125.9839 6200.7877,2123.6153 6200.7874,2090.5507 C 6200.7871,2057.4861 5814.523,2034.6472 5775.5906,2019.6847 C 5811.691,2004.0217 6165.3543,1984.2515 6165.3543,1948.8184 C 6165.3543,1877.9522 5718.3219,1923.5739 5669.2914,1913.3855 C 5669.2914,1842.5193 5868.8667,1781.0398 5846.4568,1736.2201 C 5828.7403,1700.7871 5562.9923,1842.5193 5492.1261,1913.3855 C 5456.6931,1948.8186 5421.2599,1984.2516 5350.3938,1984.2516 C 5173.2285,1984.2516 5085.3542,1877.9523 4889.7638,1877.9523 C 4748.0315,1877.9523 4712.5984,1913.3854 4641.7323,1913.3854 C 4570.8661,1913.3854 4482.992,1877.9523 4287.4016,1877.9523 C 4208.5085,1877.9523 4090.5802,1897.4699 4020.5301,1922.0196 C 3996.1958,1930.5477 3977.6393,1939.6831 3968.5039,1948.8185"
       sodipodi:nodetypes="csscsczczczczcssccsssc" />
    <path
       id="path16835"
       style="fill:#ffffff;fill-opacity:1;stroke:url(#linearGradient27557);stroke-width:35.43307114;stroke-linecap:round;stroke-linejoin:round;stroke-miterlimit:4;stroke-dasharray:none;stroke-dashoffset:0;stroke-opacity:1"
       d="M 3082.6772,1913.3756 C 2976.378,1877.9426 2799.2125,2008.6199 2799.2126,2125.9741 C 2799.2126,2161.4072 2799.2126,2303.1394 2905.5118,2374.0056"
       sodipodi:nodetypes="csc" />
    <path
       style="fill:none;fill-rule:evenodd;stroke:#000000;stroke-width:35.43307114;stroke-linecap:round;stroke-linejoin:miter;stroke-miterlimit:4;stroke-dasharray:none;stroke-opacity:1"
       d="M 5385.8268,2196.8501 L 5385.8268,1984.2516"
       id="path27570" />
    <path
       style="fill:none;fill-rule:evenodd;stroke:#000000;stroke-width:35.43307114;stroke-linecap:round;stroke-linejoin:miter;stroke-miterlimit:4;stroke-dasharray:none;stroke-opacity:1"
       d="M 3153.5433,1771.6434 C 3259.8425,1700.787 3649.6063,1771.6531 3791.3386,1842.5095"
       id="path2214"
       sodipodi:nodetypes="cc" />
    <path
       sodipodi:nodetypes="csc"
       d="M 4110.2362,1966.8857 C 4101.2127,1855.2005 3911.594,1743.3572 3803.6122,1789.313 C 3771.009,1803.1886 3640.596,1858.6907 3617.0161,1984.2516"
       style="fill:#ffffff;fill-opacity:1;stroke:url(#linearGradient2208);stroke-width:35.43307114;stroke-linecap:round;stroke-linejoin:round;stroke-miterlimit:4;stroke-dasharray:none;stroke-dashoffset:0;stroke-opacity:1"
       id="path2206" />
  </g>
</svg>
