<?xml version="1.0" encoding="UTF-8" standalone="no"?>
<!-- Created with Inkscape (http://www.inkscape.org/) -->
<svg
   xmlns:dc="http://purl.org/dc/elements/1.1/"
   xmlns:cc="http://web.resource.org/cc/"
   xmlns:rdf="http://www.w3.org/1999/02/22-rdf-syntax-ns#"
   xmlns:svg="http://www.w3.org/2000/svg"
   xmlns="http://www.w3.org/2000/svg"
   xmlns:xlink="http://www.w3.org/1999/xlink"
   xmlns:sodipodi="http://sodipodi.sourceforge.net/DTD/sodipodi-0.dtd"
   xmlns:inkscape="http://www.inkscape.org/namespaces/inkscape"
   width="7086.6138"
   height="7086.6138"
   id="svg2"
   sodipodi:version="0.32"
   inkscape:version="0.45.1"
   version="1.0"
   sodipodi:docbase="C:\Documents and Settings\Seth Galbraith\My Documents\My Pictures"
   sodipodi:docname="full-body-man-dead.svg"
   inkscape:output_extension="org.inkscape.output.svg.inkscape"
   inkscape:export-filename="C:\Documents and Settings\Seth Galbraith\My Documents\My Pictures\full-body-man-dead.png"
   inkscape:export-xdpi="2.5400002"
   inkscape:export-ydpi="2.5400002">
  <defs
     id="defs4">
    <linearGradient
       id="linearGradient27559">
      <stop
         style="stop-color:#000000;stop-opacity:1;"
         offset="0"
         id="stop27561" />
      <stop
         style="stop-color:#000000;stop-opacity:0;"
         offset="1"
         id="stop27563" />
    </linearGradient>
    <linearGradient
       inkscape:collect="always"
       id="linearGradient27551">
      <stop
         style="stop-color:#000000;stop-opacity:1;"
         offset="0"
         id="stop27553" />
      <stop
         style="stop-color:#000000;stop-opacity:0;"
         offset="1"
         id="stop27555" />
    </linearGradient>
    <linearGradient
       id="linearGradient16795">
      <stop
         id="stop16797"
         offset="0"
         style="stop-color:#000000;stop-opacity:0;" />
      <stop
         style="stop-color:#000000;stop-opacity:1;"
         offset="0.5"
         id="stop16799" />
      <stop
         id="stop16801"
         offset="1"
         style="stop-color:#000000;stop-opacity:1;" />
    </linearGradient>
    <linearGradient
       id="linearGradient15800">
      <stop
         style="stop-color:#000000;stop-opacity:0;"
         offset="0"
         id="stop15802" />
      <stop
         id="stop15808"
         offset="0.5"
         style="stop-color:#000000;stop-opacity:1;" />
      <stop
         style="stop-color:#000000;stop-opacity:0;"
         offset="1"
         id="stop15804" />
    </linearGradient>
    <linearGradient
       inkscape:collect="always"
       xlink:href="#linearGradient16795"
       id="linearGradient15806"
       x1="3639.2937"
       y1="1346.4563"
       x2="3879.9211"
       y2="1346.4563"
       gradientUnits="userSpaceOnUse"
       gradientTransform="matrix(0,1,1,0,-283.46416,2444.8856)" />
    <linearGradient
       inkscape:collect="always"
       xlink:href="#linearGradient15800"
       id="linearGradient15816"
       x1="3561.0237"
       y1="1098.3855"
       x2="3773.6221"
       y2="1098.3855"
       gradientUnits="userSpaceOnUse"
       gradientTransform="matrix(0,1,1,0,-283.46416,2444.8856)" />
    <linearGradient
       inkscape:collect="always"
       xlink:href="#linearGradient15800"
       id="linearGradient15824"
       x1="3738.189"
       y1="1417.3224"
       x2="3844.4883"
       y2="1417.3224"
       gradientUnits="userSpaceOnUse"
       gradientTransform="matrix(0,1,1,0,-283.46416,2444.8856)" />
    <linearGradient
       inkscape:collect="always"
       xlink:href="#linearGradient16795"
       id="linearGradient16809"
       x1="3773.6221"
       y1="1169.2909"
       x2="3879.9214"
       y2="1169.2909"
       gradientUnits="userSpaceOnUse"
       gradientTransform="matrix(0,1,1,0,-283.46416,2444.8856)" />
    <linearGradient
       inkscape:collect="always"
       xlink:href="#linearGradient27551"
       id="linearGradient27557"
       x1="3005.6147"
       y1="1768.2559"
       x2="3064.9607"
       y2="1797.0911"
       gradientUnits="userSpaceOnUse"
       gradientTransform="matrix(0,-1,1,0,-285.87996,9356.0387)" />
    <linearGradient
       inkscape:collect="always"
       xlink:href="#linearGradient27559"
       id="linearGradient27565"
       x1="3018.4697"
       y1="2178.5039"
       x2="3018.4697"
       y2="2128.864"
       gradientUnits="userSpaceOnUse"
       gradientTransform="matrix(0.258819,-0.9659258,0.9659258,0.258819,-1082.1259,8696.0933)" />
    <linearGradient
       inkscape:collect="always"
       xlink:href="#linearGradient27559"
       id="linearGradient3278"
       gradientUnits="userSpaceOnUse"
       gradientTransform="matrix(0,-1,1,0,-303.59641,8487.9283)"
       x1="3018.4697"
       y1="2178.5039"
       x2="3018.4697"
       y2="2128.864" />
  </defs>
  <sodipodi:namedview
     id="base"
     pagecolor="#ffffff"
     bordercolor="#666666"
     borderopacity="1.0"
     gridtolerance="10000"
     guidetolerance="10"
     objecttolerance="10"
     inkscape:pageopacity="0.0"
     inkscape:pageshadow="2"
     inkscape:zoom="0.081379937"
     inkscape:cx="2821.1275"
     inkscape:cy="2723.0547"
     inkscape:document-units="cm"
     inkscape:current-layer="layer1"
     width="200cm"
     height="200cm"
     units="cm"
     showgrid="true"
     gridspacingx="1cm"
     gridspacingy="1cm"
     gridanglex="0.84666669cm"
     gridanglez="0.84666669cm"
     grid_units="cm"
     gridempspacing="10"
     inkscape:grid-bbox="false"
     inkscape:grid-points="true"
     showguides="true"
     inkscape:guide-bbox="true"
     inkscape:window-width="1280"
     inkscape:window-height="744"
     inkscape:window-x="0"
     inkscape:window-y="22" />
  <metadata
     id="metadata7">
    <rdf:RDF>
      <cc:Work
         rdf:about="">
        <dc:format>image/svg+xml</dc:format>
        <dc:type
           rdf:resource="http://purl.org/dc/dcmitype/StillImage" />
      </cc:Work>
    </rdf:RDF>
  </metadata>
  <g
     inkscape:label="Layer 1"
     inkscape:groupmode="layer"
     id="layer1">
    <path
       sodipodi:nodetypes="csscsczczczczcssccssc"
       d="M 1822.3874,5653.2826 C 1928.6867,5688.7157 1964.1197,5688.7158 2070.4189,5688.7158 C 2168.2141,5688.7158 2247.5843,5653.2826 2353.8835,5653.2826 C 2422.4127,5653.2826 2460.1827,5688.7157 2531.0489,5653.2826 C 2601.915,5653.2826 2601.915,5653.2826 2708.2142,5653.2826 C 2849.9465,5653.2826 3097.9781,5617.8496 3275.1434,5617.8496 C 3346.0096,5617.8496 3877.5055,5724.1487 3877.5055,5653.2826 C 3877.5055,5617.8495 3551.6542,5629.2866 3594.041,5617.8496 C 3636.4278,5606.4126 3981.3247,5670.7253 3983.8048,5617.8495 C 3986.2848,5564.9737 3700.3403,5582.4165 3629.4741,5546.9835 C 3735.7734,5546.9835 4054.6712,5544.6149 4054.6709,5511.5503 C 4054.6706,5478.4857 3668.4065,5455.6468 3629.4741,5440.6843 C 3665.5745,5425.0213 4019.2378,5405.2511 4019.2378,5369.818 C 4019.2378,5298.9518 3572.2054,5344.5735 3523.1749,5334.3851 C 3523.1749,5263.5189 3722.7502,5202.0394 3700.3403,5157.2197 C 3682.6238,5121.7867 3416.8758,5263.5189 3346.0096,5334.3851 C 3310.5766,5369.8182 3275.1434,5405.2512 3204.2773,5405.2512 C 3027.112,5405.2512 2939.2377,5298.9519 2743.6473,5298.9519 C 2601.915,5298.9519 2566.4819,5334.385 2495.6158,5334.385 C 2424.7496,5334.385 2336.8755,5298.9519 2141.2851,5298.9519 C 2034.9859,5298.9519 1857.8205,5334.385 1822.3874,5369.8181"
       style="fill:#ffffff;fill-opacity:1;stroke:url(#linearGradient3278);stroke-width:35.43307114;stroke-linecap:round;stroke-linejoin:round;stroke-miterlimit:4;stroke-dasharray:none;stroke-dashoffset:0;stroke-opacity:1"
       id="use23657" />
    <use
       x="0"
       y="0"
       xlink:href="#path16825"
       id="use25601"
       transform="translate(2.0000479,-318.89766)"
       width="7086.6138"
       height="7086.6138" />
    <path
       style="fill:#ffffff;fill-opacity:1;stroke:#000000;stroke-width:41.70478821;stroke-linecap:round;stroke-linejoin:round;stroke-miterlimit:4;stroke-dashoffset:0;stroke-opacity:1"
       d="M 6479.8362,6167.0622 C 6550.7024,6167.0622 6793.6274,6269.1891 6798.7338,6167.0622 C 6800.9483,6122.7709 6798.7339,5453.115 6798.7339,5352.1016 C 6798.7339,5298.9519 6691.3274,5232.5149 6692.4347,5352.1016 C 6693.9617,5517.0202 6479.8362,5883.5976 6373.537,5883.5976 C 5983.7732,5883.5976 6029.1275,5777.2985 5735.7417,5777.2985 C 5442.3559,5777.2985 5381.411,5806.9888 5204.2457,5812.7315 C 5168.8126,5777.2984 5076.1184,5742.5366 4956.2142,5741.8654 C 4785.4225,5740.9094 4603.8835,5635.5662 4214.1197,5635.5662 C 3686.0252,5635.5662 3257.4268,5736.5994 3257.4268,5989.8969 C 3257.4268,6308.7945 3648.5921,6379.6607 4176.6866,6379.6607 C 4704.7811,6379.6607 4885.348,6237.9284 5204.2457,6237.9284 C 5381.411,6237.9284 5406.9229,6308.7945 5700.3087,6308.7945 C 5993.6945,6308.7945 6125.5055,6167.0622 6479.8362,6167.0622 z "
       id="path16825"
       sodipodi:nodetypes="cssscccscssssc" />
    <path
       id="path16842"
       style="fill:#ffffff;fill-opacity:1;stroke:#000000;stroke-width:35.43307877;stroke-linecap:round;stroke-linejoin:round;stroke-miterlimit:4;stroke-dashoffset:0;stroke-opacity:1"
       d="M 1450.3402,5529.267 C 1414.9071,5600.1331 1344.041,5741.8654 1273.1748,5741.8654 L 1027.5591,5740.1613 L 779.52749,5669.295 L 744.09449,5669.2951 C 568.06294,5669.2951 425.1968,5812.1612 425.1968,5988.1927 C 425.1968,6164.2242 568.06296,6307.0903 744.09449,6307.0903 C 920.12599,6307.0903 954.27708,6060.7632 1237.7417,6131.6293 C 1273.1748,6202.4954 1344.041,6273.3615 1450.3403,6344.2277 L 1804.6709,6521.393 C 2300.7339,6521.393 2338.5826,6342.5233 2622.0472,6342.5233 C 2834.6456,6342.5233 2938.5292,6415.0938 3257.4268,6415.0938 C 3511.6944,6415.0938 3788.9228,6415.0938 3966.0882,6415.0938 C 3966.0882,6168.8222 3966.0882,5562.9402 3966.0882,5316.6686 C 3753.4898,5316.6686 3476.2613,5316.6686 3221.9937,5316.6686 C 2967.7261,5316.6686 2371.6,5316.6685 2229.8677,5316.6686 C 2123.5685,5316.6686 1981.8362,5316.6686 1840.1039,5352.1016 C 1804.6709,5352.1016 1698.3716,5352.1016 1662.9386,5352.1016 C 1592.0725,5352.1016 1485.7732,5422.9678 1450.3402,5529.267 z "
       sodipodi:nodetypes="cccccsscccssccsscsc" />
    <path
       sodipodi:nodetypes="cccsscc"
       d="M 779.52754,5917.3265 L 779.52754,6307.0903 L 744.09454,6307.0902 C 568.06299,6307.0902 425.19685,6164.2241 425.19685,5988.1926 C 425.19685,5812.1611 568.06301,5669.2949 744.09454,5669.295 C 885.82674,5669.295 921.25984,5704.7281 1027.559,5740.1612 L 779.52754,5917.3265 z "
       style="fill:#ffffff;fill-opacity:1;stroke:#000000;stroke-width:35.43307877;stroke-linecap:round;stroke-linejoin:round;stroke-miterlimit:4;stroke-dashoffset:0;stroke-opacity:1"
       id="path3188" />
    <path
       id="path14801"
       style="fill:#ffffff;fill-opacity:1;fill-rule:evenodd;stroke:#000000;stroke-width:35.43307114;stroke-linecap:round;stroke-linejoin:miter;stroke-miterlimit:4;stroke-opacity:1"
       d="M 779.52754,5881.8935 C 779.52754,5775.5943 974.40944,5811.0273 992.12594,5881.8935 C 1222.4409,5881.8935 1258.0157,6307.0903 1169.2913,6307.0902 C 1131.7519,6307.0902 1065.618,6307.0902 995.14004,6307.0902 C 968.37264,6307.0902 940.97854,6307.0902 914.28644,6307.0902 C 845.15234,6307.0902 780.72714,6307.0902 744.09454,6307.0902 C 602.36221,6307.0903 566.92914,6236.2242 566.92914,6236.2242 L 566.92914,6200.7911 C 566.92914,5775.5943 496.063,5917.3265 779.52754,5917.3265 L 850.39374,5917.3265 L 850.39374,5881.8935 L 779.52754,5881.8935"
       sodipodi:nodetypes="ccsssccccccc" />
    <path
       style="fill:none;fill-rule:evenodd;stroke:url(#linearGradient15806);stroke-width:35.43307114;stroke-linecap:round;stroke-linejoin:miter;stroke-miterlimit:4;stroke-dasharray:none;stroke-opacity:1"
       d="M 1062.9921,6094.4919 L 1062.9921,6307.0903"
       id="path4116"
       sodipodi:nodetypes="cc" />
    <path
       id="path7032"
       style="fill:none;fill-rule:evenodd;stroke:url(#linearGradient15816);stroke-width:35.43307114;stroke-linecap:round;stroke-linejoin:miter;stroke-miterlimit:4;stroke-opacity:1"
       d="M 850.39374,6023.6258 L 850.39374,6200.7911"
       sodipodi:nodetypes="cc" />
    <path
       sodipodi:nodetypes="cc"
       id="path7036"
       d="M 744.09454,6023.6258 C 673.22835,6059.0588 708.66142,6094.4919 708.66142,6200.7911"
       style="fill:none;fill-rule:evenodd;stroke:#000000;stroke-width:35.43307114;stroke-linecap:round;stroke-linejoin:miter;stroke-miterlimit:4;stroke-dasharray:none;stroke-opacity:1" />
    <path
       sodipodi:nodetypes="ccscc"
       id="path5087"
       d="M 779.52754,6307.0903 L 779.52754,6236.2242 C 814.96064,6236.2242 921.25984,6307.0903 956.69294,6307.0903 C 992.12594,6307.0903 992.12594,6236.2242 992.12594,6200.7911 L 992.12594,6307.0903"
       style="fill:none;fill-opacity:1;fill-rule:evenodd;stroke:url(#linearGradient16809);stroke-width:35.43307114;stroke-linecap:round;stroke-linejoin:round;stroke-miterlimit:4;stroke-dasharray:none;stroke-opacity:1" />
    <path
       style="fill:none;fill-rule:evenodd;stroke:#000000;stroke-width:35.43307114;stroke-linecap:round;stroke-linejoin:miter;stroke-miterlimit:4;stroke-dasharray:none;stroke-opacity:1"
       d="M 744.09454,6307.0903 C 708.66142,6307.0903 708.66142,6307.0903 708.66142,6271.6573"
       id="path13826"
       sodipodi:nodetypes="cc" />
    <path
       transform="matrix(0,1,1,0,-283.46417,2604.3345)"
       d="M 3685.0393 1098.4248 A 17.716536 35.433071 0 1 1  3649.6062,1098.4248 A 17.716536 35.433071 0 1 1  3685.0393 1098.4248 z"
       sodipodi:ry="35.433071"
       sodipodi:rx="17.716536"
       sodipodi:cy="1098.4248"
       sodipodi:cx="3667.3228"
       id="path13830"
       style="fill:none;fill-opacity:1;stroke:#000000;stroke-width:35.43307114;stroke-linecap:round;stroke-linejoin:round;stroke-miterlimit:4;stroke-dasharray:none;stroke-dashoffset:0;stroke-opacity:1"
       sodipodi:type="arc" />
    <path
       sodipodi:type="arc"
       style="fill:none;fill-opacity:1;stroke:#000000;stroke-width:35.43307114;stroke-linecap:round;stroke-linejoin:round;stroke-miterlimit:4;stroke-dasharray:none;stroke-dashoffset:0;stroke-opacity:1"
       id="path14803"
       sodipodi:cx="3472.4409"
       sodipodi:cy="868.1098"
       sodipodi:rx="0"
       sodipodi:ry="17.716536"
       d="M 3472.4409,855.0938 A 0,17.716536 0 0 0 3472.4409,868.1098 L 3472.4409,868.1098 z"
       sodipodi:start="5.4579888"
       sodipodi:end="3.1415927"
       transform="matrix(0,-1,1,0,-285.87992,7513.5149)" />
    <path
       sodipodi:nodetypes="cc"
       id="path15778"
       d="M 1133.8582,6200.7911 L 1133.8582,6271.6573"
       style="fill:none;fill-rule:evenodd;stroke:url(#linearGradient15824);stroke-width:35.43307114;stroke-linecap:round;stroke-linejoin:miter;stroke-miterlimit:4;stroke-dasharray:none;stroke-opacity:1" />
    <path
       style="fill:none;fill-rule:evenodd;stroke:#000000;stroke-width:35.43307114;stroke-linecap:butt;stroke-linejoin:miter;stroke-miterlimit:4;stroke-dasharray:none;stroke-opacity:1"
       d="M 2761.3638,6344.2276 C 2761.3638,6096.1961 2832.2299,5848.1645 2832.2299,5564.7 C 2832.23,5281.2355 2725.9307,5316.6686 2725.9307,5316.6686 L 2903.096,5316.6686 C 2903.096,5316.6686 2973.9622,5316.6685 2973.9622,5564.7 C 2973.9622,5848.1645 2903.0961,6096.1961 2903.0961,6379.6607 L 2761.3638,6344.2276 z "
       id="path26580"
       sodipodi:nodetypes="csccscc" />
    <path
       id="path16835"
       style="fill:#ffffff;fill-opacity:1;stroke:url(#linearGradient27557);stroke-width:35.43307114;stroke-linecap:round;stroke-linejoin:round;stroke-miterlimit:4;stroke-dasharray:none;stroke-dashoffset:0;stroke-opacity:1"
       d="M 1485.7732,6308.7945 C 1450.3402,6415.0937 1581.0175,6592.2592 1698.3717,6592.2591 C 1733.8048,6592.2591 1875.537,6592.2591 1946.4032,6485.9599"
       sodipodi:nodetypes="csc" />
    <path
       id="path16837"
       style="fill:#ffffff;fill-opacity:1;stroke:url(#linearGradient27565);stroke-width:35.43307114;stroke-linecap:round;stroke-linejoin:round;stroke-miterlimit:4;stroke-dasharray:none;stroke-dashoffset:0;stroke-opacity:1"
       d="M 1705.0768,6508.2809 C 1798.5833,6570.0189 1832.8089,6579.1897 1935.4861,6606.702 C 2029.949,6632.0132 2115.7855,6618.3299 2218.4626,6645.8422 C 2284.6568,6663.5788 2311.969,6707.5802 2389.5913,6691.6959 C 2458.0427,6710.0374 2458.0427,6710.0374 2560.7198,6737.5497 C 2697.6227,6774.2327 2946.3735,6804.2023 3117.5021,6850.0561 C 3185.9536,6868.3976 3671.8269,7108.6359 3690.1684,7040.1845 C 3699.3392,7005.9587 3381.6309,6932.6696 3425.5335,6932.5928 C 3469.4361,6932.5161 3785.9356,7083.9032 3802.0164,7033.471 C 3818.0972,6983.0388 3537.3815,6925.8794 3478.1007,6873.3122 C 3580.778,6900.8245 3889.4226,6981.0734 3897.9801,6949.1354 C 3906.5375,6917.1973 3539.3462,6795.1642 3505.613,6770.6351 C 3544.5372,6764.8492 3891.2666,6837.2875 3900.4373,6803.0617 C 3918.7789,6734.6102 3475.171,6662.9769 3430.4481,6640.4457 C 3448.7896,6571.9942 3657.4766,6564.2634 3647.4305,6515.1708 C 3639.4884,6476.3598 3346.1126,6544.482 3259.3196,6594.5919 C 3215.9232,6619.6469 3172.5266,6644.7018 3104.0752,6626.3603 C 2932.9467,6580.5066 2875.5789,6455.0858 2686.6531,6404.4633 C 2549.7502,6367.7803 2506.3537,6392.8352 2437.9023,6374.4938 C 2369.4508,6356.1522 2293.7417,6299.183 2104.8159,6248.5605 C 2002.1387,6221.0482 1821.8393,6209.4202 1778.4428,6234.4752"
       sodipodi:nodetypes="csscsczczczczcssccssc" />
    <path
       style="fill:none;fill-rule:evenodd;stroke:#000000;stroke-width:35.43307114;stroke-linecap:round;stroke-linejoin:miter;stroke-miterlimit:4;stroke-dasharray:none;stroke-opacity:1"
       d="M 3083.2763,6840.8854 L 3138.3008,6635.531"
       id="path27570" />
    <rect
       style="fill:#ffffff;fill-opacity:1;stroke:#000000;stroke-width:35.43306732;stroke-linecap:round;stroke-linejoin:round;stroke-miterlimit:4;stroke-dasharray:none;stroke-dashoffset:0;stroke-opacity:1"
       id="rect2207"
       width="177.16528"
       height="177.1657"
       x="-5635.5664"
       y="2832.23"
       rx="0.22097082"
       ry="0.22097076"
       transform="matrix(0,-1,1,0,0,0)" />
    <rect
       ry="0.22097076"
       rx="0.22097084"
       y="2867.6631"
       x="-5564.7002"
       height="70.866417"
       width="141.73253"
       id="rect2209"
       style="fill:#ffffff;fill-opacity:1;stroke:#000000;stroke-width:35.43306732;stroke-linecap:round;stroke-linejoin:round;stroke-miterlimit:4;stroke-dasharray:none;stroke-dashoffset:0;stroke-opacity:1"
       transform="matrix(0,-1,1,0,0,0)" />
    <path
       style="fill:#ffffff;fill-opacity:1;stroke:#000000;stroke-width:35.43307114;stroke-linecap:round;stroke-linejoin:round;stroke-miterlimit:4;stroke-dashoffset:0;stroke-opacity:1"
       d="M 2832.23,5635.7866 L 2973.7416,5635.5656 C 2973.9622,5670.9993 2973.9622,5706.4324 3009.3953,5777.2985 C 3044.8284,5848.1647 2903.0961,5848.1647 2867.8837,5777.5195 C 2832.2299,5706.4324 2832.2299,5670.9993 2832.23,5635.7866 z "
       id="rect2211"
       sodipodi:nodetypes="ccccc" />
    <path
       style="fill:none;fill-rule:evenodd;stroke:#000000;stroke-width:35.43307114;stroke-linecap:round;stroke-linejoin:miter;stroke-miterlimit:4;stroke-dasharray:none;stroke-opacity:1"
       d="M 1344.041,6237.9284 C 1308.6079,6096.1961 1733.8048,5670.9992 1414.9071,5600.1331"
       id="path2214"
       sodipodi:nodetypes="cc" />
  </g>
</svg>
