<?xml version="1.0" encoding="UTF-8" standalone="no"?>
<!-- Created with Inkscape (http://www.inkscape.org/) -->
<svg
   xmlns:dc="http://purl.org/dc/elements/1.1/"
   xmlns:cc="http://web.resource.org/cc/"
   xmlns:rdf="http://www.w3.org/1999/02/22-rdf-syntax-ns#"
   xmlns:svg="http://www.w3.org/2000/svg"
   xmlns="http://www.w3.org/2000/svg"
   xmlns:xlink="http://www.w3.org/1999/xlink"
   xmlns:sodipodi="http://sodipodi.sourceforge.net/DTD/sodipodi-0.dtd"
   xmlns:inkscape="http://www.inkscape.org/namespaces/inkscape"
   width="1200"
   height="900"
   id="svg2"
   sodipodi:version="0.32"
   inkscape:version="0.45.1"
   version="1.0"
   sodipodi:docbase="C:\Documents and Settings\Seth Galbraith\My Documents\My Pictures"
   sodipodi:docname="monsterface.svg"
   inkscape:output_extension="org.inkscape.output.svg.inkscape">
  <defs
     id="defs4">
    <linearGradient
       id="linearGradient6154">
      <stop
         style="stop-color:#ffff00;stop-opacity:1;"
         offset="0"
         id="stop6156" />
      <stop
         id="stop6164"
         offset="0.5"
         style="stop-color:#ffff00;stop-opacity:1;" />
      <stop
         style="stop-color:#c0c000;stop-opacity:1;"
         offset="1"
         id="stop6166" />
    </linearGradient>
    <linearGradient
       id="linearGradient6116">
      <stop
         style="stop-color:#3f1c08;stop-opacity:1;"
         offset="0"
         id="stop6118" />
      <stop
         style="stop-color:#db001a;stop-opacity:1;"
         offset="1"
         id="stop6120" />
    </linearGradient>
    <linearGradient
       inkscape:collect="always"
       xlink:href="#linearGradient6116"
       id="linearGradient6122"
       x1="396.96756"
       y1="241.26167"
       x2="396.96756"
       y2="262.02609"
       gradientUnits="userSpaceOnUse"
       gradientTransform="translate(-6.6758832,0)" />
    <linearGradient
       inkscape:collect="always"
       xlink:href="#linearGradient6116"
       id="linearGradient6134"
       x1="441.63614"
       y1="242.79536"
       x2="441.63614"
       y2="263.55978"
       gradientUnits="userSpaceOnUse" />
    <radialGradient
       inkscape:collect="always"
       xlink:href="#linearGradient6154"
       id="radialGradient6162"
       cx="396.30927"
       cy="249.35704"
       fx="396.30927"
       fy="249.35704"
       r="22.819012"
       gradientTransform="matrix(1.5780166,-5.7053327e-8,2.5012085e-8,0.6917999,-236.39049,77.182568)"
       gradientUnits="userSpaceOnUse" />
  </defs>
  <sodipodi:namedview
     id="base"
     pagecolor="#ffffff"
     bordercolor="#666666"
     borderopacity="1.0"
     gridtolerance="50"
     guidetolerance="10"
     objecttolerance="10"
     inkscape:pageopacity="0.0"
     inkscape:pageshadow="2"
     inkscape:zoom="2.3052408"
     inkscape:cx="403.86236"
     inkscape:cy="594.00308"
     inkscape:document-units="px"
     inkscape:current-layer="layer1"
     width="1200px"
     height="900px"
     inkscape:grid-bbox="false"
     inkscape:window-width="1167"
     inkscape:window-height="1001"
     inkscape:window-x="1544"
     inkscape:window-y="2" />
  <metadata
     id="metadata7">
    <rdf:RDF>
      <cc:Work
         rdf:about="">
        <dc:format>image/svg+xml</dc:format>
        <dc:type
           rdf:resource="http://purl.org/dc/dcmitype/StillImage" />
      </cc:Work>
    </rdf:RDF>
  </metadata>
  <g
     inkscape:label="Layer 1"
     inkscape:groupmode="layer"
     id="layer1">
    <path
       id="path6136"
       style="fill:#d3ecec;fill-opacity:1;stroke:#000000;stroke-width:1;stroke-linecap:square;stroke-linejoin:round;stroke-miterlimit:4;stroke-dashoffset:0;stroke-opacity:1"
       d="M 229.73965,418.69539 C 253.90827,276.25679 215.95528,293.44132 215.95528,226.86276 C 215.95528,160.28421 269.99005,106.24944 336.5686,106.24944 C 403.14716,106.24944 456.91544,160.22345 457.18193,226.86276 C 457.20314,232.1658 449.39343,249.95493 449.52282,260.10591 C 449.65222,270.25689 456.13116,277.32679 456.52455,289.07325 C 456.91817,300.82622 453.53004,321.92248 453.44256,328.53908 C 453.35508,335.15568 456.55612,348.195 456.10504,366.47877 C 455.36798,395.64545 455.00421,415.80569 432.05417,414.99801 L 403.19312,416.39799"
       sodipodi:nodetypes="cssszzzscc" />
    <path
       style="fill:#000000;fill-rule:evenodd;stroke:none;stroke-width:1px;stroke-linecap:butt;stroke-linejoin:miter;stroke-opacity:0.25;fill-opacity:0.25"
       d="M 387.6857,367.86548 C 424.92267,362.21771 436.31393,358.00582 452.01281,368.15266 C 448.66244,363.17497 445.31207,357.9101 441.9617,352.93241 C 436.40966,354.75118 433.44219,354.84691 427.60297,353.21958 C 415.06301,358.00583 400.22566,363.07924 387.6857,367.86548 z "
       id="path6091"
       sodipodi:nodetypes="ccccc" />
    <path
       style="fill:#000000;fill-rule:evenodd;stroke:none;stroke-width:1px;stroke-linecap:butt;stroke-linejoin:miter;stroke-opacity:0.25;fill-opacity:0.25"
       d="M 446.55649,373.03463 C 439.2814,376.385 432.86784,376.0021 410.65967,372.46028 C 433.25074,391.31808 436.6011,391.50953 446.55649,373.03463 z "
       id="path6093"
       sodipodi:nodetypes="ccc" />
    <path
       style="fill:url(#radialGradient6162);fill-opacity:1;fill-rule:evenodd;stroke:#000000;stroke-width:1px;stroke-linecap:butt;stroke-linejoin:miter;stroke-opacity:1"
       d="M 406.72974,261.90652 C 403.14465,260.33726 403.48434,261.90652 392.39659,261.90652 C 381.30884,261.90651 371.29239,259.47573 362.37876,261.90651 C 363.75819,256.87075 367.75473,241.69684 390.072,241.76348 C 404.82697,241.80547 408.10918,256.87076 406.72974,261.90652 z "
       id="path6095"
       sodipodi:nodetypes="czcsc" />
    <path
       id="path6099"
       style="fill:url(#linearGradient6122);fill-opacity:1;fill-rule:evenodd;stroke:none;stroke-width:1.00000012px;stroke-linecap:butt;stroke-linejoin:miter;stroke-opacity:0.25"
       d="M 381.9475,261.14826 C 388.91469,261.4736 395.19376,261.6905 398.63435,261.36515 C 402.24697,257.13566 402.50501,249.11046 398.80637,244.23028 C 395.4518,242.16976 387.96853,240.86838 381.77548,242.49511 C 378.16286,246.7246 378.24887,256.26808 381.9475,261.14826 z "
       sodipodi:nodetypes="ccccc" />
    <path
       sodipodi:type="arc"
       style="fill:#000000;fill-opacity:1;stroke:none;stroke-width:1.58441627;stroke-linecap:square;stroke-linejoin:round;stroke-miterlimit:4;stroke-dasharray:none;stroke-dashoffset:0;stroke-opacity:0.25"
       id="path6097"
       sodipodi:cx="395.72659"
       sodipodi:cy="254.14435"
       sodipodi:rx="10.62546"
       sodipodi:ry="10.912635"
       d="M 406.35205 254.14435 A 10.62546 10.912635 0 1 1  385.10113,254.14435 A 10.62546 10.912635 0 1 1  406.35205 254.14435 z"
       transform="matrix(0.5098079,0,0,0.7813665,190.69502,52.871869)" />
    <path
       sodipodi:nodetypes="cssszzzsccccc"
       d="M 229.73965,418.69539 C 253.90827,276.25679 215.95528,293.44132 215.95528,226.86276 C 215.95528,160.28421 269.99005,106.24944 336.5686,106.24944 C 403.14716,106.24944 456.91544,160.22345 457.18193,226.86276 C 457.20314,232.1658 449.39343,249.95493 449.52282,260.10591 C 449.65222,270.25689 456.13116,277.32679 456.52455,289.07325 C 456.91817,300.82622 453.53004,321.92248 453.44256,328.53908 C 453.35508,335.15568 456.55612,348.195 456.10504,366.47877 C 455.36798,395.64545 455.00421,415.80569 432.05417,414.99801 L 403.19312,416.39799 C 361.45708,417.06807 263.43482,374.0876 263.05192,346.04022 L 261.90322,321.05603 C 233.18576,295.78466 231.28253,255.45299 260.75452,254.30429"
       style="fill:none;fill-opacity:1;stroke:#000000;stroke-width:1;stroke-linecap:square;stroke-linejoin:round;stroke-miterlimit:4;stroke-dashoffset:0;stroke-opacity:1"
       id="path6174" />
    <path
       sodipodi:nodetypes="ccccc"
       d="M 433.75282,262.68195 C 440.81565,263.00729 445.64722,263.22419 449.13504,262.89884 C 452.79725,258.66935 453.36556,250.64415 450.84311,245.76397 C 447.44249,243.70345 442.31041,241.48185 433.57844,244.94902 C 429.91623,249.17851 430.00342,257.80177 433.75282,262.68195 z "
       style="fill:url(#linearGradient6134);fill-rule:evenodd;stroke:#000000;stroke-width:1.00000012px;stroke-linecap:butt;stroke-linejoin:miter;stroke-opacity:1;fill-opacity:1.0"
       id="path6112" />
    <path
       transform="matrix(0.5098079,0,0,0.7813665,242.4615,54.405563)"
       d="M 406.35205 254.14435 A 10.62546 10.912635 0 1 1  385.10113,254.14435 A 10.62546 10.912635 0 1 1  406.35205 254.14435 z"
       sodipodi:ry="10.912635"
       sodipodi:rx="10.62546"
       sodipodi:cy="254.14435"
       sodipodi:cx="395.72659"
       id="path6110"
       style="fill:#000000;fill-opacity:1;stroke:none;stroke-width:1.58441627;stroke-linecap:square;stroke-linejoin:round;stroke-miterlimit:4;stroke-dasharray:none;stroke-dashoffset:0;stroke-opacity:0.25"
       sodipodi:type="arc" />
    <path
       sodipodi:nodetypes="cscczcs"
       d="M 450.67061,318.33113 C 445.21096,319.77891 436.04794,319.65664 429.02551,316.50884 C 420.88817,312.86129 415.45767,317.6156 415.17777,320.05512 C 419.49266,318.4742 422.06597,319.46044 424.19275,322.06113 C 424.58761,329.1687 430.33111,343.74281 433.34644,343.74281 C 439.08994,343.74282 434.46698,330.6879 435.35667,322.20473 C 444.00007,322.04962 444.48926,321.02767 450.67061,318.33113 z "
       style="fill:#000000;fill-opacity:0.25;stroke:none;stroke-width:1;stroke-linecap:square;stroke-linejoin:round;stroke-miterlimit:4;stroke-dashoffset:0;stroke-opacity:0.25"
       id="path6114" />
    <path
       sodipodi:nodetypes="ccsc"
       d="M 431.91057,225.71407 C 402.44218,223.10339 444.6697,284.97963 450.70806,318.59155 C 453.98577,316.92851 460.24307,313.89181 460.24305,310.71776 C 460.24296,298.70675 432.54552,258.38515 431.91057,225.71407 z "
       style="fill:#d3ecec;fill-opacity:1;stroke:none;stroke-width:1;stroke-linecap:square;stroke-linejoin:round;stroke-miterlimit:4;stroke-dashoffset:0;stroke-opacity:1"
       id="path6139" />
    <path
       id="path3134"
       style="fill:none;fill-opacity:1;stroke:#000000;stroke-width:1;stroke-linecap:square;stroke-linejoin:round;stroke-miterlimit:4;stroke-dashoffset:0;stroke-opacity:1"
       d="M 451.14185,318.59154 C 454.41956,316.9285 460.24307,315.19319 460.24305,310.71776 C 460.243,298.70675 432.54552,258.38515 431.91057,225.71407"
       sodipodi:nodetypes="csc" />
    <path
       sodipodi:type="arc"
       style="fill:#e8ff7f;fill-opacity:1;stroke:none;stroke-width:1;stroke-linecap:square;stroke-linejoin:round;stroke-miterlimit:4;stroke-dasharray:none;stroke-dashoffset:0;stroke-opacity:0.25"
       id="path6124"
       sodipodi:cx="400.90759"
       sodipodi:cy="250.48061"
       sodipodi:rx="1.8404328"
       sodipodi:ry="3.5274961"
       d="M 402.74803 250.48061 A 1.8404328 3.5274961 0 1 1  399.06716,250.48061 A 1.8404328 3.5274961 0 1 1  402.74803 250.48061 z"
       transform="matrix(1.5,0,0,1.3043478,-207.12967,-77.613553)" />
    <path
       transform="matrix(1.5,0,0,1.3043478,-155.66993,-76.386598)"
       d="M 402.74803 250.48061 A 1.8404328 3.5274961 0 1 1  399.06716,250.48061 A 1.8404328 3.5274961 0 1 1  402.74803 250.48061 z"
       sodipodi:ry="3.5274961"
       sodipodi:rx="1.8404328"
       sodipodi:cy="250.48061"
       sodipodi:cx="400.90759"
       id="path6126"
       style="fill:#e8ff7f;fill-opacity:1;stroke:none;stroke-width:1;stroke-linecap:square;stroke-linejoin:round;stroke-miterlimit:4;stroke-dasharray:none;stroke-dashoffset:0;stroke-opacity:0.25"
       sodipodi:type="arc" />
    <path
       id="path4115"
       style="fill:#000000;fill-opacity:0.25;stroke:none;stroke-width:1.4885757;stroke-linecap:square;stroke-linejoin:round;stroke-miterlimit:4;stroke-dashoffset:0;stroke-opacity:0.25"
       d="M 215.95527,224.56536 C 215.95527,181.44782 239.88495,146.45387 269.36973,146.45387 C 298.85452,146.45387 322.7842,181.44782 322.7842,224.56536 C 322.7842,267.6829 322.16448,317.99284 322.42895,346.04022 C 322.69342,374.0876 387.9441,416.76133 419.22536,415.47777 L 229.73965,418.69539 C 253.90827,276.25679 215.95528,293.44132 215.95528,226.86276"
       sodipodi:nodetypes="csssccc" />
    <path
       id="path6178"
       style="fill:#d3ecec;fill-opacity:1;stroke:#000000;stroke-width:1;stroke-linecap:square;stroke-linejoin:round;stroke-miterlimit:4;stroke-dashoffset:0;stroke-opacity:1"
       d="M 261.90322,321.05603 C 233.18576,295.78466 231.28253,255.45299 260.75452,254.30429"
       sodipodi:nodetypes="cc" />
    <path
       sodipodi:nodetypes="cc"
       id="path6168"
       d="M 387.6857,367.86548 C 424.92267,362.21771 436.31393,358.00582 452.01281,368.15266"
       style="fill:none;fill-rule:evenodd;stroke:#000000;stroke-width:1px;stroke-linecap:butt;stroke-linejoin:miter;stroke-opacity:1;fill-opacity:0.25" />
  </g>
</svg>
