<?xml version="1.0" encoding="UTF-8" standalone="no"?>
<!-- Created with Inkscape (http://www.inkscape.org/) -->
<svg
   xmlns:dc="http://purl.org/dc/elements/1.1/"
   xmlns:cc="http://web.resource.org/cc/"
   xmlns:rdf="http://www.w3.org/1999/02/22-rdf-syntax-ns#"
   xmlns:svg="http://www.w3.org/2000/svg"
   xmlns="http://www.w3.org/2000/svg"
   xmlns:sodipodi="http://sodipodi.sourceforge.net/DTD/sodipodi-0.dtd"
   xmlns:inkscape="http://www.inkscape.org/namespaces/inkscape"
   width="744.09448819"
   height="1052.3622047"
   id="svg2"
   sodipodi:version="0.32"
   inkscape:version="0.45.1"
   sodipodi:docbase="C:\Documents and Settings\Seth Galbraith\My Documents\My Pictures\minimam"
   sodipodi:docname="warrior-healthy.svg"
   inkscape:output_extension="org.inkscape.output.svg.inkscape">
  <defs
     id="defs4" />
  <sodipodi:namedview
     id="base"
     pagecolor="#ffffff"
     bordercolor="#666666"
     borderopacity="1.0"
     gridtolerance="10000"
     guidetolerance="10"
     objecttolerance="10"
     inkscape:pageopacity="0.0"
     inkscape:pageshadow="2"
     inkscape:zoom="1.979899"
     inkscape:cx="250.46683"
     inkscape:cy="571.71363"
     inkscape:document-units="px"
     inkscape:current-layer="layer1"
     inkscape:window-width="1280"
     inkscape:window-height="744"
     inkscape:window-x="-4"
     inkscape:window-y="-4" />
  <metadata
     id="metadata7">
    <rdf:RDF>
      <cc:Work
         rdf:about="">
        <dc:format>image/svg+xml</dc:format>
        <dc:type
           rdf:resource="http://purl.org/dc/dcmitype/StillImage" />
      </cc:Work>
    </rdf:RDF>
  </metadata>
  <g
     inkscape:label="Layer 1"
     inkscape:groupmode="layer"
     id="layer1">
    <path
       style="fill:#ffffff;fill-opacity:1;fill-rule:evenodd;stroke:#000000;stroke-width:1px;stroke-linecap:butt;stroke-linejoin:miter;stroke-opacity:1"
       d="M 252.53813,366.97368 C 278.97047,367.81547 288.73527,366.13189 307.59145,358.89246 C 308.76996,467.3155 308.93832,501.49233 283.34779,573.0448 C 251.69634,505.19622 252.87485,464.11668 252.53813,366.97368 z "
       id="path6091"
       sodipodi:nodetypes="cccc" />
    <path
       sodipodi:nodetypes="cccc"
       id="path6093"
       d="M 258.59905,374.54982 C 281.95204,374.54672 291.55728,373.79737 303.04576,369.49906 C 304.22427,477.9221 302.8774,491.89588 283.34779,556.37728 C 258.76741,494.58962 258.93577,471.69282 258.59905,374.54982 z "
       style="fill:#ffffff;fill-opacity:1;fill-rule:evenodd;stroke:#000000;stroke-width:1px;stroke-linecap:butt;stroke-linejoin:miter;stroke-opacity:1" />
    <path
       style="fill:#ffffff;fill-rule:evenodd;stroke:#000000;stroke-width:1px;stroke-linecap:butt;stroke-linejoin:miter;stroke-opacity:1;fill-opacity:1"
       d="M 232.05356,401.19031 C 240.49385,398.38094 253.20372,404.72715 255.90832,413.44211 C 263.51061,396.97327 279.67679,404.75318 281.07867,415.92492 C 282.47432,427.047 264.15553,438.33311 259.73137,438.12076 C 254.43155,437.86638 225.86096,434.17689 217.15924,428.79106 C 215.95751,436.97667 216.55792,439.31455 211.82843,447.94648 C 193.98193,455.33131 195.50014,461.99222 201.00586,473.93043 C 199.72586,478.0115 197.43338,480.94132 194.10836,483.00686 C 166.85477,480.0724 133.92578,490.55937 128.15848,492.96904 C 123.66071,489.75057 119.82143,483.0095 118.92857,480.75503 C 124.28571,413.16575 142.14537,373.50866 153.57142,371.29075"
       id="path2160"
       sodipodi:nodetypes="cczsccccccc" />
    <path
       style="fill:#ffffff;fill-rule:evenodd;stroke:#000000;stroke-width:1px;stroke-linecap:butt;stroke-linejoin:miter;stroke-opacity:1;fill-opacity:1"
       d="M 232.85714,401.29075 C 232.36466,409.19371 218.60447,424.29657 213.92857,426.29075 C 207.82451,428.89401 187.08712,432.74908 181.78571,428.43361 C 172.18892,420.6216 181.51786,395.75504 173.57143,381.6479 C 188.83929,380.3979 227.76419,393.10581 232.85714,401.29075 z "
       id="path3136"
       sodipodi:nodetypes="csscc" />
    <path
       style="fill:#ffffff;fill-rule:evenodd;stroke:#000000;stroke-width:1px;stroke-linecap:butt;stroke-linejoin:miter;stroke-opacity:1;fill-opacity:1"
       d="M 207.50001,407.00504 C 196.13992,403.17431 186.80524,396.94935 182.5,377.71932 C 179.82143,365.75504 179.01786,346.6479 189.64286,330.93361 C 200.26786,315.21933 217.58929,315.75504 228.92857,319.86219 C 242.94297,324.93828 246.09306,340.29982 243.92858,355.21933 C 240.60701,378.11446 235.75271,388.75709 226.78571,402.36218 C 224.19643,406.29075 215.17857,409.59433 207.50001,407.00504 z "
       id="path4107"
       sodipodi:nodetypes="cssssss" />
    <path
       style="fill:none;fill-rule:evenodd;stroke:#000000;stroke-width:1px;stroke-linecap:butt;stroke-linejoin:miter;stroke-opacity:1"
       d="M 181.82746,349.29601 C 191.92898,366.4686 224.75894,372.02444 241.93153,365.96353"
       id="path4117"
       sodipodi:nodetypes="cc" />
    <path
       sodipodi:nodetypes="cc"
       id="path4119"
       d="M 186.37314,337.17418 C 184.85791,359.39753 228.29447,369.49906 242.43661,354.85185"
       style="fill:none;fill-rule:evenodd;stroke:#000000;stroke-width:1px;stroke-linecap:butt;stroke-linejoin:miter;stroke-opacity:1" />
    <path
       style="fill:none;fill-rule:evenodd;stroke:#000000;stroke-width:1px;stroke-linecap:butt;stroke-linejoin:miter;stroke-opacity:1"
       d="M 202.03051,404.34932 C 193.61257,398.96184 188.73017,381.95761 193.44421,359.39754"
       id="path4121"
       sodipodi:nodetypes="cc" />
    <path
       style="fill:#ffffff;fill-rule:evenodd;stroke:#000000;stroke-width:1px;stroke-linecap:butt;stroke-linejoin:miter;stroke-opacity:1;fill-opacity:1"
       d="M 237.38585,317.98128 C 237.38585,317.98128 195.17392,298.73585 174.75639,289.69701 C 166.9425,286.23781 164.14979,277.57517 164.14979,277.57517 C 164.14979,277.57517 179.06241,277.64176 189.90868,281.61579 C 216.19844,291.24828 265.67012,313.4356 265.67012,313.4356 L 237.38585,317.98128 z "
       id="path5109"
       sodipodi:nodetypes="cscscc" />
    <path
       sodipodi:nodetypes="cscscc"
       id="path5111"
       d="M 247.99245,316.46605 C 247.99245,316.46605 236.0851,311.36276 215.66757,302.32392 C 207.85368,298.86472 202.53559,293.23253 202.53559,293.23253 C 202.53559,293.23253 208.35683,293.8042 219.2031,297.77823 C 245.49286,307.41072 256.57875,313.94068 256.57875,313.94068 L 247.99245,316.46605 z "
       style="fill:#ffffff;fill-rule:evenodd;stroke:#000000;stroke-width:1px;stroke-linecap:butt;stroke-linejoin:miter;stroke-opacity:1;fill-opacity:1" />
    <path
       sodipodi:nodetypes="cssss"
       id="path5105"
       d="M 270.92764,311.51714 C 271.44601,314.3797 257.13183,320.28112 246.05932,322.53079 C 234.98679,324.78047 223.64275,323.15711 223.12438,320.29454 C 222.60602,317.43198 237.75594,311.36075 248.82848,309.11108 C 259.90099,306.86141 270.40928,308.65457 270.92764,311.51714 z "
       style="fill:#ffffff;fill-opacity:1;stroke:#000000;stroke-width:1;stroke-linecap:square;stroke-linejoin:round;stroke-miterlimit:4;stroke-dashoffset:0;stroke-opacity:1" />
    <path
       style="fill:#ffffff;fill-opacity:1;stroke:#000000;stroke-width:1;stroke-linecap:square;stroke-linejoin:round;stroke-miterlimit:4;stroke-dashoffset:0;stroke-opacity:1"
       d="M 274.24957,312.38506 C 274.76793,315.24762 260.45374,321.14904 249.38124,323.39871 C 238.30869,325.64839 226.96466,324.02503 226.44629,321.16246 C 225.92793,318.2999 241.07784,312.22867 252.1504,309.979 C 263.22291,307.72932 273.7312,309.52249 274.24957,312.38506 z "
       id="path5107"
       sodipodi:nodetypes="cssss" />
    <path
       sodipodi:nodetypes="cssssss"
       id="path4123"
       d="M 236.93445,328.3885 C 235.68808,324.26483 242.27614,312.70597 249.91851,310.40882 C 260.53882,307.21656 273.63138,314.12975 277.18392,317.07196 C 280.6313,319.92707 273.54373,323.70206 271.14838,323.12852 C 266.21704,321.94777 265.86043,328.30537 262.87282,333.20468 C 261.31132,335.76535 251.04417,335.51206 248.36303,335.53135 C 245.13364,335.55459 238.38313,333.18152 236.93445,328.3885 z "
       style="fill:#ffffff;fill-opacity:1;fill-rule:evenodd;stroke:#000000;stroke-width:1px;stroke-linecap:butt;stroke-linejoin:miter;stroke-opacity:1" />
    <path
       sodipodi:nodetypes="ccssscc"
       id="path2162"
       d="M 153.57142,371.29075 C 180.76994,366.01125 215.71428,349.14789 215.71428,349.14789 L 233.57143,325.93361 C 237.85751,320.36171 257.25751,327.75339 256.07143,334.14789 C 256.07143,334.14789 255.42679,344.72006 252.14286,357.36218 C 250.437,363.92922 242.13343,367.86102 222.47061,376.77436 C 202.80778,385.69054 173.65336,397.3938 157.85714,413.79075"
       style="fill:#ffffff;fill-rule:evenodd;stroke:#000000;stroke-width:1px;stroke-linecap:butt;stroke-linejoin:miter;stroke-opacity:1;fill-opacity:1" />
    <path
       id="path5113"
       style="fill:#ffffff;fill-opacity:1;fill-rule:evenodd;stroke:#000000;stroke-width:1px;stroke-linecap:butt;stroke-linejoin:miter;stroke-opacity:1"
       d="M 293.44932,464.4534 C 293.44932,464.4534 286.37825,464.4534 286.37825,464.4534 C 286.37825,464.4534 263.27101,431.11836 263.64982,412.93562 C 264.02863,394.75288 287.89348,391.72242 287.89348,391.72242 C 287.89348,391.72242 294.96455,391.72242 294.96455,391.72242 C 294.96455,391.72242 271.0997,394.75288 270.72089,412.93562 C 270.34208,431.11836 293.44932,464.4534 293.44932,464.4534 z "
       sodipodi:nodetypes="ccsccsc" />
    <path
       style="fill:#ffffff;fill-rule:evenodd;stroke:#000000;stroke-width:1px;stroke-linecap:butt;stroke-linejoin:miter;stroke-opacity:1;fill-opacity:1"
       d="M 270.35714,400.57646 C 274.48081,399.33009 287.86221,396.42563 290.35714,400.93361 C 292.77606,405.30427 288.6565,426.66678 285.71429,430.21932 C 282.85918,433.6667 272.62047,429.63429 271.07143,427.71932 C 268.71665,424.80828 270.07932,419.70162 270.59172,406.31178 C 271.04428,421.82179 265.08776,421.24822 263.71937,416.55073 C 261.25863,408.10341 265.56412,402.02514 270.35714,400.57646 z "
       id="path2164"
       sodipodi:nodetypes="cssscss" />
    <path
       style="fill:none;fill-rule:evenodd;stroke:#000000;stroke-width:1px;stroke-linecap:butt;stroke-linejoin:miter;stroke-opacity:1"
       d="M 230.71429,391.6479 C 227.7381,394.86219 224.40476,393.43361 221.78571,391.6479"
       id="path4109"
       sodipodi:nodetypes="cc" />
    <path
       style="fill:none;fill-rule:evenodd;stroke:#000000;stroke-width:1px;stroke-linecap:butt;stroke-linejoin:miter;stroke-opacity:1"
       d="M 226.42857,398.79075 L 208.57143,398.07647"
       id="path4111" />
    <path
       style="fill:none;fill-rule:evenodd;stroke:#000000;stroke-width:1px;stroke-linecap:butt;stroke-linejoin:miter;stroke-opacity:1"
       d="M 238.92857,372.36218 L 229.64286,373.43361"
       id="path4113" />
    <path
       style="fill:#000000;fill-rule:evenodd;stroke:#000000;stroke-width:1px;stroke-linecap:butt;stroke-linejoin:miter;stroke-opacity:1;fill-opacity:1"
       d="M 232.24746,373.30734 C 233.17818,376.71661 237.26562,375.20138 237.18618,372.92853"
       id="path4115"
       sodipodi:nodetypes="cc" />
    <path
       style="fill:#ffffff;fill-opacity:1;stroke:#000000;stroke-width:1;stroke-linecap:square;stroke-linejoin:round;stroke-miterlimit:4;stroke-dashoffset:0;stroke-opacity:1"
       d="M 280.0648,327.73156 C 280.0648,331.11267 275.46376,334.52253 272.0301,334.52253 C 268.59643,334.52253 265.29133,330.04741 265.29133,326.66629 C 265.29133,323.28519 270.15154,319.87532 273.58521,319.87532 C 277.01887,319.87532 280.0648,324.35045 280.0648,327.73156 z "
       id="path4125"
       sodipodi:nodetypes="cssss" />
    <path
       sodipodi:nodetypes="ccsccsc"
       d="M 276.27673,464.95847 C 276.27673,464.95847 269.20566,464.95847 269.20566,464.95847 C 269.20566,464.95847 249.12888,438.6945 249.50769,420.51176 C 249.8865,402.32902 269.20566,392.22749 269.20566,392.22749 C 269.20566,392.22749 276.27673,392.22749 276.27673,392.22749 C 276.27673,392.22749 256.95757,402.32902 256.57876,420.51176 C 256.19995,438.6945 276.27673,464.95847 276.27673,464.95847 z "
       style="fill:#ffffff;fill-opacity:1;fill-rule:evenodd;stroke:#000000;stroke-width:1px;stroke-linecap:butt;stroke-linejoin:miter;stroke-opacity:1"
       id="path6089" />
    <path
       id="path6113"
       style="fill:#ffffff;fill-opacity:1;fill-rule:evenodd;stroke:#000000;stroke-width:1px;stroke-linecap:butt;stroke-linejoin:miter;stroke-opacity:1"
       d="M 194.10836,483.00686 L 197.64389,493.10839 C 181.50198,488.6587 133.4207,498.64059 127.6534,505.59595 L 128.15848,492.96904 C 133.92578,490.55937 166.85477,480.0724 194.10836,483.00686 z "
       sodipodi:nodetypes="ccccc" />
    <path
       sodipodi:nodetypes="ccscsscsc"
       d="M 197.64389,493.10839 C 181.50198,488.6587 133.4207,498.64059 127.6534,505.59595 C 118.43069,515.57338 113.70632,536.71964 110.59185,548.66024 C 108.84343,555.36352 112.74552,569.52866 113.56981,576.67988 C 123.49065,567.34192 138.81371,559.35169 149.39325,558.26244 C 163.74679,556.78463 179.91012,560.48538 194.42998,558.87717 C 208.69234,557.29748 218.93948,551.0814 228.66885,539.60736 C 219.9846,532.89029 211.78452,524.28434 205.64656,515.92063 C 201.27451,509.96319 204.01534,499.70232 197.64389,493.10839 z "
       style="fill:#ffffff;fill-opacity:1;fill-rule:evenodd;stroke:#000000;stroke-width:1px;stroke-linecap:butt;stroke-linejoin:miter;stroke-opacity:1"
       id="path6120" />
  </g>
</svg>
