<?xml version="1.0" encoding="UTF-8" standalone="no"?>
<!-- Created with Inkscape (http://www.inkscape.org/) -->
<svg
   xmlns:dc="http://purl.org/dc/elements/1.1/"
   xmlns:cc="http://web.resource.org/cc/"
   xmlns:rdf="http://www.w3.org/1999/02/22-rdf-syntax-ns#"
   xmlns:svg="http://www.w3.org/2000/svg"
   xmlns="http://www.w3.org/2000/svg"
   xmlns:xlink="http://www.w3.org/1999/xlink"
   xmlns:sodipodi="http://sodipodi.sourceforge.net/DTD/sodipodi-0.dtd"
   xmlns:inkscape="http://www.inkscape.org/namespaces/inkscape"
   width="744.09448819"
   height="1052.3622047"
   id="svg2"
   sodipodi:version="0.32"
   inkscape:version="0.45.1"
   sodipodi:docbase="C:\Users\Ulrich Galbraith\Desktop\minimam"
   sodipodi:docname="warrior-healthy.svg"
   inkscape:output_extension="org.inkscape.output.svg.inkscape">
  <defs
     id="defs4">
    <linearGradient
       id="linearGradient3379">
      <stop
         id="stop3381"
         offset="0"
         style="stop-color:#4d4d4d;stop-opacity:1" />
      <stop
         id="stop3383"
         offset="1"
         style="stop-color:#b3b3b3;stop-opacity:1" />
    </linearGradient>
    <linearGradient
       id="linearGradient5185">
      <stop
         style="stop-color:#4d4d4d;stop-opacity:1"
         offset="0"
         id="stop5187" />
      <stop
         style="stop-color:#b3b3b3;stop-opacity:1"
         offset="1"
         id="stop5189" />
    </linearGradient>
    <radialGradient
       inkscape:collect="always"
       xlink:href="#linearGradient3379"
       id="radialGradient5191"
       cx="201.83665"
       cy="518.35101"
       fx="201.83665"
       fy="518.35101"
       r="29.77706"
       gradientTransform="matrix(1.4135801,0.2138443,-0.1685562,1.1142105,-4.4906203,-104.70224)"
       gradientUnits="userSpaceOnUse" />
    <radialGradient
       inkscape:collect="always"
       xlink:href="#linearGradient5185"
       id="radialGradient2276"
       gradientUnits="userSpaceOnUse"
       gradientTransform="matrix(1.3318576,0.5197052,-0.4096415,1.0497953,446.18817,74.53478)"
       cx="201.83665"
       cy="518.35101"
       fx="201.83665"
       fy="518.35101"
       r="29.77706" />
    <radialGradient
       inkscape:collect="always"
       xlink:href="#linearGradient5185"
       id="radialGradient3295"
       gradientUnits="userSpaceOnUse"
       gradientTransform="matrix(1.3318576,0.5197052,-0.4096415,1.0497953,140.6171,311.86456)"
       cx="201.83665"
       cy="518.35101"
       fx="201.83665"
       fy="518.35101"
       r="29.77706" />
    <filter
       inkscape:collect="always"
       x="-0.027402062"
       width="1.0548041"
       y="-0.19330909"
       height="1.3866182"
       id="filter3367">
      <feGaussianBlur
         inkscape:collect="always"
         stdDeviation="3.4448084"
         id="feGaussianBlur3369" />
    </filter>
    <radialGradient
       inkscape:collect="always"
       xlink:href="#linearGradient3379"
       id="radialGradient4354"
       cx="478.56348"
       cy="339.04306"
       fx="478.56348"
       fy="339.04306"
       r="25.945538"
       gradientTransform="matrix(1.3365572,-0.1500226,0.1481536,1.319907,-210.93406,-37.713592)"
       gradientUnits="userSpaceOnUse" />
  </defs>
  <sodipodi:namedview
     id="base"
     pagecolor="#ffffff"
     bordercolor="#666666"
     borderopacity="1.0"
     gridtolerance="10000"
     guidetolerance="10"
     objecttolerance="10"
     inkscape:pageopacity="0.0"
     inkscape:pageshadow="2"
     inkscape:zoom="0.64299656"
     inkscape:cx="562.20281"
     inkscape:cy="457.30974"
     inkscape:document-units="px"
     inkscape:current-layer="layer1"
     inkscape:window-width="1436"
     inkscape:window-height="850"
     inkscape:window-x="0"
     inkscape:window-y="14" />
  <metadata
     id="metadata7">
    <rdf:RDF>
      <cc:Work
         rdf:about="">
        <dc:format>image/svg+xml</dc:format>
        <dc:type
           rdf:resource="http://purl.org/dc/dcmitype/StillImage" />
      </cc:Work>
    </rdf:RDF>
  </metadata>
  <g
     inkscape:label="Layer 1"
     inkscape:groupmode="layer"
     id="layer1">
    <image
       y="263.19089"
       x="1.8326545"
       id="image2268"
       height="789.42236"
       width="741.82727"
       sodipodi:absref="C:\Users\Ulrich Galbraith\Desktop\minimam\warrior.jpg"
       xlink:href="warrior.jpg"
       style="fill:#f9f9f9" />
    <path
       sodipodi:type="arc"
       style="opacity:0.5;fill:#000000;fill-opacity:0.5;fill-rule:evenodd;stroke:none;stroke-width:4;stroke-miterlimit:4;stroke-dasharray:none;stroke-opacity:1;filter:url(#filter3367)"
       id="path3375"
       sodipodi:cx="582.42926"
       sodipodi:cy="670.94489"
       sodipodi:rx="150.85617"
       sodipodi:ry="21.384251"
       d="M 733.28543 670.94489 A 150.85617 21.384251 0 1 1  431.57309,670.94489 A 150.85617 21.384251 0 1 1  733.28543 670.94489 z"
       transform="matrix(0.9999409,0.2552649,-0.4546753,2.1646424,-117.92289,-633.42669)" />
    <path
       sodipodi:type="arc"
       style="opacity:0.5;fill:#000000;fill-opacity:0.5;fill-rule:evenodd;stroke:none;stroke-width:4;stroke-miterlimit:4;stroke-dasharray:none;stroke-opacity:1;filter:url(#filter3367)"
       id="path3371"
       sodipodi:cx="582.42926"
       sodipodi:cy="670.94489"
       sodipodi:rx="150.85617"
       sodipodi:ry="21.384251"
       d="M 733.28543 670.94489 A 150.85617 21.384251 0 1 1  431.57309,670.94489 A 150.85617 21.384251 0 1 1  733.28543 670.94489 z"
       transform="matrix(1,0,0,1.3090909,-375.58523,-73.245368)" />
    <path
       style="fill:#803300;fill-rule:evenodd;stroke:#000000;stroke-width:1px;stroke-linecap:butt;stroke-linejoin:miter;stroke-opacity:1"
       d="M 62.208731,903.83884 C 55.599054,900.3396 52.488617,896.84035 52.099812,894.89633 C 51.711008,892.95231 49.766985,889.06426 45.10133,886.73143 C 40.435675,884.39861 34.992411,888.28665 33.825997,892.5635 C 32.659584,896.84035 32.270779,901.50601 29.937952,905.00525 C 27.605124,908.50449 26.438711,904.22764 24.494688,904.61645 C 22.550665,905.00525 11.664137,903.83884 10.497723,906.17166 C 9.3313097,908.50449 5.8320686,910.05971 9.3313097,913.17015 C 12.830551,916.28058 19.829033,924.83428 22.550665,924.83428 C 25.272297,924.83428 34.992411,926.3895 38.880457,926.0007 C 42.768503,925.61189 45.878939,923.66787 49.37818,923.27907 C 52.877422,922.89026 64.541559,912.00373 64.930363,910.05971 C 65.319168,908.11569 62.208731,903.45003 62.208731,903.83884 z "
       id="path3333"
       sodipodi:nodetypes="csssssssssssc" />
    <path
       style="fill:#a05a2c;fill-rule:evenodd;stroke:#000000;stroke-width:1px;stroke-linecap:butt;stroke-linejoin:miter;stroke-opacity:1"
       d="M 78.927328,915.11417 C 75.039282,908.50449 78.538523,908.50449 73.484064,906.56047 C 68.429604,904.61645 69.207214,903.83884 65.707972,904.61645 C 56.465427,906.67036 59.487099,905.78286 55.987858,910.05971 C 52.488617,914.33656 47.822962,917.447 47.822962,920.55743 C 47.822962,923.66787 45.10133,927.94472 45.490135,932.22157 C 45.743971,935.01377 50.15579,939.22005 50.15579,939.22005 C 50.15579,939.22005 53.266226,944.66332 59.487099,943.88571 C 65.707972,943.1081 79.704937,914.72536 78.927328,915.11417 z "
       id="path3331"
       sodipodi:nodetypes="cssssscsc" />
    <path
       style="fill:#800000;fill-rule:evenodd;stroke:#000000;stroke-width:1px;stroke-linecap:butt;stroke-linejoin:miter;stroke-opacity:1"
       d="M 118.19659,912.39254 C 100.31158,915.11417 97.978752,917.05819 95.25712,914.33656 C 92.535488,911.61493 96.034729,911.22612 90.591465,911.22612 C 85.148201,911.22612 85.92581,913.94776 80.482546,914.33656 C 75.039282,914.72536 73.095259,910.44851 70.373627,913.94776 C 67.651995,917.447 60.264708,920.16863 59.487099,925.61189 C 58.70949,931.05516 54.821444,939.22005 56.376663,940.77527 C 57.931881,942.33049 62.98634,947.77375 64.541559,950.88419 C 66.096777,953.99463 65.707972,956.32745 72.706455,959.43789 C 79.704937,962.54833 83.981787,963.71474 89.036247,960.99311 C 94.090706,958.27148 105.75484,950.88419 108.08767,950.49539 C 110.4205,950.10658 112.75333,952.0506 118.58539,951.6618 C 124.41746,951.27299 127.9167,949.71778 128.30551,946.99614 C 128.69431,944.27451 118.19659,912.78134 118.19659,912.39254 z "
       id="path3321" />
    <path
       style="fill:#803300;fill-rule:evenodd;stroke:#000000;stroke-width:1px;stroke-linecap:butt;stroke-linejoin:miter;stroke-opacity:1"
       d="M 248.74801,745.84656 C 252.53605,758.47336 253.48306,759.73604 255.69275,761.31439 C 257.90244,762.89274 255.37708,767.31212 258.84945,767.62779 C 262.32182,767.94346 270.21357,768.89047 270.21357,770.46882 C 270.21357,772.04717 267.37254,767.31212 269.26656,775.20387 C 271.16058,783.09562 281.26202,787.19933 283.47171,789.40902 C 285.6814,791.61872 287.89109,789.40902 291.04779,793.51274 C 294.20449,797.61645 297.3612,803.29851 294.83584,804.56119 C 292.31047,805.82387 295.78285,806.13954 281.26202,805.82387 C 266.7412,805.5082 250.01069,805.82387 248.11667,805.19253 C 246.22265,804.56119 246.53832,800.77315 248.43234,797.30078 C 250.32636,793.82841 246.22265,789.72469 243.06595,787.515 C 239.90925,785.30531 240.83647,785.15037 242.43461,783.09562 C 244.6443,780.25459 241.4876,778.67624 238.3309,777.09789 C 229.74374,772.80431 225.38842,767.31212 225.38842,766.04944 C 225.38842,764.78676 220.02203,760.99872 219.70636,759.1047 C 219.39069,757.21068 221.91605,749.31893 225.38842,747.74058 C 228.86079,746.16223 249.06368,745.84656 248.74801,745.84656 z "
       id="path2244"
       sodipodi:nodetypes="cssssssssssssssssc" />
    <path
       style="fill:#a05a2c;fill-rule:evenodd;stroke:#000000;stroke-width:1px;stroke-linecap:butt;stroke-linejoin:miter;stroke-opacity:1"
       d="M 241.50923,718.41323 L 240.23654,724.61296 C 242.2729,726.53014 243.00318,726.79834 243.64794,727.81283 C 246.51735,732.32763 248.27078,735.89213 249.11441,737.95869 C 249.95806,740.02524 254.61043,744.26154 254.32792,745.34125 C 254.04541,746.42097 246.3198,753.40678 240.01684,755.86193 C 237.03887,757.02192 212.04754,761.03573 210.27357,759.87938 C 208.49958,758.72303 209.97867,752.25101 208.26119,750.87872 C 206.54372,749.50644 203.06849,740.39879 202.93061,737.7169 C 202.69033,733.04309 205.33568,727.21533 205.33568,727.21533 L 227.45281,716.58115 L 241.50923,718.41323 z "
       id="path2236"
       sodipodi:nodetypes="ccsssssssccc" />
    <path
       style="fill:#803300;fill-rule:evenodd;stroke:#000000;stroke-width:1px;stroke-linecap:butt;stroke-linejoin:miter;stroke-opacity:1"
       d="M 147.22943,763.32171 C 146.08408,767.56668 147.26981,766.47815 146.08408,767.56668 C 144.89836,768.65522 142.99642,768.04815 141.23204,768.32327 C 139.46766,768.5984 137.50293,770.48613 136.79269,771.72643 C 136.08245,772.96672 137.65245,777.24011 137.79001,778.1223 C 137.92757,779.00449 137.33471,779.54875 135.34979,779.85826 C 133.36486,780.16778 123.90151,783.22479 123.90151,783.22479 C 123.90151,783.22479 121.4269,784.74021 122.2605,785.73978 C 123.09409,786.73934 124.73304,791.26805 126.41444,791.9095 C 128.09583,792.55096 130.04618,792.20667 131.94812,792.81374 C 133.85006,793.4208 138.11128,801.02702 138.13147,802.60524 C 138.15166,804.18346 132.27557,808.51702 132.27557,808.51702 C 132.27557,808.51702 100.43379,809.47515 97.938988,809.41234 C 95.444187,809.34954 93.522062,807.16425 91.620123,806.55719 C 89.718183,805.95012 84.592053,801.24539 84.454492,800.3632 C 84.31693,799.48101 87.46738,796.08034 89.735653,793.24163 C 92.003927,790.40293 91.502274,785.73704 94.672922,784.339 C 97.843571,782.94096 98.057115,784.09202 99.105276,782.1213 C 100.15344,780.15058 102.91738,779.04186 105.76431,777.01656 C 108.61124,774.99127 105.01569,768.46193 107.59348,767.60814 C 110.17126,766.75437 111.1032,767.23844 112.74422,764.72345 C 114.38524,762.20847 110.97245,759.63222 112.39292,757.15161 C 113.8134,754.67102 117.73827,750.79681 117.73827,750.79681 L 142.53963,752.07978 L 147.24053,763.21344 L 147.31118,763.2823"
       id="path2240"
       sodipodi:nodetypes="cssssscsssscsssssssssscccc" />
    <path
       style="fill:#a05a2c;fill-rule:evenodd;stroke:#000000;stroke-width:1px;stroke-linecap:butt;stroke-linejoin:miter;stroke-opacity:1"
       d="M 159.06721,737.77736 C 159.06721,737.77736 135.18629,713.37695 130.23793,723.07975 C 125.28958,732.78255 119.04321,740.54988 117.89511,741.37134 C 116.74699,742.19281 113.86087,744.95214 114.46905,746.16606 C 115.07722,747.37998 116.59335,755.32165 121.15893,759.51921 C 125.72451,763.71676 133.55524,767.1404 137.85514,767.44878 C 142.15505,767.75716 140.87531,768.15205 143.0082,767.49391 C 145.1411,766.83577 154.78909,764.79313 154.31012,760.96976 C 153.83116,757.1464 159.5315,753.30478 160.9904,751.21943 C 162.44932,749.13407 166.55852,744.19188 165.83457,741.84571 C 165.11062,739.49952 159.06721,737.77736 159.06721,737.77736 z "
       id="path2238"
       sodipodi:nodetypes="ccssssssssc" />
    <path
       style="fill:#800000;fill-rule:evenodd;stroke:#000000;stroke-width:1px;stroke-linecap:butt;stroke-linejoin:miter;stroke-opacity:1"
       d="M 139.9542,702.8115 C 131.91855,711.29358 135.04352,715.53461 134.15067,717.0971 C 133.25782,718.65959 123.43648,726.91845 124.10612,728.48093 C 124.77575,730.04342 128.12394,738.74871 128.12394,738.74871 C 128.12394,738.74871 134.37389,743.65938 135.71316,743.88259 C 137.05244,744.10581 141.51669,745.44508 143.5256,744.77544 C 145.53451,744.10581 156.01892,746.70119 158.92069,745.36191 C 161.82245,744.02264 166.13362,740.437 168.16589,740.11314 C 172.07567,739.49009 169.75724,734.89156 172.67734,732.69052 C 173.68567,731.9305 175.95044,728.5756 176.62008,726.7899 C 177.28972,725.0042 176.12133,719.17937 177.13165,717.69014 C 178.8504,715.15667 180.04934,710.17301 180.49576,705.93197 C 180.94218,701.69093 179.59821,695.1952 179.59821,695.1952 C 179.59821,695.1952 157.36477,687.85627 155.13264,688.52591 C 152.90052,689.19555 141.7399,692.99016 141.7399,692.99016 L 139.9542,702.8115 z "
       id="path2228"
       sodipodi:nodetypes="csscsssssssscscc" />
    <path
       style="fill:#ff6600;fill-opacity:1;fill-rule:evenodd;stroke:#000000;stroke-width:0.87807411px;stroke-linecap:butt;stroke-linejoin:miter;stroke-opacity:1"
       d="M 239.99242,537.1168 C 263.20198,537.85596 271.7762,536.37765 288.33332,530.02089 C 289.36814,625.22436 289.51597,655.23415 267.04559,718.06252 C 239.25327,658.48644 240.28809,622.41556 239.99242,537.1168 z "
       id="path4186"
       sodipodi:nodetypes="cccc" />
    <path
       style="fill:#800000;fill-rule:evenodd;stroke:#000000;stroke-width:1px;stroke-linecap:butt;stroke-linejoin:miter;stroke-opacity:1"
       d="M 181.02529,697.23119 C 185.93596,707.72218 197.76622,726.91845 197.76622,726.91845 C 197.76622,726.91845 199.99834,729.37378 200.22156,730.71306 C 200.44477,732.05233 202.45368,734.06125 202.45368,734.06125 L 211.60539,734.28446 C 211.60539,734.28446 213.16788,732.72197 214.28394,732.72197 C 215.4,732.72197 220.7571,734.28446 223.65886,732.94518 C 226.56062,731.60591 235.26591,728.48093 237.72125,723.57026 C 240.17658,718.65959 241.51586,715.75783 240.17658,713.74891 C 238.83731,711.74 236.60518,711.51679 235.26591,709.06145 C 233.92664,706.60612 234.14985,703.03472 234.14985,701.69544 C 234.14985,700.35617 224.55171,686.29378 223.21244,685.40093 C 221.87316,684.50808 185.71275,686.96342 185.71275,686.96342 L 181.02529,697.23119 z "
       id="path2230" />
    <path
       sodipodi:nodetypes="cccc"
       id="path4188"
       d="M 245.31436,543.76922 C 265.82002,543.76649 274.25413,543.10851 284.34187,539.33428 C 285.37669,634.53774 284.19403,646.80775 267.04559,703.4272 C 245.46219,649.17306 245.61003,629.06797 245.31436,543.76922 z "
       style="fill:#502d16;fill-opacity:1;fill-rule:evenodd;stroke:#000000;stroke-width:0.87807411px;stroke-linecap:butt;stroke-linejoin:miter;stroke-opacity:1" />
    <path
       sodipodi:type="arc"
       style="opacity:0.5;fill:#000000;fill-opacity:0.5;fill-rule:evenodd;stroke:none;stroke-width:4;stroke-miterlimit:4;stroke-dasharray:none;stroke-opacity:1;filter:url(#filter3367)"
       id="path3353"
       sodipodi:cx="582.42926"
       sodipodi:cy="670.94489"
       sodipodi:rx="150.85617"
       sodipodi:ry="21.384251"
       d="M 733.28543 670.94489 A 150.85617 21.384251 0 1 1  431.57309,670.94489 A 150.85617 21.384251 0 1 1  733.28543 670.94489 z"
       transform="matrix(1,0,0,1.3090909,-125.97268,-217.10308)" />
    <path
       style="fill:#803300;fill-rule:evenodd;stroke:#000000;stroke-width:1px;stroke-linecap:butt;stroke-linejoin:miter;stroke-opacity:1"
       d="M 379.80447,583.58374 C 375.53508,593.31794 372.97345,595.87957 372.80267,597.41655 C 372.6319,598.95352 372.97345,603.73523 371.9488,604.41834 C 370.92415,605.10144 369.38717,604.24756 368.70407,604.58911 C 368.02096,604.93066 369.55794,605.78454 367.50864,605.78454 C 365.45933,605.78454 364.43468,604.07679 364.43468,605.10144 C 364.43468,606.12609 366.31321,608.51695 366.31321,609.71237 C 366.31321,610.9078 368.53329,611.42013 366.31321,612.274 C 364.09313,613.12788 355.89591,616.03106 354.87126,615.00641 C 353.84661,613.98176 353.84661,622.6913 352.4804,622.86208 C 351.1142,623.03285 346.33249,624.56983 345.13706,626.27759 C 343.94163,627.98534 342.23388,631.7424 341.55078,632.25472 C 340.86768,632.76705 340.35535,632.08395 339.3307,632.76705 C 338.30605,633.45015 337.28139,634.98713 336.59829,637.37799 C 335.91519,639.76884 334.54899,641.30582 333.35356,643.35513 C 332.15813,645.40443 329.08418,648.99071 329.08418,648.99071 L 327.20565,656.84638 C 327.20565,656.84638 329.25495,658.04181 331.47503,658.04181 C 333.69511,658.04181 335.40286,657.35871 338.98915,657.87103 C 342.57543,658.38336 364.26391,660.77421 366.82554,660.77421 C 369.38717,660.77421 394.66192,661.28654 396.02813,660.60344 C 397.39433,659.92034 399.61441,660.94499 398.07743,659.06646 C 396.54045,657.18793 395.5158,658.72491 394.66192,655.65095 C 393.80805,652.577 395.5158,651.89389 393.80805,649.84459 C 392.10029,647.79529 383.90308,638.06109 380.48757,637.37799 C 377.07206,636.69489 375.19353,635.84101 373.9981,635.84101 C 372.80267,635.84101 375.36431,637.03644 375.87663,635.67023 C 376.38896,634.30403 379.12136,631.40085 381.34144,630.20542 C 383.56152,629.00999 383.40129,630.76637 383.93794,630.31052 C 385.81041,628.71998 384.4154,627.30224 383.56152,626.10681 C 382.70765,624.91138 385.34961,623.20363 383.47108,623.20363 C 381.59256,623.20363 391.05947,620.67079 392.76722,618.79226 C 394.47497,616.91374 396.07158,612.44478 398.12088,611.42013 C 400.17019,610.39548 409.00706,603.90601 409.00706,603.90601 L 410.20249,602.19826 C 410.20249,602.19826 406.95775,588.707 405.59155,587.68235 C 404.22535,586.6577 393.29572,581.36366 393.29572,581.36366"
       id="path4138"
       sodipodi:nodetypes="cssssssssssssssccssssssssssssssssccsc" />
    <path
       style="fill:#a05a2c;fill-rule:evenodd;stroke:#000000;stroke-width:1px;stroke-linecap:butt;stroke-linejoin:miter;stroke-opacity:1"
       d="M 396.1989,559.84596 C 392.95417,560.35829 393.63727,559.50441 392.27107,560.87061 C 390.90487,562.23682 382.19532,572.31256 380.65834,574.19109 C 379.12136,576.06962 376.21818,576.2404 376.21818,578.11893 C 376.21818,579.99746 384.24463,587.51157 385.44005,589.90243 C 386.63548,592.29328 388.34324,597.07499 391.24642,598.61197 C 394.1496,600.14895 394.32037,601.34438 396.02813,601.34438 C 397.73588,601.34438 402.68837,600.83205 404.73767,601.00283 C 406.78698,601.1736 413.95954,604.58911 414.47187,603.90601 C 414.9842,603.22291 431.03708,587.51157 432.06173,586.82847 C 433.08639,586.14537 433.59871,585.80382 433.08639,584.43762 C 432.57406,583.07141 427.28002,571.11714 427.28002,571.11714"
       id="path4136" />
    <path
       style="fill:#800000;fill-rule:evenodd;stroke:#000000;stroke-width:1px;stroke-linecap:butt;stroke-linejoin:miter;stroke-opacity:1;fill-opacity:1"
       d="M 410.20248,523.64158 C 410.20248,529.44794 412.93489,540.03601 412.93489,540.03601 C 412.93489,540.03601 413.61799,545.84238 412.25179,545.84238 C 410.88559,545.84238 399.61441,552.33184 399.27286,553.69805 C 398.93131,555.06425 401.32216,562.91992 401.32216,562.91992 L 398.93131,556.43045 C 398.93131,556.43045 396.54045,557.11355 395.85735,558.47976 C 395.17425,559.84596 398.58976,568.72628 399.61441,570.09248 C 400.63906,571.45869 409.17783,580.33901 411.91024,581.36366 C 414.64265,582.38831 427.96313,585.80382 430.01243,585.12072 C 432.06173,584.43762 431.72018,583.07141 433.08639,583.07141 C 434.45259,583.07141 437.52655,583.41296 439.2343,582.72986 C 440.94205,582.04676 439.57585,580.68056 440.94205,579.65591 C 442.30826,578.63125 454.26254,563.60302 454.26254,561.89526 C 454.26254,560.18751 452.21323,560.87061 454.26254,559.16286 C 456.31184,557.4551 458.7027,558.13821 458.7027,556.0889 C 458.7027,554.0396 457.33649,550.62409 459.04425,547.20858 C 460.752,543.79307 464.16751,528.42329 463.82596,526.71553 C 463.48441,525.00778 461.09355,521.93382 461.09355,520.22607 C 461.09355,518.51832 462.1182,507.58869 462.1182,507.58869 L 438.89275,492.90201 L 412.25179,509.29644"
       id="path2188" />
    <path
       style="fill:#ff6600;fill-opacity:1;fill-rule:evenodd;stroke:#000000;stroke-width:0.87807411px;stroke-linecap:butt;stroke-linejoin:miter;stroke-opacity:1"
       d="M 532.10073,339.85028 C 555.31029,340.58944 563.88451,339.11113 580.44163,332.75437 C 581.47645,427.95784 581.62428,457.96763 559.1539,520.796 C 531.36158,461.21992 532.3964,425.14904 532.10073,339.85028 z "
       id="path6091"
       sodipodi:nodetypes="cccc" />
    <path
       sodipodi:nodetypes="cccc"
       id="path6093"
       d="M 537.42267,346.5027 C 557.92833,346.49997 566.36244,345.84199 576.45018,342.06776 C 577.485,437.27122 576.30234,449.54123 559.1539,506.16068 C 537.5705,451.90654 537.71834,431.80145 537.42267,346.5027 z "
       style="fill:#502d16;fill-opacity:1;fill-rule:evenodd;stroke:#000000;stroke-width:0.87807411px;stroke-linecap:butt;stroke-linejoin:miter;stroke-opacity:1" />
    <path
       style="fill:#6f918a;fill-opacity:1;fill-rule:evenodd;stroke:#000000;stroke-width:0.87807411px;stroke-linecap:butt;stroke-linejoin:miter;stroke-opacity:1"
       d="M 514.11376,369.89502 C 521.52496,367.42819 532.68517,373.00063 535.06001,380.65301 C 541.73538,366.19215 555.93049,373.02349 557.16144,382.8331 C 558.38693,392.59911 542.30167,402.50915 538.41693,402.32269 C 533.7633,402.09933 508.6762,398.85968 501.03545,394.13053 C 499.98024,401.3181 500.50744,403.37093 496.3546,410.9504 C 480.68405,417.43483 482.01715,423.2836 486.85158,433.76624 C 485.72765,437.34972 483.71468,439.92232 480.79507,441.73602 C 456.86439,439.15934 427.9503,448.36768 422.88618,450.48355 C 418.93681,447.65749 415.56564,441.73833 414.78164,439.75874 C 419.4856,380.41034 435.16771,345.58848 445.20063,343.64099"
       id="path2160"
       sodipodi:nodetypes="cczsccccccc" />
    <path
       style="fill:#808080;fill-opacity:1;fill-rule:evenodd;stroke:#000000;stroke-width:0.87807411px;stroke-linecap:butt;stroke-linejoin:miter;stroke-opacity:1"
       d="M 514.81937,369.98321 C 514.38693,376.9226 502.30447,390.18403 498.19868,391.93507 C 492.83886,394.22092 474.6299,397.60596 469.97487,393.81666 C 461.54817,386.95713 469.73967,365.12245 462.76212,352.73534 C 476.16843,351.63774 510.34738,362.79623 514.81937,369.98321 z "
       id="path3136"
       sodipodi:nodetypes="csscc" />
    <path
       style="fill:#ffb380;fill-opacity:1;fill-rule:evenodd;stroke:#000000;stroke-width:0.87807411px;stroke-linecap:butt;stroke-linejoin:miter;stroke-opacity:1"
       d="M 492.55393,375.00079 C 482.57893,371.63712 474.38239,366.17114 470.60207,349.28575 C 468.25008,338.78023 467.54449,322.00274 476.87403,308.20443 C 486.20356,294.40613 501.41306,294.87652 511.36979,298.4829 C 523.67547,302.94009 526.44149,316.42866 524.54091,329.52909 C 521.62433,349.63271 517.36189,358.97773 509.4882,370.92401 C 507.21462,374.37359 499.29627,377.27437 492.55393,375.00079 z "
       id="path4107"
       sodipodi:nodetypes="cssssss" />
    <path
       style="fill:none;fill-rule:evenodd;stroke:#000000;stroke-width:0.87807411px;stroke-linecap:butt;stroke-linejoin:miter;stroke-opacity:1"
       d="M 470.01153,324.32798 C 478.88141,339.40679 507.70855,344.28523 522.78735,338.9633"
       id="path4117"
       sodipodi:nodetypes="cc" />
    <path
       style="fill:#4d4d4d;fill-rule:evenodd;stroke:#000000;stroke-width:1px;stroke-linecap:butt;stroke-linejoin:miter;stroke-opacity:1"
       d="M 469.63232,326.90833 C 468.94922,332.03159 469.63232,341.93656 469.63232,341.93656 C 469.63232,341.93656 474.05924,360.73137 475.78023,363.11271 C 480.68518,369.89971 487.8175,372.79024 487.73451,372.67613 C 487.73451,372.67613 475.95101,369.4314 478.00031,333.05624"
       id="path4134"
       sodipodi:nodetypes="ccscc" />
    <path
       style="fill:url(#radialGradient4354);fill-opacity:1.0;fill-rule:evenodd;stroke:#000000;stroke-width:1.00255656px;stroke-linecap:butt;stroke-linejoin:miter;stroke-opacity:1"
       d="M 478.97584,333.76933 C 475.51404,331.73708 469.97514,328.68871 469.97514,325.97904 C 469.97514,323.26937 472.7446,315.47908 475.51404,310.73717 C 478.28347,305.99524 484.86091,299.22109 492.47687,297.18883 C 500.09284,295.15658 508.40117,298.20495 508.40117,298.20495 L 520.86366,303.28557 L 515.32477,319.54358 L 492.47687,337.49512"
       id="path4132" />
    <path
       sodipodi:nodetypes="cc"
       id="path4119"
       d="M 474.00297,313.68411 C 472.67249,333.19786 510.813,342.06776 523.23085,329.20642"
       style="fill:none;fill-rule:evenodd;stroke:#000000;stroke-width:0.87807411px;stroke-linecap:butt;stroke-linejoin:miter;stroke-opacity:1" />
    <path
       style="fill:#b7c8be;fill-opacity:1;fill-rule:evenodd;stroke:#000000;stroke-width:0.87807411px;stroke-linecap:butt;stroke-linejoin:miter;stroke-opacity:1"
       d="M 518.79591,296.83133 C 518.79591,296.83133 481.73071,279.93241 463.8026,271.99564 C 456.94143,268.95821 454.48922,261.35177 454.48922,261.35177 C 454.48922,261.35177 467.58361,261.41024 477.10744,264.89973 C 500.19179,273.35777 543.63159,292.83988 543.63159,292.83988 L 518.79591,296.83133 z "
       id="path5109"
       sodipodi:nodetypes="cscscc" />
    <path
       sodipodi:nodetypes="cscscc"
       id="path5111"
       d="M 528.10929,295.50084 C 528.10929,295.50084 517.65375,291.01978 499.72565,283.083 C 492.86448,280.04557 488.1948,275.10009 488.1948,275.10009 C 488.1948,275.10009 493.30628,275.60206 502.83011,279.09155 C 525.91447,287.54959 535.6487,293.28338 535.6487,293.28338 L 528.10929,295.50084 z "
       style="fill:#afe9c6;fill-opacity:1;fill-rule:evenodd;stroke:#000000;stroke-width:0.87807411px;stroke-linecap:butt;stroke-linejoin:miter;stroke-opacity:1" />
    <path
       sodipodi:nodetypes="cssss"
       id="path5105"
       d="M 548.24809,291.15533 C 548.70325,293.66887 536.13434,298.85076 526.41186,300.82613 C 516.68936,302.80152 506.72845,301.37609 506.27328,298.86254 C 505.81812,296.349 519.12088,291.01801 528.84339,289.04263 C 538.56587,287.06726 547.79293,288.64178 548.24809,291.15533 z "
       style="fill:#ffff00;fill-opacity:1;stroke:#000000;stroke-width:0.87807411;stroke-linecap:square;stroke-linejoin:round;stroke-miterlimit:4;stroke-dashoffset:0;stroke-opacity:1" />
    <path
       style="fill:#ff6600;fill-opacity:1;stroke:#000000;stroke-width:0.87807411;stroke-linecap:square;stroke-linejoin:round;stroke-miterlimit:4;stroke-dashoffset:0;stroke-opacity:1"
       d="M 551.16499,291.91743 C 551.62015,294.43097 539.05123,299.61285 529.32875,301.58823 C 519.60623,303.56362 509.64533,302.13819 509.19017,299.62464 C 508.73501,297.1111 522.03775,291.78011 531.76028,289.80473 C 541.48276,287.82935 550.70982,289.40388 551.16499,291.91743 z "
       id="path5107"
       sodipodi:nodetypes="cssss" />
    <path
       sodipodi:nodetypes="cssssss"
       id="path4123"
       d="M 518.39955,305.96964 C 517.30514,302.34875 523.08995,292.19921 529.80051,290.18215 C 539.12593,287.3791 550.62217,293.4494 553.74156,296.03288 C 556.76862,298.53987 550.54521,301.85459 548.44191,301.35098 C 544.11183,300.3142 543.7987,305.89664 541.17536,310.1986 C 539.80425,312.44706 530.78893,312.22465 528.43469,312.24159 C 525.59904,312.26199 519.6716,310.17826 518.39955,305.96964 z "
       style="fill:#999999;fill-opacity:1;fill-rule:evenodd;stroke:#000000;stroke-width:0.87807411px;stroke-linecap:butt;stroke-linejoin:miter;stroke-opacity:1" />
    <path
       sodipodi:nodetypes="ccssscc"
       id="path2162"
       d="M 445.20063,343.64099 C 469.08294,339.0052 499.76666,324.19792 499.76666,324.19792 L 515.44657,303.81406 C 519.21006,298.92152 536.2447,305.41196 535.20323,311.02681 C 535.20323,311.02681 534.63719,320.30996 531.75366,331.41067 C 530.25579,337.17702 522.96464,340.62943 505.69922,348.45601 C 488.4338,356.28507 462.83406,366.5614 448.96381,380.95914"
       style="fill:#6f918a;fill-opacity:1;fill-rule:evenodd;stroke:#000000;stroke-width:0.87807411px;stroke-linecap:butt;stroke-linejoin:miter;stroke-opacity:1" />
    <path
       id="path5113"
       style="fill:#552200;fill-opacity:1;fill-rule:evenodd;stroke:#000000;stroke-width:0.87807411px;stroke-linecap:butt;stroke-linejoin:miter;stroke-opacity:1"
       d="M 568.02379,425.4447 C 568.02379,425.4447 561.81487,425.4447 561.81487,425.4447 C 561.81487,425.4447 541.525,396.17407 541.85762,380.20827 C 542.19024,364.24248 563.14535,361.58151 563.14535,361.58151 C 563.14535,361.58151 569.35428,361.58151 569.35428,361.58151 C 569.35428,361.58151 548.39917,364.24248 548.06655,380.20827 C 547.73392,396.17407 568.02379,425.4447 568.02379,425.4447 z "
       sodipodi:nodetypes="ccsccsc" />
    <path
       style="fill:#666666;fill-opacity:1;fill-rule:evenodd;stroke:#000000;stroke-width:0.87807411px;stroke-linecap:butt;stroke-linejoin:miter;stroke-opacity:1"
       d="M 547.74715,369.35602 C 551.36803,368.26161 563.11789,365.71128 565.30863,369.66962 C 567.43262,373.50738 563.81534,392.26525 561.23186,395.38464 C 558.72486,398.4117 549.73452,394.87094 548.37435,393.18946 C 546.30667,390.63335 547.5032,386.14932 547.95312,374.39205 C 548.35051,388.01099 543.12024,387.50735 541.91869,383.38261 C 539.75798,375.96524 543.53852,370.62806 547.74715,369.35602 z "
       id="path2164"
       sodipodi:nodetypes="cssscss" />
    <path
       style="fill:none;fill-rule:evenodd;stroke:#000000;stroke-width:0.87807411px;stroke-linecap:butt;stroke-linejoin:miter;stroke-opacity:1"
       d="M 512.93779,361.51608 C 510.32447,364.33846 507.39755,363.08406 505.09783,361.51608"
       id="path4109"
       sodipodi:nodetypes="cc" />
    <path
       style="fill:none;fill-rule:evenodd;stroke:#000000;stroke-width:0.87807411px;stroke-linecap:butt;stroke-linejoin:miter;stroke-opacity:1"
       d="M 509.17461,367.78803 L 493.49471,367.16084"
       id="path4111" />
    <path
       style="fill:none;fill-rule:evenodd;stroke:#000000;stroke-width:0.87807411px;stroke-linecap:butt;stroke-linejoin:miter;stroke-opacity:1"
       d="M 520.15053,344.58179 L 511.99699,345.52258"
       id="path4113" />
    <path
       style="fill:#000000;fill-opacity:1;fill-rule:evenodd;stroke:#000000;stroke-width:0.87807411px;stroke-linecap:butt;stroke-linejoin:miter;stroke-opacity:1"
       d="M 514.28402,345.41171 C 515.10126,348.4053 518.69034,347.07481 518.62058,345.07908"
       id="path4115"
       sodipodi:nodetypes="cc" />
    <path
       style="fill:#ff6600;fill-opacity:1;stroke:#000000;stroke-width:0.87807411;stroke-linecap:square;stroke-linejoin:round;stroke-miterlimit:4;stroke-dashoffset:0;stroke-opacity:1"
       d="M 556.27119,305.39279 C 556.27119,308.36166 552.23114,311.35577 549.21613,311.35577 C 546.20111,311.35577 543.29899,307.42628 543.29899,304.45741 C 543.29899,301.48855 547.56661,298.49443 550.58163,298.49443 C 553.59664,298.49443 556.27119,302.42393 556.27119,305.39279 z "
       id="path4125"
       sodipodi:nodetypes="cssss" />
    <path
       sodipodi:nodetypes="ccsccsc"
       d="M 552.94498,425.88819 C 552.94498,425.88819 546.73606,425.88819 546.73606,425.88819 C 546.73606,425.88819 529.10716,402.82648 529.43978,386.86069 C 529.77241,370.89489 546.73606,362.025 546.73606,362.025 C 546.73606,362.025 552.94498,362.025 552.94498,362.025 C 552.94498,362.025 535.98133,370.89489 535.64871,386.86069 C 535.31608,402.82648 552.94498,425.88819 552.94498,425.88819 z "
       style="fill:#552200;fill-opacity:1;fill-rule:evenodd;stroke:#000000;stroke-width:0.87807411px;stroke-linecap:butt;stroke-linejoin:miter;stroke-opacity:1"
       id="path6089" />
    <path
       id="path6113"
       style="fill:#aa4400;fill-opacity:1;fill-rule:evenodd;stroke:#000000;stroke-width:0.87807411px;stroke-linecap:butt;stroke-linejoin:miter;stroke-opacity:1"
       d="M 480.79507,441.73602 L 483.89952,450.60591 C 469.72573,446.69875 427.5068,455.46359 422.44269,461.57091 L 422.88618,450.48355 C 427.9503,448.36768 456.86439,439.15934 480.79507,441.73602 z "
       sodipodi:nodetypes="ccccc" />
    <path
       style="fill:#803300;fill-rule:evenodd;stroke:#000000;stroke-width:1px;stroke-linecap:butt;stroke-linejoin:miter;stroke-opacity:1"
       d="M 522.57269,601.85671 C 521.20649,606.63842 521.20649,605.61376 519.15718,607.32152 C 517.10788,609.02927 517.44943,607.66307 516.08323,610.73703 C 514.71702,613.81098 511.56241,612.88567 511.56241,614.93497 C 511.56241,616.98428 508.48846,615.61807 510.19621,618.69203 C 511.90397,621.76599 509.01089,622.16514 509.01089,624.556 C 509.01089,626.94685 504.13303,626.11832 505.54435,626.70254 C 507.19451,627.38564 509.71268,630.96587 510.05423,632.67362 C 510.39578,634.38137 506.03607,634.62405 508.42693,636.33181 C 510.81778,638.03956 507.52151,634.24511 514.35253,634.58666 C 521.18354,634.92821 531.09256,643.04762 533.48341,640.99832 C 535.87427,638.94901 536.77969,639.57451 539.51209,639.57451 C 542.2445,639.57451 546.80389,638.94901 548.8532,640.31522 C 550.9025,641.68142 556.02576,653.6357 554.31801,655.0019 C 552.61026,656.3681 559.44127,656.3681 550.2194,656.3681 C 540.99753,656.3681 503.7685,655.0019 497.62058,655.0019 C 491.47267,655.0019 468.58877,661.14981 472.00427,651.92794 C 475.41978,642.70607 469.95497,643.04762 472.68737,640.31522 C 475.41978,637.58281 479.51839,638.60746 476.10288,636.21661 C 472.68737,633.82575 476.58225,634.38137 477.94845,631.64897 C 479.31466,628.91656 477.3702,629.97804 479.39365,626.74742 C 481.39213,623.55666 487.2834,624.01141 485.57565,620.93745 C 483.86789,617.86349 485.53261,611.31301 485.53261,611.31301 C 485.53261,611.31301 484.64065,609.88785 484.84951,609.26371 C 488.02825,599.76468 485.86609,594.74578 485.86609,594.74578 L 508.22756,591.26863"
       id="path4144"
       sodipodi:nodetypes="cssssssssssssssssssssscscc" />
    <path
       style="fill:#a05a2c;fill-rule:evenodd;stroke:#000000;stroke-width:1px;stroke-linecap:butt;stroke-linejoin:miter;stroke-opacity:1"
       d="M 486.70986,567.36008 C 486.36831,572.48334 482.9528,573.84954 482.9528,576.2404 C 482.9528,578.63125 482.9528,582.72986 482.9528,584.43762 C 482.9528,586.14537 479.19574,589.90243 480.22039,592.29328 C 481.24505,594.68414 499.00569,604.93066 502.07964,604.58911 C 505.1536,604.24756 523.59734,604.24756 529.40371,599.46585 C 535.21007,594.68414 535.55162,593.65949 535.55162,591.95173 C 535.55162,590.24398 534.86852,582.72986 531.79456,578.9728 C 528.72061,575.21575 499.34724,565.65232 499.34724,565.65232"
       id="path4142" />
    <path
       style="fill:#800000;fill-rule:evenodd;stroke:#000000;stroke-width:1px;stroke-linecap:butt;stroke-linejoin:miter;stroke-opacity:1;fill-opacity:1"
       d="M 462.8013,507.93024 C 465.87526,511.34575 465.19216,517.15211 466.21681,518.51832 C 467.24146,519.88452 484.319,539.01136 486.02676,541.74377 C 487.73451,544.47618 487.73451,545.50083 489.44227,546.52548 C 491.15002,547.55013 492.17467,550.96564 492.17467,550.96564 C 492.17467,550.96564 482.2697,558.47976 482.9528,562.23682 C 483.6359,565.99387 492.85777,572.14179 492.85777,572.14179 C 492.85777,572.14179 491.83312,573.84954 494.22398,575.5573 C 496.61483,577.26505 508.91066,579.99746 508.91066,579.99746 C 508.91066,579.99746 514.37547,582.38831 516.76633,582.38831 C 519.15718,582.38831 520.18184,579.99746 521.54804,579.99746 C 522.91424,579.99746 525.9882,580.68056 529.40371,579.99746 C 532.81921,579.31435 536.23472,573.50799 536.23472,573.50799 L 534.52697,570.43403 C 534.52697,570.43403 536.23472,563.26147 537.25937,560.87061 C 538.28403,558.47976 541.01643,555.4058 541.01643,553.3565 C 541.01643,551.30719 539.30868,551.30719 539.30868,549.25789 C 539.30868,547.20858 537.94248,533.54655 535.55162,529.10639 C 533.16077,524.66623 509.25221,493.24356 509.25221,493.24356 L 490.80847,487.77875 L 466.21681,492.90201"
       id="path3161" />
    <path
       sodipodi:nodetypes="ccscsscsc"
       d="M 483.89952,450.60591 C 469.72573,446.69875 427.5068,455.46359 422.44269,461.57091 C 414.34446,470.33183 410.19612,488.89982 407.46138,499.38455 C 405.92614,505.27053 409.35246,517.70857 410.07625,523.98787 C 418.78748,515.78845 432.24227,508.77243 441.53189,507.81599 C 454.13536,506.51837 468.32796,509.7679 481.07747,508.35577 C 493.60088,506.96869 502.59863,501.51051 511.14174,491.43545 C 503.51632,485.53736 496.31604,477.9807 490.92646,470.63674 C 487.08748,465.40567 489.49413,456.39587 483.89952,450.60591 z "
       style="fill:#6f918a;fill-opacity:1;fill-rule:evenodd;stroke:#000000;stroke-width:0.87807411px;stroke-linecap:butt;stroke-linejoin:miter;stroke-opacity:1"
       id="path6120" />
    <path
       style="fill:none;fill-rule:evenodd;stroke:#000000;stroke-width:1px;stroke-linecap:butt;stroke-linejoin:miter;stroke-opacity:1"
       d="M 411.91024,545.15928 C 413.61799,547.20858 414.30109,551.30719 414.9842,554.0396 C 415.6673,556.772 417.37505,559.84596 417.37505,559.84596"
       id="path2184" />
    <path
       style="fill:none;fill-rule:evenodd;stroke:#000000;stroke-width:1px;stroke-linecap:butt;stroke-linejoin:miter;stroke-opacity:1"
       d="M 507.54446,560.18751 C 501.39654,558.47976 492.17467,549.94099 492.17467,549.94099"
       id="path2186" />
    <path
       style="fill:none;fill-rule:evenodd;stroke:#000000;stroke-width:1px;stroke-linecap:butt;stroke-linejoin:miter;stroke-opacity:1"
       d="M 373.9981,635.49946 C 367.16709,635.67023 361.87305,635.84101 358.96987,637.54876 C 356.06669,639.25652 350.94343,641.81815 350.94343,641.81815"
       id="path4140" />
    <path
       style="fill:#374845;fill-rule:evenodd;stroke:#000000;stroke-width:1px;stroke-linecap:butt;stroke-linejoin:miter;stroke-opacity:1"
       d="M 237.98351,555.31777 C 241.67489,561.84867 253.8531,569.07585 256.97658,572.48327 C 260.10005,575.8907 259.95732,588.34509 258.53756,590.0488 C 257.1178,591.75251 254.11731,605.91513 252.4136,605.91513 C 250.70988,605.91513 234.26042,599.17476 228.29742,598.60686 C 222.33443,598.03895 213.24797,591.79201 213.24797,588.66854 C 213.24797,585.54506 230.56904,560.27333 230.56904,560.27333"
       id="path4182"
       sodipodi:nodetypes="csssssc" />
    <path
       style="fill:#6f918a;fill-rule:evenodd;stroke:#000000;stroke-width:1px;stroke-linecap:butt;stroke-linejoin:miter;stroke-opacity:1"
       d="M 199.55192,638.30311 C 199.55192,638.30311 151.33803,625.80321 146.65057,637.41026 C 141.96311,649.01731 142.40954,654.82083 140.84705,658.83865 C 139.28456,662.85648 136.60601,669.77606 136.60601,669.77606 C 136.60601,669.77606 137.49886,670.66891 137.49886,672.2314 C 137.49886,673.79389 136.82923,690.98124 137.27565,693.65979 C 137.72208,696.33834 139.73099,703.03472 139.73099,703.03472 C 139.73099,703.03472 156.69513,693.88301 161.60581,693.88301 C 166.51648,693.88301 196.65016,701.47223 196.65016,701.47223 L 199.77513,698.12404 C 199.77513,698.12404 204.4626,698.79368 208.70363,696.56156 C 212.94467,694.32943 216.96249,688.52591 219.19462,687.63306 C 221.42674,686.74021 223.65887,685.17772 223.65887,685.17772 C 223.65887,685.17772 222.5428,682.05275 221.42674,680.71347 C 220.31068,679.3742 214.50716,674.0171 212.72146,671.33855 C 210.93576,668.66 210.48933,664.19575 209.81969,662.85648 C 209.15006,661.5172 206.47151,659.7315 204.90902,656.82974 C 203.34653,653.92798 204.23938,648.79409 203.34653,647.67803 C 202.45368,646.56197 200.44477,646.11554 200.22156,644.32985 C 199.99835,642.54415 199.55192,638.30311 199.55192,638.30311 z "
       id="path2226"
       sodipodi:nodetypes="ccscsscsccsscssssssc" />
    <path
       style="fill:#803300;fill-rule:evenodd;stroke:#000000;stroke-width:1px;stroke-linecap:butt;stroke-linejoin:miter;stroke-opacity:1"
       d="M 147.41792,624.94266 C 147.41792,630.94039 145.5239,636.30678 145.5239,636.30678 C 145.5239,636.30678 154.04699,643.88286 172.67152,643.88286 C 191.29605,643.88286 196.97812,641.98884 199.18781,639.14781 C 201.3975,636.30678 197.92513,634.09709 198.87214,630.94039 C 199.81915,627.78369 197.92513,632.20307 187.50801,632.20307 C 177.0909,632.20307 152.15297,623.99565 152.15297,623.99565 L 147.41792,624.94266 z "
       id="path2220" />
    <path
       style="fill:#6f918a;fill-rule:evenodd;stroke:#000000;stroke-width:1px;stroke-linecap:butt;stroke-linejoin:miter;stroke-opacity:1"
       d="M 166.67983,540.39669 C 159.01313,543.23621 154.4699,544.65597 151.91433,548.6313 C 149.35876,552.60663 143.11182,568.7919 143.39577,572.19932 C 143.67972,575.60674 148.22295,588.10063 147.65505,589.80434 C 147.08715,591.50806 143.96367,599.74267 143.67972,602.29823 C 143.39577,604.8538 145.49702,619.1082 143.67972,621.89092 C 142.36916,623.8977 140.25182,626.5659 140.27229,628.70577 C 143.32713,631.16778 146.48061,632.27274 151.34643,631.54529 C 179.52197,648.36243 197.91456,637.79224 201.03803,635.52062 C 204.30186,633.14692 205.58126,628.42182 205.58126,628.42182 C 205.58126,628.42182 213.81587,611.9526 213.53192,610.81679 C 213.24797,609.68099 225.17999,584.16004 224.32813,583.02423 C 223.47628,581.88843 191.95156,542.10041 190.24785,541.81645 C 188.54414,541.5325 170.93912,540.11274 170.93912,540.11274"
       id="path4184"
       sodipodi:nodetypes="csssssccscsssc" />
    <path
       style="fill:#666666;fill-rule:evenodd;stroke:#000000;stroke-width:1px;stroke-linecap:butt;stroke-linejoin:miter;stroke-opacity:1"
       d="M 166.96379,540.11274 C 176.90211,543.80412 180.87744,545.50783 182.8651,548.91525 C 184.85276,552.32268 188.54414,558.00172 190.24785,563.39681 C 191.95156,568.7919 193.08737,584.1253 195.35899,585.82902 C 197.6306,587.53273 201.32198,592.64386 210.12449,592.07596 C 218.92701,591.50806 226.30976,586.68087 229.43323,583.5574 C 232.5567,580.43393 235.96413,569.64375 236.53203,567.94004 C 237.09994,566.23633 235.39622,567.94004 236.53203,563.68076 C 237.66784,559.42148 239.93946,555.1622 238.80365,552.03873 C 237.66784,548.91525 231.70485,541.5325 230.56904,544.65597 C 229.43323,547.77945 198.76641,538.97693 198.76641,538.97693 C 198.76641,538.97693 197.0627,517.68053 195.64294,515.69287 C 194.22318,513.7052 193.65528,507.45826 193.65528,507.45826 C 193.65528,507.45826 194.22318,502.63108 193.08737,505.18664 C 191.95156,507.74221 188.54414,515.40892 188.54414,518.53239 C 188.54414,521.65586 189.11204,531.31023 186.84043,533.01394 C 184.56881,534.71765 178.03792,538.12508 176.3342,539.26089 C 174.63049,540.39669 169.51935,538.12508 168.38355,538.97693 C 167.24774,539.82879 166.96379,540.39669 166.96379,540.11274 z "
       id="path4146" />
    <path
       id="path4190"
       style="fill:#552200;fill-opacity:1;fill-rule:evenodd;stroke:#000000;stroke-width:0.87807411px;stroke-linecap:butt;stroke-linejoin:miter;stroke-opacity:1"
       d="M 275.91548,622.71122 C 275.91548,622.71122 269.70656,622.71122 269.70656,622.71122 C 269.70656,622.71122 249.41669,593.44059 249.74931,577.47479 C 250.08193,561.509 271.03704,558.84803 271.03704,558.84803 C 271.03704,558.84803 277.24597,558.84803 277.24597,558.84803 C 277.24597,558.84803 256.29086,561.509 255.95824,577.47479 C 255.62561,593.44059 275.91548,622.71122 275.91548,622.71122 z "
       sodipodi:nodetypes="ccsccsc" />
    <path
       style="fill:#ffb380;fill-rule:evenodd;stroke:#000000;stroke-width:1px;stroke-linecap:butt;stroke-linejoin:miter;stroke-opacity:1"
       d="M 240.22341,525.06328 C 240.22341,527.61885 240.22341,526.48304 239.37156,527.9028 C 238.5197,529.32256 236.81598,529.60652 236.53203,531.31023 C 236.24808,533.01394 235.39622,539.26089 233.69251,541.81645 C 231.9888,544.37202 227.72952,551.47082 225.17395,553.17454 C 222.61838,554.87825 219.77886,559.70544 214.95168,561.40914 C 213.32293,561.98399 208.98869,561.75904 206.71707,560.62323 C 204.44546,559.48742 197.33238,551.3532 196.19657,549.64949 C 195.06077,547.94578 193.70991,544.76768 193.70991,541.0763 C 193.70991,537.38492 193.66118,533.46423 194.79699,529.20495 C 195.9328,524.94567 196.21084,515.97682 196.21084,515.97682 C 196.21084,515.97682 211.82821,510.01383 214.66773,510.58173 C 217.50725,511.14964 230.56904,514.27311 230.56904,514.27311"
       id="path4150"
       sodipodi:nodetypes="cssssssssscsc" />
    <path
       style="fill:url(#radialGradient5191);fill-rule:evenodd;stroke:#000000;stroke-width:1.05089736px;stroke-linecap:butt;stroke-linejoin:miter;stroke-opacity:1;fill-opacity:1.0"
       d="M 188.82106,508.28522 C 188.82106,512.85361 190.90556,521.9493 197.29993,528.38611 C 202.95441,534.07812 212.50339,537.21832 219.22801,537.21832 C 225.95261,537.21832 230.04586,537.21832 235.3086,534.78184 C 240.57133,532.34538 243.78746,526.55876 244.66457,524.12229 C 245.5417,521.68582 247.58832,512.85361 247.29595,508.28523 C 247.00357,503.71684 244.66457,494.88464 239.10946,488.4889 C 233.55435,482.09317 224.78311,479.65669 219.81275,479.65669 C 214.84239,479.65669 208.99491,479.35214 202.56266,483.92052 C 196.13043,488.4889 192.91431,494.58008 191.74482,497.01655 C 190.57532,499.45302 188.82106,508.58978 188.82106,508.28522 z "
       id="path4148"
       sodipodi:nodetypes="csssssssssc" />
    <path
       sodipodi:nodetypes="ccsccsc"
       d="M 260.83667,623.15471 C 260.83667,623.15471 254.62775,623.15471 254.62775,623.15471 C 254.62775,623.15471 236.99885,600.093 237.33147,584.12721 C 237.6641,568.16141 254.62775,559.29152 254.62775,559.29152 C 254.62775,559.29152 260.83667,559.29152 260.83667,559.29152 C 260.83667,559.29152 243.87302,568.16141 243.5404,584.12721 C 243.20777,600.093 260.83667,623.15471 260.83667,623.15471 z "
       style="fill:#552200;fill-opacity:1;fill-rule:evenodd;stroke:#000000;stroke-width:0.87807411px;stroke-linecap:butt;stroke-linejoin:miter;stroke-opacity:1"
       id="path4192" />
    <path
       style="fill:none;fill-rule:evenodd;stroke:#000000;stroke-width:1px;stroke-linecap:butt;stroke-linejoin:miter;stroke-opacity:1"
       d="M 236.60351,534.16234 C 232.20226,537.14383 225.24543,539.41545 225.24543,539.41545"
       id="path4152" />
    <path
       style="fill:none;fill-rule:evenodd;stroke:#000000;stroke-width:1px;stroke-linecap:butt;stroke-linejoin:miter;stroke-opacity:1"
       d="M 220.85221,539.1425 C 217.58707,538.7876 213.20335,536.16323 211.33982,535.16717 C 209.49109,534.17902 204.66695,533.46346 204.66695,533.46346"
       id="path4154"
       sodipodi:nodetypes="csc" />
    <path
       style="fill:none;fill-rule:evenodd;stroke:#000000;stroke-width:1px;stroke-linecap:butt;stroke-linejoin:miter;stroke-opacity:1"
       d="M 227.14576,539.43685 C 230.55318,537.87511 231.12109,538.01709 231.83097,538.15907"
       id="path4156" />
    <path
       style="fill:none;fill-rule:evenodd;stroke:#000000;stroke-width:1px;stroke-linecap:butt;stroke-linejoin:miter;stroke-opacity:1"
       d="M 218.0026,539.09083 C 213.74332,539.09083 210.3359,536.53526 209.34207,536.53526 C 208.34823,536.53526 206.92847,536.53526 206.92847,536.53526"
       id="path4158" />
    <path
       style="fill:none;fill-rule:evenodd;stroke:#000000;stroke-width:1px;stroke-linecap:butt;stroke-linejoin:miter;stroke-opacity:1"
       d="M 225.22153,540.55566 C 223.37585,547.08655 224.8585,547.92142 224.57455,548.77328 C 224.2906,549.62513 221.62455,550.90292 220.63072,550.61896 C 219.63689,550.33501 217.64922,549.34118 216.65539,549.34118"
       id="path4160"
       sodipodi:nodetypes="cssc" />
    <path
       style="fill:none;fill-rule:evenodd;stroke:#000000;stroke-width:1px;stroke-linecap:butt;stroke-linejoin:miter;stroke-opacity:1"
       d="M 221.57017,552.16347 C 220.26299,552.15843 220.55502,553.14344 217.9557,553.19584 C 216.86121,553.21748 214.08215,553.17116 213.55775,552.74861 C 212.52413,551.91574 208.81753,550.80957 207.99485,552.1807"
       id="path4162"
       sodipodi:nodetypes="cssc" />
    <path
       style="fill:none;fill-rule:evenodd;stroke:#000000;stroke-width:1.05089736px;stroke-linecap:butt;stroke-linejoin:miter;stroke-opacity:1"
       d="M 246.27264,516.6606 C 244.07983,521.8381 238.96328,525.94964 238.96328,525.94964 C 238.96328,525.94964 233.40816,528.23384 228.87636,528.53839 C 224.34455,528.84295 216.01188,529.45207 208.70252,525.79736 C 201.39316,522.14266 199.20036,520.46758 196.71518,515.59464 C 194.23,510.7217 192.32956,506.61016 191.891,503.26 C 191.45243,499.90986 191.74481,497.77795 191.74481,497.77795"
       id="path4164" />
    <path
       style="fill:#ff6600;fill-opacity:1;stroke:#000000;stroke-width:0.92422736;stroke-linecap:square;stroke-linejoin:round;stroke-miterlimit:4;stroke-dashoffset:0;stroke-opacity:1"
       d="M 238.44068,612.1584 C 241.23782,610.36578 246.36134,611.83296 248.07973,614.27706 C 249.79814,616.72115 247.75,621.44637 244.95286,623.23898 C 242.15574,625.03159 236.90249,623.37995 235.18408,620.93585 C 233.46569,618.49176 235.64354,613.95102 238.44068,612.1584 z "
       id="path3297"
       sodipodi:nodetypes="cssss" />
    <path
       style="fill:#999999;fill-rule:evenodd;stroke:#000000;stroke-width:1px;stroke-linecap:butt;stroke-linejoin:miter;stroke-opacity:1"
       d="M 229.29578,590.55807 C 233.71304,585.33767 232.9099,584.9361 234.91775,584.9361 C 236.92559,584.9361 240.13814,586.54238 240.13814,586.54238 C 240.13814,586.54238 235.31931,589.75493 240.13814,589.75493 C 244.95697,589.75493 248.57108,589.35336 248.57108,587.74709 C 248.57108,586.14081 248.57108,583.32983 248.57108,583.32983 C 248.57108,583.32983 252.58677,582.12512 254.19305,584.9361 C 255.79932,587.74709 257.00403,591.36121 256.20089,595.77846 C 255.39775,600.19572 253.79148,609.4318 252.58677,612.64435 C 251.38207,615.8569 248.97265,618.66788 245.7601,618.66788 C 242.54755,618.66788 236.92559,618.26631 236.92559,618.26631 L 227.68951,609.03023"
       id="path4170" />
    <path
       style="fill:#666666;fill-opacity:1;fill-rule:evenodd;stroke:#000000;stroke-width:0.87807411px;stroke-linecap:butt;stroke-linejoin:miter;stroke-opacity:1"
       d="M 256.4983,566.60338 C 260.11918,565.50897 271.86904,562.95864 274.05978,566.91698 C 276.18377,570.75474 272.56649,589.51261 269.98301,592.632 C 267.47601,595.65906 258.48567,592.1183 257.1255,590.43682 C 255.05782,587.88071 256.25435,583.39668 256.70427,571.63941 C 257.10166,585.25835 251.87139,584.75471 250.66984,580.62997 C 248.50913,573.2126 252.28967,567.87542 256.4983,566.60338 z "
       id="path4180"
       sodipodi:nodetypes="cssscss" />
    <path
       style="fill:#aa4400;fill-rule:evenodd;stroke:#000000;stroke-width:1px;stroke-linecap:butt;stroke-linejoin:miter;stroke-opacity:1"
       d="M 256.14834,582.69026 C 248.69617,588.31699 243.22305,590.56254 240.07719,591.32763 C 236.93134,592.09272 230.6413,592.89204 229.92849,591.01498 C 229.21568,589.13793 233.41457,586.16883 236.39694,584.52082 C 239.37933,582.87279 245.61875,580.07381 250.0334,579.25645 C 254.44804,578.43908 258.92262,576.48158 258.67921,578.47463 C 258.45447,580.31476 256.70809,582.26762 256.14834,582.69026 z "
       id="path4172"
       sodipodi:nodetypes="cssssss" />
    <path
       style="fill:#6f918a;fill-rule:evenodd;stroke:#000000;stroke-width:1px;stroke-linecap:butt;stroke-linejoin:miter;stroke-opacity:1"
       d="M 181.5091,554.81845 C 182.7138,556.82629 189.54047,569.67649 189.1389,569.67649 C 194.76087,584.53454 200.7844,597.21506 205.20165,597.61663 C 209.61891,598.0182 207.44702,595.68664 208.90167,595.00537 C 213.00538,593.08343 214.21009,593.88657 217.39259,593.3991 C 223.39937,592.47903 226.88637,590.55807 230.90206,590.95964 C 234.91775,591.36121 238.93343,595.37689 239.73657,598.18788 C 240.53971,600.99886 245.35853,605.81768 243.35069,610.23494 C 241.34285,614.6522 240.13814,614.6522 237.72873,618.26631 C 235.31931,621.88043 234.91775,621.0773 232.9099,622.282 C 230.90206,623.48671 204.39958,633.53126 199.58076,633.1297 C 194.76193,632.72813 186.34074,624.01293 174.32892,609.08042 C 171.04718,605.00073 167.05262,591.76277 164.24164,588.95179 C 161.43066,586.14081 154.77606,589.57046 152.19457,582.52669 C 150.81807,578.77082 149.49919,569.82001 150.80411,564.78572"
       id="path4166"
       sodipodi:nodetypes="ccsssssssssssss" />
    <path
       style="fill:#ffcc00;fill-rule:evenodd;stroke:#000000;stroke-width:1px;stroke-linecap:butt;stroke-linejoin:miter;stroke-opacity:1"
       d="M 256.1626,580.24904 C 248.71043,585.87577 243.23731,588.12132 240.09145,588.88641 C 236.94561,589.6515 229.66173,591.58663 228.94893,589.70957 C 228.23611,587.83252 233.42883,583.72762 236.41121,582.0796 C 239.39359,580.43157 245.63301,577.63259 250.04766,576.81523 C 254.46231,575.99786 259.07887,574.75024 258.83545,576.7433 C 258.61071,578.58342 256.72235,579.8264 256.1626,580.24904 z "
       id="path4174"
       sodipodi:nodetypes="cssssss" />
    <path
       style="fill:none;fill-rule:evenodd;stroke:#000000;stroke-width:1px;stroke-linecap:butt;stroke-linejoin:miter;stroke-opacity:1"
       d="M 206.92175,597.38686 C 211.33901,602.60726 213.6346,603.80984 213.23303,605.41611 C 212.83146,607.02239 216.84715,606.62082 218.05186,604.61298 C 219.25656,602.60513 218.45343,599.79415 215.64245,596.98317"
       id="path4168"
       sodipodi:nodetypes="cssc" />
    <path
       style="fill:#b7c8be;fill-opacity:1;fill-rule:evenodd;stroke:#000000;stroke-width:1.13775575px;stroke-linecap:butt;stroke-linejoin:miter;stroke-opacity:1"
       d="M 253.05018,578.67595 C 254.41728,578.67595 263.79088,512.18836 265.70912,484.34651 C 266.4501,473.59168 262.56792,458.49548 262.56792,458.49548 C 262.56792,458.49548 253.9421,473.86244 252.14216,488.24269 C 247.8384,522.62675 235.11545,586.88924 234.54026,586.88924 C 244.06704,585.95713 248.72771,582.6047 253.05018,578.67595 z "
       id="path4176"
       sodipodi:nodetypes="cscscc" />
    <path
       sodipodi:nodetypes="cscscc"
       id="path4178"
       d="M 247.90022,582.71062 C 248.23116,581.26577 249.92643,569.52753 253.11201,546.63407 C 254.59776,535.95663 253.40454,526.61656 253.40454,526.61656 C 253.40454,526.61656 250.65587,532.72475 248.10787,546.99144 C 242.57041,577.99665 242.06014,585.61724 240.66319,585.68055 C 243.24195,585.44188 246.03409,585.99538 247.90022,582.71062 z "
       style="fill:#afe9c6;fill-opacity:1;fill-rule:evenodd;stroke:#000000;stroke-width:1.13775575px;stroke-linecap:butt;stroke-linejoin:miter;stroke-opacity:1" />
    <path
       style="fill:none;fill-rule:evenodd;stroke:#000000;stroke-width:1px;stroke-linecap:butt;stroke-linejoin:miter;stroke-opacity:1"
       d="M 142.63275,649.01731 C 146.42736,645.44591 157.81119,642.09772 157.81119,642.09772"
       id="path2222" />
    <path
       style="fill:none;fill-rule:evenodd;stroke:#000000;stroke-width:1px;stroke-linecap:butt;stroke-linejoin:miter;stroke-opacity:1"
       d="M 141.96311,651.69586 C 144.86487,649.68694 150.44518,646.56197 150.44518,646.56197"
       id="path2224" />
    <path
       style="fill:none;fill-rule:evenodd;stroke:#000000;stroke-width:1px;stroke-linecap:butt;stroke-linejoin:miter;stroke-opacity:1"
       d="M 152.23088,697.00798 C 154.23979,706.3829 161.82902,716.65068 161.82902,716.65068"
       id="path2232" />
    <path
       style="fill:none;fill-rule:evenodd;stroke:#000000;stroke-width:1px;stroke-linecap:butt;stroke-linejoin:miter;stroke-opacity:1"
       d="M 196.65016,701.69544 C 206.02508,706.60612 208.2572,707.27575 212.94467,707.05254 C 217.63213,706.82933 219.64104,703.92757 219.64104,703.92757"
       id="path2234" />
    <path
       style="fill:none;fill-rule:evenodd;stroke:#000000;stroke-width:1px;stroke-linecap:butt;stroke-linejoin:miter;stroke-opacity:1"
       d="M 129.10905,792.09222 C 110.48452,791.61871 110.01101,793.03923 108.43266,794.30191 C 106.85431,795.56459 101.80359,799.03696 102.2771,796.82727"
       id="path2242" />
    <path
       style="fill:none;fill-rule:evenodd;stroke:#000000;stroke-width:1px;stroke-linecap:butt;stroke-linejoin:miter;stroke-opacity:1"
       d="M 284.73439,790.1982 C 270.52924,789.56686 273.0546,787.98851 268.63522,790.51387 C 264.21584,793.03924 266.10986,798.08996 262.95316,797.77429"
       id="path2246" />
    <path
       style="fill:#ff6600;fill-opacity:1;fill-rule:evenodd;stroke:#000000;stroke-width:1.23565567px;stroke-linecap:butt;stroke-linejoin:miter;stroke-opacity:1"
       d="M 528.00112,716.49749 C 574.05075,717.23525 591.06265,715.75975 623.91327,709.41508 C 625.9666,804.43751 626.25984,834.39024 581.67676,897.09913 C 526.53458,837.63634 528.58775,801.63405 528.00112,716.49749 z "
       id="path2248"
       sodipodi:nodetypes="cccc" />
    <path
       sodipodi:nodetypes="cccc"
       id="path2250"
       d="M 538.56027,723.13727 C 579.24507,723.13454 595.9792,722.47782 615.99401,718.71076 C 618.04713,813.73318 615.70076,825.97986 581.67676,882.49164 C 538.85358,828.34067 539.1469,808.27381 538.56027,723.13727 z "
       style="fill:#502d16;fill-opacity:1;fill-rule:evenodd;stroke:#000000;stroke-width:1.23565567px;stroke-linecap:butt;stroke-linejoin:miter;stroke-opacity:1" />
    <path
       sodipodi:type="arc"
       style="opacity:0.5;fill:#000000;fill-opacity:0.5;fill-rule:evenodd;stroke:none;stroke-width:4;stroke-miterlimit:4;stroke-dasharray:none;stroke-opacity:1;filter:url(#filter3367)"
       id="path3373"
       sodipodi:cx="582.42926"
       sodipodi:cy="670.94489"
       sodipodi:rx="150.85617"
       sodipodi:ry="21.384251"
       d="M 733.28543 670.94489 A 150.85617 21.384251 0 1 1  431.57309,670.94489 A 150.85617 21.384251 0 1 1  733.28543 670.94489 z"
       transform="matrix(1,0,0,1.3090909,-122.08465,164.70303)" />
    <path
       style="fill:#803300;fill-rule:evenodd;stroke:#000000;stroke-width:1px;stroke-linecap:butt;stroke-linejoin:miter;stroke-opacity:1"
       d="M 435.84992,958.27148 C 429.24025,961.38191 410.96643,971.49083 409.02241,971.49083 C 407.07839,971.49083 406.68958,970.71322 407.07839,972.65725 C 407.46719,974.60127 409.02241,974.60127 409.02241,976.15649 C 409.02241,977.71171 402.80154,981.59975 404.35675,983.93258 C 405.91197,986.26541 407.85599,992.87508 408.6336,995.98552 C 409.41121,999.09596 407.46719,1001.8176 408.6336,1004.928 C 409.80002,1008.0385 412.13284,1009.9825 409.41121,1012.7041 C 406.68958,1015.4257 401.24632,1019.3138 395.02544,1016.2034 C 388.80457,1013.0929 380.63967,1000.2624 381.02848,996.37432 C 381.41728,992.48628 383.36131,990.15345 383.75011,986.65421 C 384.13892,983.15497 384.91652,982.76616 384.13892,977.71171 C 383.36131,972.65725 383.36131,967.21398 384.13892,960.99311 C 384.91652,954.77224 403.57914,951.6618 406.68958,948.94017 C 409.80002,946.21853 423.01937,937.27603 423.01937,937.27603 L 438.57156,932.22157 L 435.84992,958.27148 z "
       id="path3289" />
    <path
       style="fill:#803300;fill-rule:evenodd;stroke:#000000;stroke-width:1px;stroke-linecap:butt;stroke-linejoin:miter;stroke-opacity:1"
       d="M 370.08872,947.00509 C 365.81933,956.73929 363.2577,959.30092 363.08692,960.8379 C 362.91615,962.37487 346.18016,979.45241 345.15551,978.42776 C 344.13086,977.40311 333.5063,982.15911 332.31087,983.86687 C 331.11544,985.57462 332.51813,995.16375 331.83503,995.67607 C 331.15193,996.1884 325.58514,996.86612 324.56049,997.54922 C 323.53584,998.23232 319.75723,1004.5388 319.75723,1004.5388 C 319.75723,1004.5388 322.38228,1018.2529 323.83014,1028.2909 C 324.34732,1031.8765 319.94455,1047.1351 322.50618,1047.1351 C 325.06781,1047.1351 354.42501,1047.453 355.79122,1046.7699 C 357.15742,1046.0868 363.45995,1044.1953 361.92297,1042.3168 C 360.38599,1040.4383 355.8621,1035.9489 355.00822,1032.8749 C 354.15435,1029.801 349.64122,1025.6185 347.93347,1023.5692 C 346.22571,1021.5199 357.07993,1003.4264 353.66442,1002.7433 C 350.24891,1002.0602 365.47778,999.26239 364.28235,999.26239 C 363.08692,999.26239 365.64856,1000.4578 366.16088,999.09158 C 366.67321,997.72538 374.69965,990.72359 373.84577,989.52816 C 372.9919,988.33273 381.34372,984.09214 383.05147,982.21361 C 384.75922,980.33509 386.35583,975.86613 388.40513,974.84148 C 390.45444,973.81683 399.29131,967.32736 399.29131,967.32736 L 400.48674,965.61961 C 400.48674,965.61961 397.242,952.12835 395.8758,951.1037 C 394.5096,950.07905 383.57997,944.78501 383.57997,944.78501"
       id="path3279"
       sodipodi:nodetypes="cssssscssssssssssssccsc" />
    <path
       style="fill:#a05a2c;fill-rule:evenodd;stroke:#000000;stroke-width:1px;stroke-linecap:butt;stroke-linejoin:miter;stroke-opacity:1"
       d="M 386.48315,923.26731 C 383.23842,923.77964 383.92152,922.92576 382.55532,924.29196 C 381.18912,925.65817 372.47957,935.73391 370.94259,937.61244 C 369.40561,939.49097 366.50243,939.66175 366.50243,941.54028 C 366.50243,943.41881 374.52888,950.93292 375.7243,953.32378 C 376.91973,955.71463 378.62749,960.49634 381.53067,962.03332 C 384.43385,963.5703 384.60462,964.76573 386.31238,964.76573 C 388.02013,964.76573 392.97262,964.2534 395.02192,964.42418 C 397.07123,964.59495 404.24379,968.01046 404.75612,967.32736 C 405.26845,966.64426 421.32133,950.93292 422.34598,950.24982 C 423.37064,949.56672 423.88296,949.22517 423.37064,947.85897 C 422.85831,946.49276 417.56427,934.53849 417.56427,934.53849"
       id="path3281" />
    <path
       style="fill:#a05a2c;fill-rule:evenodd;stroke:#000000;stroke-width:1px;stroke-linecap:butt;stroke-linejoin:miter;stroke-opacity:1"
       d="M 472.78636,956.71626 C 470.45353,959.82669 469.67592,959.82669 468.1207,959.82669 C 466.56548,959.82669 459.1782,959.82669 456.06776,961.38191 C 452.95732,962.93713 447.51406,966.43637 444.01482,966.43637 C 440.51558,966.43637 440.51558,968.3804 438.57156,965.65876 C 436.62753,962.93713 430.01786,948.16256 429.24025,946.60734 C 428.46264,945.05212 428.85144,946.99614 428.85144,943.4969 C 428.85144,939.99766 430.40666,934.9432 430.40666,934.9432 C 430.40666,934.9432 445.95884,919.39102 447.51406,919.39102 C 449.06928,919.39102 461.51103,921.72385 461.51103,921.72385 L 472.78636,956.71626 z "
       id="path3287" />
    <path
       style="fill:#800000;fill-rule:evenodd;stroke:#000000;stroke-width:1px;stroke-linecap:butt;stroke-linejoin:miter;stroke-opacity:1"
       d="M 433.32269,886.34263 C 433.32269,886.34263 414.46568,889.45307 413.88247,892.75791 C 413.29926,896.06275 414.27127,897.61796 412.71605,898.00677 C 411.16083,898.39557 410.18882,897.42356 408.4392,898.39557 C 406.68958,899.36758 396.58066,908.31009 395.80305,909.2821 C 395.02544,910.25411 395.99746,909.86531 395.02544,910.83732 C 394.05343,911.80933 390.55419,910.64292 388.80457,911.42053 C 387.05495,912.19813 387.44375,911.80933 386.86055,913.75335 C 386.27734,915.69738 385.88854,917.05819 386.47174,918.0302 C 387.05495,919.00221 386.08294,921.91825 387.63816,923.27907 C 389.19338,924.63988 410.77203,939.60886 411.54964,940.58087 C 412.32725,941.55288 418.35372,943.1081 419.90894,943.1081 C 421.46415,943.1081 425.3522,939.41445 428.65704,938.44244 C 431.96188,937.47043 432.35068,938.44244 435.84992,935.52641 C 439.34917,932.61037 461.12222,919.00221 464.23266,917.25259 C 467.34309,915.50297 469.67592,915.30857 469.67592,915.30857 C 469.67592,915.30857 470.64793,900.534 469.87032,899.95079 C 469.09271,899.36758 433.32269,886.34263 433.32269,886.34263 z "
       id="path3273"
       sodipodi:nodetypes="ccssssssssssssscsc" />
    <path
       style="fill:#800000;fill-rule:evenodd;stroke:#000000;stroke-width:1px;stroke-linecap:butt;stroke-linejoin:miter;stroke-opacity:1"
       d="M 520.22052,902.28362 C 520.41492,914.72536 521.58133,913.17015 520.02611,916.66939 C 518.4709,920.16863 521.57561,918.51335 517.68757,924.53982 C 513.79952,930.56629 516.13235,938.72546 513.79952,939.50307 C 511.46669,940.28068 505.78995,952.18402 502.87392,953.15603 C 499.95788,954.12804 490.08816,960.99311 485.81131,960.6043 C 481.53446,960.2155 469.28712,956.91066 465.98228,954.96664 C 462.67744,953.02261 456.45657,945.82973 456.45657,941.74728 C 456.45657,937.66483 452.95733,928.13912 455.67896,924.63988 C 458.40059,921.14064 460.73342,919.77982 465.20467,919.77982 C 469.67592,919.77982 472.20315,921.33504 475.31359,920.16863 C 478.42402,919.00221 475.31359,920.16863 476.0912,918.41901 C 476.86881,916.66939 473.17516,909.47651 473.17516,909.47651 C 473.17516,909.47651 498.44746,895.09073 503.69632,896.25715 C 508.94518,897.42356 520.60932,902.47802 520.22052,902.28362 z "
       id="path3275"
       sodipodi:nodetypes="cssssssssssscsc" />
    <path
       style="fill:#6f918a;fill-rule:evenodd;stroke:#000000;stroke-width:1px;stroke-linecap:butt;stroke-linejoin:miter;stroke-opacity:1"
       d="M 501.9467,848.62859 C 505.05714,851.35022 505.44594,849.01739 505.05714,852.51663 C 504.66833,856.01587 501.9467,856.79348 503.11311,858.3487 C 504.27953,859.90392 507.00116,858.73751 508.94518,861.07033 C 510.88921,863.40316 509.72279,866.5136 510.88921,869.23523 C 512.05562,871.95686 522.55334,889.06426 522.55334,891.78589 C 522.55334,894.50753 524.49737,900.3396 520.22052,902.28362 C 515.94367,904.22764 503.11311,915.11417 496.11463,915.11417 C 489.11615,915.11417 476.6744,919.77982 462.67744,912.39254 C 448.68047,905.00525 427.29622,894.50753 422.63057,894.50753 C 417.96491,894.50753 410.18882,892.5635 410.18882,892.5635 C 410.18882,892.5635 421.07535,883.621 422.63057,882.45459 C 424.18579,881.28817 426.90742,868.06882 429.62905,866.12479 C 432.35068,864.18077 431.96188,864.56958 432.35068,862.62555 C 432.73949,860.68153 429.62905,862.23675 433.9059,859.12631 C 438.18275,856.01587 443.23721,847.85098 445.57004,845.90696 C 447.90287,843.96293 449.84689,843.96293 449.84689,843.96293 L 501.9467,848.62859 z "
       id="path3271" />
    <path
       style="fill:#803300;fill-rule:evenodd;stroke:#000000;stroke-width:1px;stroke-linecap:butt;stroke-linejoin:miter;stroke-opacity:1"
       d="M 449.02878,839.63199 C 449.02878,845.62972 447.13476,850.99611 447.13476,850.99611 C 447.13476,850.99611 455.65785,858.57219 474.28238,858.57219 C 492.90691,858.57219 498.58898,856.67817 500.79867,853.83714 C 503.00836,850.99611 499.53599,848.78642 500.483,845.62972 C 501.43001,842.47302 499.53599,846.8924 489.11887,846.8924 C 478.70176,846.8924 453.76383,838.68498 453.76383,838.68498 L 449.02878,839.63199 z "
       id="path2298" />
    <path
       style="fill:#6f918a;fill-opacity:1;fill-rule:evenodd;stroke:#000000;stroke-width:0.87807411px;stroke-linecap:butt;stroke-linejoin:miter;stroke-opacity:1"
       d="M 467.75225,743.03882 C 488.6717,734.87046 514.58875,751.74196 521.99995,749.27513 C 525.91191,749.52993 540.97633,754.83555 542.57357,760.93271 C 553.13699,757.35838 569.26999,762.07171 576.21381,759.29146 C 583.24846,756.47484 584.61453,774.86026 575.74312,780.72507 C 562.37344,789.56366 535.04916,792.86951 526.6308,783.47471 C 527.90842,799.99359 526.94711,803.54637 522.79427,811.12584 C 519.56547,826.16397 508.84562,825.01426 513.68005,835.4969 C 512.55612,839.08038 512.09837,844.37461 509.17876,846.18831 C 479.61041,863.63506 450.50192,836.87898 445.4378,838.99485 C 441.48843,836.16879 441.2277,826.75039 440.4437,824.7708 C 466.14311,780.97458 457.71933,744.98631 467.75225,743.03882 z "
       id="path2278"
       sodipodi:nodetypes="ccczsccccccc" />
    <path
       id="path2252"
       style="fill:#552200;fill-opacity:1;fill-rule:evenodd;stroke:#000000;stroke-width:1.12167633px;stroke-linecap:butt;stroke-linejoin:miter;stroke-opacity:1"
       d="M 595.38135,803.87937 C 595.38135,803.87937 585.24824,803.87937 585.24824,803.87937 C 585.24824,803.87937 576.76855,775.05678 577.31139,759.09304 C 577.85423,743.12932 587.41966,740.02443 587.41966,740.02443 C 587.41966,740.02443 597.55278,740.02443 597.55278,740.02443 C 597.55278,740.02443 587.55523,742.90719 587.01238,758.87091 C 586.46952,774.83465 595.38135,803.87937 595.38135,803.87937 z "
       sodipodi:nodetypes="ccsccsc" />
    <path
       sodipodi:nodetypes="ccsccsc"
       d="M 570.77226,804.32281 C 570.77226,804.32281 560.63909,804.32281 560.63909,804.32281 C 560.63909,804.32281 550.01954,781.04195 550.56241,765.07823 C 551.10527,749.11449 560.63909,740.46787 560.63909,740.46787 C 560.63909,740.46787 570.77226,740.46787 570.77226,740.46787 C 570.77226,740.46787 560.80626,748.89236 560.2634,764.8561 C 559.72054,780.81982 570.77226,804.32281 570.77226,804.32281 z "
       style="fill:#552200;fill-opacity:1;fill-rule:evenodd;stroke:#000000;stroke-width:1.12167633px;stroke-linecap:butt;stroke-linejoin:miter;stroke-opacity:1"
       id="path2254" />
    <path
       style="fill:#666666;fill-rule:evenodd;stroke:#000000;stroke-width:1px;stroke-linecap:butt;stroke-linejoin:miter;stroke-opacity:1"
       d="M 471.52631,741.27381 C 480.40855,747.06193 483.91146,749.59877 485.10047,753.36009 C 486.28948,757.12143 488.64049,763.47363 489.11507,769.1114 C 489.58964,774.74916 487.32299,789.95658 489.16395,792.11847 C 491.00491,794.28035 493.48091,800.07857 502.19258,801.46187 C 510.90426,802.84517 518.06866,796.46203 521.80297,794.10257 C 525.53728,791.7431 534.72684,772.01494 534.3063,768.71808 C 533.88576,765.42121 534.36754,756.90713 532.57216,759.70404 C 530.77678,762.50097 502.79915,747.16505 502.79915,747.16505 C 502.79915,747.16505 505.82417,726.01585 504.87667,723.76446 C 503.92917,721.51306 504.75004,715.2943 504.75004,715.2943 C 504.75004,715.2943 506.36639,710.71047 504.696,712.95339 C 503.0256,715.19633 498.01442,721.92515 497.327,724.97204 C 496.63958,728.01893 495.0688,737.56157 492.47793,738.72356 C 489.88705,739.88556 482.76637,739.84763 480.85445,740.58063 C 478.94254,741.31363 474.45666,739.89732 473.16124,740.47831 C 471.86579,741.05932 471.46382,741.5508 471.52631,741.27381 z "
       id="path2256"
       sodipodi:nodetypes="cssssssscscsssssc" />
    <path
       style="fill:#ffb380;fill-rule:evenodd;stroke:#000000;stroke-width:1px;stroke-linecap:butt;stroke-linejoin:miter;stroke-opacity:1"
       d="M 546.30182,742.7165 C 545.73939,745.20941 545.98936,744.10145 544.84593,745.29892 C 543.70249,746.49639 541.97805,746.39843 541.32611,747.99787 C 540.67416,749.59732 538.46835,755.50362 536.24398,757.62157 C 534.0196,759.73952 528.30243,765.72687 525.43456,766.82638 C 522.5667,767.92589 518.73442,772.00979 513.65064,772.60934 C 511.93531,772.81164 507.75685,771.63831 505.7909,770.03041 C 503.82496,768.4225 498.67648,758.92226 497.94347,757.01035 C 497.21048,755.09845 496.59218,751.70097 497.40459,748.1001 C 498.217,744.49922 499.03234,740.66394 501.07769,736.75906 C 503.12305,732.85419 505.36816,724.16643 505.36816,724.16643 C 505.36816,724.16643 521.91496,721.78676 524.55987,722.96566 C 527.20478,724.14458 539.25889,730.06613 539.25889,730.06613"
       id="path2258"
       sodipodi:nodetypes="cssssssssscsc" />
    <path
       style="fill:url(#radialGradient2276);fill-opacity:1;fill-rule:evenodd;stroke:#000000;stroke-width:1.05089736px;stroke-linecap:butt;stroke-linejoin:miter;stroke-opacity:1"
       d="M 499.85235,715.03706 C 498.84693,719.49344 498.87852,728.82488 503.69948,736.51115 C 507.9626,743.30805 516.58635,748.47282 523.14609,749.95279 C 529.70582,751.43276 533.6987,752.33361 539.36864,751.11511 C 545.03855,749.89662 549.44936,744.95969 550.84119,742.776 C 552.23304,740.59231 556.17329,732.42708 556.89351,727.90636 C 557.61372,723.38564 557.27588,714.25522 553.26456,706.79371 C 549.25325,699.33222 541.23329,695.02508 536.3848,693.93119 C 531.5363,692.8373 525.89922,691.25329 518.61926,694.29404 C 511.33932,697.33479 506.8615,702.56881 505.18446,704.68815 C 503.50741,706.8075 499.78532,715.33415 499.85235,715.03706 z "
       id="path2260"
       sodipodi:nodetypes="csssssssssc" />
    <path
       style="fill:none;fill-rule:evenodd;stroke:#000000;stroke-width:1px;stroke-linecap:butt;stroke-linejoin:miter;stroke-opacity:1"
       d="M 540.76814,750.79578 C 535.81863,752.73553 528.53243,753.42038 528.53243,753.42038"
       id="path2262" />
    <path
       style="fill:none;fill-rule:evenodd;stroke:#000000;stroke-width:1px;stroke-linecap:butt;stroke-linejoin:miter;stroke-opacity:1"
       d="M 524.30699,752.18725 C 521.20002,751.12245 517.50136,747.59765 515.90273,746.21588 C 514.31681,744.84509 509.76843,743.08537 509.76843,743.08537"
       id="path2264"
       sodipodi:nodetypes="csc" />
    <path
       style="fill:none;fill-rule:evenodd;stroke:#000000;stroke-width:1px;stroke-linecap:butt;stroke-linejoin:miter;stroke-opacity:1"
       d="M 530.38145,753.85949 C 534.04904,753.08595 534.57178,753.34944 535.233,753.64417"
       id="path2266" />
    <path
       style="fill:none;fill-rule:evenodd;stroke:#000000;stroke-width:1px;stroke-linecap:butt;stroke-linejoin:miter;stroke-opacity:1"
       d="M 521.53862,751.5097 C 517.38378,750.57231 514.62234,747.32948 513.65287,747.11076 C 512.6834,746.89203 511.29845,746.57957 511.29845,746.57957"
       id="path2268" />
    <path
       style="fill:none;fill-rule:evenodd;stroke:#000000;stroke-width:1px;stroke-linecap:butt;stroke-linejoin:miter;stroke-opacity:1"
       d="M 528.25817,754.52737 C 525.02041,760.49193 526.28297,761.63264 525.8185,762.40112 C 525.35404,763.16959 522.47213,763.8293 521.56517,763.33358 C 520.6582,762.83787 518.93799,761.43095 517.96852,761.21223"
       id="path2270"
       sodipodi:nodetypes="cssc" />
    <path
       style="fill:none;fill-rule:evenodd;stroke:#000000;stroke-width:1px;stroke-linecap:butt;stroke-linejoin:miter;stroke-opacity:1"
       d="M 522.14166,765.04698 C 520.86764,764.75437 520.93573,765.7795 518.38861,765.25855 C 517.31619,765.03878 514.61546,764.38198 514.19692,763.85438 C 513.37194,762.81445 509.99967,760.91964 508.8954,762.07609"
       id="path2272"
       sodipodi:nodetypes="cssc" />
    <path
       style="fill:none;fill-rule:evenodd;stroke:#000000;stroke-width:1.05089736px;stroke-linecap:butt;stroke-linejoin:miter;stroke-opacity:1"
       d="M 554.05202,735.85117 C 550.77349,740.41912 544.87752,743.30379 544.87752,743.30379 C 544.87752,743.30379 538.95589,744.3094 534.46818,743.60912 C 529.98045,742.90884 521.71803,741.66915 515.39223,736.49539 C 509.06642,731.32163 507.29604,729.20503 505.94424,723.90462 C 504.59244,718.60421 503.64348,714.17523 503.95298,710.81069 C 504.26247,707.44617 505.01688,705.43088 505.01688,705.43088"
       id="path2274" />
    <path
       style="fill:#ff6600;fill-opacity:1;stroke:#000000;stroke-width:1.01525688;stroke-linecap:square;stroke-linejoin:round;stroke-miterlimit:4;stroke-dashoffset:0;stroke-opacity:1"
       d="M 371.64791,820.46397 C 368.27264,818.67135 362.09016,820.13853 360.0166,822.58263 C 357.94302,825.02672 360.41448,829.75194 363.78975,831.54455 C 367.16499,833.33716 373.50402,831.68552 375.5776,829.24142 C 377.65116,826.79733 375.02317,822.25659 371.64791,820.46397 z "
       id="path2292"
       sodipodi:nodetypes="cssss" />
    <path
       style="fill:#b3b3b3;fill-rule:evenodd;stroke:#000000;stroke-width:1px;stroke-linecap:butt;stroke-linejoin:miter;stroke-opacity:1"
       d="M 385.30533,838.13086 C 379.86207,844.93494 372.47478,849.9894 372.47478,849.9894 C 372.47478,849.9894 375.19641,851.54462 371.11396,849.9894 C 367.03151,848.43419 368.39233,848.04538 365.6707,848.23978 C 362.94907,848.43419 364.50429,851.54462 361.39385,849.9894 C 358.28341,848.43419 354.20097,852.90543 353.81216,849.795 C 353.42336,846.68456 352.84015,842.99092 354.78417,842.21331 C 356.7282,841.4357 356.7282,841.0469 356.9226,838.90848 C 357.117,836.77005 357.7002,832.6876 359.44982,831.32679 C 361.19944,829.96597 361.97706,826.85553 363.53228,825.49471 C 365.0875,824.13389 376.36282,822.38427 376.36282,822.38427 L 381.22288,822.77308 L 385.30533,838.13086 z "
       id="path2294"
       sodipodi:nodetypes="ccssssssssccc" />
    <path
       style="fill:#ff6600;fill-opacity:1;stroke:#000000;stroke-width:1.01525688;stroke-linecap:square;stroke-linejoin:round;stroke-miterlimit:4;stroke-dashoffset:0;stroke-opacity:1"
       d="M 381.35598,835.45619 C 378.70279,833.72563 364.61717,841.64516 356.10225,848.85781 C 347.58726,856.07049 342.90282,865.3036 345.55605,867.03418 C 348.20923,868.76475 362.93754,860.30084 371.45251,853.08816 C 379.96745,845.87551 384.0092,837.18678 381.35598,835.45619 z "
       id="path2286"
       sodipodi:nodetypes="cssss" />
    <path
       sodipodi:nodetypes="cssss"
       id="path2284"
       d="M 380.38788,838.34422 C 377.73467,836.61365 363.64904,844.53316 355.13413,851.74581 C 346.61915,858.95846 341.93472,868.19161 344.58793,869.92219 C 347.24112,871.65276 361.96945,863.18882 370.48441,855.97615 C 378.99933,848.7635 383.04107,840.07479 380.38788,838.34422 z "
       style="fill:#ffff00;fill-opacity:1;stroke:#000000;stroke-width:1.01525688;stroke-linecap:square;stroke-linejoin:round;stroke-miterlimit:4;stroke-dashoffset:0;stroke-opacity:1" />
    <path
       style="fill:#b7c8be;fill-opacity:1;fill-rule:evenodd;stroke:#000000;stroke-width:1.01525688px;stroke-linecap:butt;stroke-linejoin:miter;stroke-opacity:1"
       d="M 352.30868,860.41124 C 351.18679,860.41124 344.87851,896.53756 344.647,915.86307 C 344.55712,923.36599 352.81696,933.96359 352.81696,933.96359 C 352.81696,933.96359 360.04381,923.80382 361.58969,913.76098 C 365.41786,888.89114 373.14016,842.73909 373.92718,842.68846 C 366.72715,848.57304 360.48675,850.859 352.30868,860.41124 z "
       id="path2280"
       sodipodi:nodetypes="cscscc" />
    <path
       sodipodi:nodetypes="cscscc"
       id="path2282"
       d="M 357.42726,854.81165 C 357.25348,854.98543 355.43463,867.3835 352.89896,885.51294 C 352.30545,889.75638 353.9471,894.82039 353.9471,894.82039 C 353.9471,894.82039 358.01694,889.90706 358.59985,884.726 C 361.26898,861.00198 365.18202,849.86871 365.18207,849.0911 C 361.98623,849.80083 359.0686,851.31678 357.42726,854.81165 z "
       style="fill:#afe9c6;fill-opacity:1;fill-rule:evenodd;stroke:#000000;stroke-width:1.01525688px;stroke-linecap:butt;stroke-linejoin:miter;stroke-opacity:1" />
    <path
       sodipodi:nodetypes="cccsscc"
       id="path2290"
       d="M 474.64667,779.09556 C 452.3379,788.79987 425.59521,812.63015 425.59521,812.63015 C 425.59521,812.63015 405.20331,827.89267 393.26336,842.0695 C 378.35455,840.04344 380.8395,827.99277 380.63861,822.28568 C 380.63861,822.28568 390.39654,811.25672 392.94272,808.15416 C 396.72223,803.54876 399.38608,798.89843 414.5435,787.51411 C 429.70038,776.12737 449.74095,750.82419 467.54632,743.67582"
       style="fill:#6f918a;fill-opacity:1;fill-rule:evenodd;stroke:#000000;stroke-width:0.87807411px;stroke-linecap:butt;stroke-linejoin:miter;stroke-opacity:1" />
    <path
       style="fill:#999999;fill-opacity:1;fill-rule:evenodd;stroke:#000000;stroke-width:0.87807411px;stroke-linecap:butt;stroke-linejoin:miter;stroke-opacity:1"
       d="M 576.55587,755.0625 C 580.17675,753.96809 591.92661,751.41776 594.11735,755.3761 C 596.24134,759.21386 592.62406,777.97173 590.04058,781.09112 C 587.53358,784.11818 578.54324,780.57742 577.18307,778.89594 C 575.11539,776.33983 576.31192,771.8558 576.76184,760.09853 C 577.15923,773.71747 571.92896,773.21383 570.72741,769.08909 C 568.5667,761.67172 572.34724,756.33454 576.55587,755.0625 z "
       id="path2296"
       sodipodi:nodetypes="cssscss" />
    <path
       style="fill:none;fill-rule:evenodd;stroke:#000000;stroke-width:1px;stroke-linecap:butt;stroke-linejoin:miter;stroke-opacity:1"
       d="M 475.89679,918.2246 C 478.42402,926.3895 488.92174,928.52793 487.36653,931.05516 C 485.81131,933.58239 482.89528,928.52792 481.53446,928.13912"
       id="path3277"
       sodipodi:nodetypes="csc" />
    <path
       style="fill:#afe9dd;fill-rule:evenodd;stroke:none;stroke-width:1px;stroke-linecap:butt;stroke-linejoin:miter;stroke-opacity:1;fill-opacity:0.5"
       d="M 351.47933,934.16559 C 451.0133,930.27755 566.09945,928.72233 623.64253,907.72689 C 681.18561,886.73144 730.17498,846.29576 735.61825,815.969 C 741.06151,785.64225 727.84216,759.98115 714.6228,743.65135 C 701.40345,727.32156 635.30667,686.10828 609.64557,682.22023 C 583.98446,678.33219 577.76359,677.55458 577.76359,677.55458 C 577.76359,677.55458 625.97536,696.2172 650.85885,719.54547 C 675.74234,742.87374 685.85126,773.2005 685.07365,791.86312 C 684.29604,810.52574 680.408,840.07489 648.52602,862.62555 C 616.64405,885.17622 581.65164,906.17167 513.99964,916.28059 C 428.04933,929.12374 351.47933,934.9432 351.47933,934.16559 z "
       id="path2300"
       sodipodi:nodetypes="csssscssssc" />
    <path
       style="fill:none;fill-rule:evenodd;stroke:#000000;stroke-width:1px;stroke-linecap:butt;stroke-linejoin:miter;stroke-opacity:1"
       d="M 356.14499,1034.866 C 340.98161,1029.4227 333.20552,1023.5906 333.20552,1023.5906"
       id="path3285" />
    <path
       style="fill:#803300;fill-rule:evenodd;stroke:#000000;stroke-width:1px;stroke-linecap:butt;stroke-linejoin:miter;stroke-opacity:1"
       d="M 130.63834,893.72992 C 124.41746,890.61948 120.91822,888.28665 120.14061,884.78741 C 119.363,881.28817 120.52942,876.23371 117.80778,874.28969 C 115.08615,872.34567 107.69887,868.84643 104.58843,871.56806 C 101.47799,874.28969 97.589947,875.0673 97.201143,878.56654 C 96.812338,882.06578 96.034729,892.5635 93.701902,896.45155 C 91.369074,900.3396 83.592983,899.17318 83.204178,902.67242 C 82.815374,906.17166 80.871351,908.50449 83.204178,908.50449 C 85.537006,908.50449 92.146683,910.83732 93.701902,910.83732 C 95.25712,910.83732 103.81082,910.83732 106.92126,908.8933 C 110.03169,906.94927 110.8093,903.83884 110.8093,906.56047 C 110.8093,909.2821 107.69887,910.83732 112.36452,910.83732 C 117.03018,910.83732 117.03018,912.00373 118.58539,912.00373 C 120.14061,912.00373 131.41594,894.50753 130.63834,893.72992 z "
       id="path3325" />
    <path
       style="fill:#a05a2c;fill-rule:evenodd;stroke:#000000;stroke-width:1px;stroke-linecap:butt;stroke-linejoin:miter;stroke-opacity:1"
       d="M 152.41139,895.28514 C 147.74574,891.00829 153.57781,892.95231 146.19052,890.61948 C 138.80323,888.28665 137.24801,885.56502 135.6928,886.34263 C 134.13758,887.12024 129.47192,894.50753 126.75029,896.45155 C 124.02866,898.39557 117.80778,899.95079 117.03018,903.83884 C 116.25257,907.72688 114.69735,907.72688 117.41898,910.83732 C 120.14061,913.94776 124.41746,915.50297 126.75029,914.33656 C 129.08312,913.17015 151.24498,902.28362 151.24498,902.28362 L 152.41139,895.28514 z "
       id="path3319" />
    <path
       style="fill:#800000;fill-rule:evenodd;stroke:#000000;stroke-width:1px;stroke-linecap:butt;stroke-linejoin:miter;stroke-opacity:1"
       d="M 155.91063,895.67394 C 148.13454,894.89633 150.07856,894.89633 143.46889,895.28514 C 136.85921,895.67394 136.85921,894.89633 134.13758,898.39557 C 131.41594,901.89481 128.30551,908.11569 129.47192,910.83732 C 130.63834,913.55895 149.68976,907.33808 149.68976,907.33808 L 160.96509,899.56199 L 155.91063,895.67394 z "
       id="path3317" />
    <path
       style="fill:#6f918a;fill-rule:evenodd;stroke:#000000;stroke-width:1px;stroke-linecap:butt;stroke-linejoin:miter;stroke-opacity:1"
       d="M 178.07249,902.67242 C 170.2964,895.28514 167.96357,894.11872 163.68672,894.50753 C 159.40987,894.89633 142.30247,901.1172 138.41443,903.45003 C 134.52638,905.78286 119.75181,907.72688 118.19659,912.00373 C 116.64137,916.28058 118.9742,920.16863 115.86376,925.61189 C 112.75333,931.05516 108.08767,934.9432 109.64289,938.05364 C 111.19811,941.16408 108.86528,945.05212 112.36452,946.99614 C 115.86376,948.94017 125.97268,952.43941 125.97268,952.43941 C 125.97268,952.43941 154.35541,947.77375 156.29944,946.60734 C 158.24346,945.44093 177.68369,903.06123 178.07249,902.67242 z "
       id="path3315" />
    <path
       style="fill:#803300;fill-rule:evenodd;stroke:#000000;stroke-width:1px;stroke-linecap:butt;stroke-linejoin:miter;stroke-opacity:1"
       d="M 176.51728,901.89481 C 168.35238,900.3396 163.68672,900.3396 161.3539,902.67242 C 159.02107,905.00525 143.08008,911.61493 141.13606,915.50297 C 139.19204,919.39102 135.69279,931.44396 138.02562,937.66483 C 139.06532,940.43735 146.96813,943.1081 146.96813,943.1081 L 176.51728,901.89481 z "
       id="path3313"
       sodipodi:nodetypes="cssscc" />
    <path
       style="fill:#6f918a;fill-rule:evenodd;stroke:#000000;stroke-width:1px;stroke-linecap:butt;stroke-linejoin:miter;stroke-opacity:1"
       d="M 236.39318,934.9432 C 236.39318,929.49994 240.28122,930.27755 235.61557,925.61189 C 230.94991,920.94624 211.50969,908.50449 202.17838,906.17166 C 192.84707,903.83884 188.95902,903.06123 183.51576,903.06123 C 178.07249,903.06123 168.74118,899.95079 164.85314,903.83884 C 160.96509,907.72688 148.52335,914.72536 145.41291,918.61341 C 142.30247,922.50146 138.41443,934.16559 141.52486,938.05364 C 144.6353,941.94168 144.6353,936.49842 146.19052,943.4969 C 147.74574,950.49539 149.30096,971.49083 155.52183,971.49083 C 161.7427,971.49083 160.18748,973.82366 167.96357,971.49083 C 175.73967,969.158 191.29185,966.82518 191.29185,966.82518 L 236.39318,934.9432 z "
       id="path3303" />
    <path
       style="fill:#666666;fill-rule:evenodd;stroke:#000000;stroke-width:1px;stroke-linecap:butt;stroke-linejoin:miter;stroke-opacity:1"
       d="M 234.44916,988.98704 C 230.56111,992.09747 225.11785,992.09747 223.17382,992.09747 C 221.2298,992.09747 209.17686,990.93106 203.34479,987.43182 C 197.51272,983.93258 200.23435,983.15497 196.34631,982.76616 C 192.45826,982.37736 192.45826,985.8766 190.51424,982.37736 C 188.57022,978.87812 188.18141,972.65725 186.23739,971.87964 C 184.29337,971.10203 187.79261,971.49083 183.90456,971.49083 C 180.01652,971.49083 172.62923,971.49083 172.62923,969.93561 C 172.62923,968.3804 178.07249,967.99159 180.01652,966.04757 C 181.96054,964.10355 186.62619,954.38343 185.84858,951.6618 C 185.07098,948.94017 181.57173,949.32897 181.57173,946.60734 C 181.57173,943.88571 183.51576,946.99614 181.57173,940.77527 C 179.62771,934.5544 178.07249,937.66483 178.4613,932.61037 C 178.8501,927.55592 176.90608,927.94472 180.01652,925.61189 C 183.12695,923.27907 185.84858,917.447 197.51272,918.22461 C 209.17686,919.00221 212.6761,919.77982 216.17534,922.89026 C 219.67458,926.0007 230.17231,931.44396 230.17231,931.44396 L 234.44916,988.98704 z "
       id="path3301" />
    <path
       style="fill:#b3b3b3;fill-rule:evenodd;stroke:#000000;stroke-width:1px;stroke-linecap:butt;stroke-linejoin:miter;stroke-opacity:1"
       d="M 278.77288,966.82518 C 284.99375,971.10203 283.82734,969.158 288.10419,974.21246 C 292.38104,979.26692 290.82582,978.87812 288.8818,981.59975 C 286.93777,984.32138 283.43853,992.48628 279.93929,990.54226 C 276.44005,988.59823 272.94081,983.54377 270.60798,983.15497 C 268.27515,982.76616 264.77591,983.15497 264.77591,983.15497 L 262.83189,987.04301 C 262.83189,987.04301 262.44309,992.48628 260.49906,991.70867 C 258.55504,990.93106 254.27819,992.09747 254.27819,988.98704 C 254.27819,985.8766 253.88938,981.21095 253.88938,978.87812 C 253.88938,976.54529 252.72297,972.65725 253.88938,970.32442 C 255.0558,967.99159 263.9983,962.15952 265.55352,962.15952 C 267.10874,962.15952 272.1632,959.43789 272.94081,960.99311 C 273.71842,962.54833 279.55049,967.21398 278.77288,966.82518 z "
       id="path3351" />
    <path
       style="fill:#6f918a;fill-rule:evenodd;stroke:#000000;stroke-width:1px;stroke-linecap:butt;stroke-linejoin:miter;stroke-opacity:1"
       d="M 249.22373,948.16256 C 263.6095,959.04909 272.94081,957.88267 275.27364,960.6043 C 277.60646,963.32594 283.04973,968.3804 277.21766,966.82518 C 271.38559,965.26996 270.99679,960.99311 265.94233,966.04757 C 260.88787,971.10203 259.72145,976.15649 258.16623,977.71171 C 256.61102,979.26692 251.16775,981.21095 250.77895,978.10051 C 250.39014,974.99007 246.11329,973.04605 246.11329,973.04605 C 246.11329,973.04605 236.78198,961.77072 237.9484,959.04909 C 239.11481,956.32745 249.22373,948.16256 249.22373,948.16256 z "
       id="path3349" />
    <path
       style="fill:url(#radialGradient3295);fill-opacity:1;fill-rule:evenodd;stroke:#000000;stroke-width:1.05089736px;stroke-linecap:butt;stroke-linejoin:miter;stroke-opacity:1"
       d="M 194.28128,952.36684 C 193.27586,956.82322 193.30745,966.15466 198.12841,973.84093 C 202.39153,980.63783 211.01528,985.8026 217.57502,987.28257 C 224.13475,988.76254 228.12763,989.66339 233.79757,988.44489 C 239.46748,987.2264 243.87829,982.28947 245.27012,980.10578 C 246.66197,977.92209 250.60222,969.75686 251.32244,965.23614 C 252.04265,960.71542 251.70481,951.585 247.69349,944.12349 C 243.68218,936.662 235.66222,932.35486 230.81373,931.26097 C 225.96523,930.16708 220.32815,928.58307 213.04819,931.62382 C 205.76825,934.66457 201.29043,939.89859 199.61339,942.01793 C 197.93634,944.13728 194.21425,952.66393 194.28128,952.36684 z "
       id="path3291"
       sodipodi:nodetypes="csssssssssc" />
    <path
       style="fill:none;fill-rule:evenodd;stroke:#000000;stroke-width:1.05089736px;stroke-linecap:butt;stroke-linejoin:miter;stroke-opacity:1"
       d="M 248.48095,973.18095 C 245.20242,977.7489 239.30645,980.63357 239.30645,980.63357 C 239.30645,980.63357 233.38482,981.63918 228.89711,980.9389 C 224.40938,980.23862 216.14696,978.99893 209.82116,973.82517 C 203.49535,968.65141 201.72497,966.53481 200.37317,961.2344 C 199.02137,955.93399 198.07241,951.50501 198.38191,948.14047 C 198.6914,944.77595 199.44581,942.76066 199.44581,942.76066"
       id="path3293" />
    <path
       style="fill:#ff6600;fill-rule:evenodd;stroke:#000000;stroke-width:1px;stroke-linecap:butt;stroke-linejoin:miter;stroke-opacity:1"
       d="M 279.55049,947.77375 C 274.10722,947.38495 268.27515,943.88571 265.55352,941.94168 C 262.83189,939.99766 251.16776,930.66635 241.83645,927.55592 C 232.50514,924.44548 223.17382,925.22309 220.45219,923.27907 C 217.73056,921.33504 217.34175,919.77982 214.62012,917.05819 C 211.89849,914.33656 196.34631,904.61645 184.29337,898.78438 C 172.24042,892.95231 147.74574,889.06426 146.19052,889.06426 C 144.6353,889.06426 142.69128,888.28665 144.6353,886.73144 C 146.57932,885.17622 145.80171,884.39861 153.96661,884.39861 C 162.13151,884.39861 193.23587,887.12024 216.17534,897.22916 C 239.11481,907.33808 268.74161,928.56979 272.94081,933.77679 C 282.66092,945.82973 279.55049,947.38495 279.55049,947.77375 z "
       id="path3299"
       sodipodi:nodetypes="cssssssssssc" />
    <path
       style="fill:#b7c8be;fill-opacity:1;fill-rule:evenodd;stroke:#000000;stroke-width:1.13775575px;stroke-linecap:butt;stroke-linejoin:miter;stroke-opacity:1"
       d="M 158.98664,1013.7966 C 159.38142,1015.1055 225.74328,1004.8798 252.95292,998.67626 C 263.46354,996.27991 276.79553,988.20373 276.79553,988.20373 C 276.79553,988.20373 259.59233,984.38299 245.30494,986.81238 C 211.14292,992.62121 145.94415,998.99766 145.77805,998.44696 C 149.42154,1007.2988 153.977,1010.7928 158.98664,1013.7966 z "
       id="path3345"
       sodipodi:nodetypes="cscscc" />
    <path
       sodipodi:nodetypes="cscscc"
       id="path3347"
       d="M 152.08143,1008.476 C 153.56024,1008.3756 165.28801,1006.6089 188.12605,1003.0477 C 198.77764,1001.3868 207.37523,997.54716 207.37523,997.54716 C 207.37523,997.54716 200.73352,996.67944 186.33885,998.35986 C 155.05549,1002.0119 147.61219,1003.724 147.14819,1002.4049 C 148.1213,1004.8049 148.39768,1007.6379 152.08143,1008.476 z "
       style="fill:#afe9c6;fill-opacity:1;fill-rule:evenodd;stroke:#000000;stroke-width:1.13775575px;stroke-linecap:butt;stroke-linejoin:miter;stroke-opacity:1" />
    <path
       style="fill:#ffcc00;fill-rule:evenodd;stroke:#000000;stroke-width:1px;stroke-linecap:butt;stroke-linejoin:miter;stroke-opacity:1"
       d="M 158.37934,1017.2307 C 150.84026,1011.7209 147.10993,1007.1294 145.46898,1004.3385 C 143.82804,1001.5476 139.87198,995.13278 141.46318,993.90832 C 143.05446,992.6838 148.48401,996.46991 150.92303,998.84936 C 153.36206,1001.2288 157.8436,1006.3941 159.90102,1010.3847 C 161.95843,1014.3752 164.48602,1018.4348 162.50754,1018.7773 C 160.68094,1019.0935 158.94558,1017.6446 158.37934,1017.2307 z "
       id="path3343"
       sodipodi:nodetypes="cssssss" />
    <path
       style="fill:#aa4400;fill-rule:evenodd;stroke:#000000;stroke-width:1px;stroke-linecap:butt;stroke-linejoin:miter;stroke-opacity:1"
       d="M 156.03803,1017.922 C 148.49895,1012.4122 144.76862,1007.8207 143.12767,1005.0298 C 141.48672,1002.2389 138.90507,996.44758 140.49626,995.22311 C 142.08755,993.99861 146.14269,997.16126 148.58172,999.54066 C 151.02074,1001.9201 155.50228,1007.0854 157.5597,1011.076 C 159.61702,1015.0665 162.78327,1018.7852 160.80488,1019.1277 C 158.97828,1019.4439 156.60427,1018.3359 156.03803,1017.922 z "
       id="path3341"
       sodipodi:nodetypes="cssssss" />
    <path
       style="fill:#b3b3b3;fill-rule:evenodd;stroke:#000000;stroke-width:1px;stroke-linecap:butt;stroke-linejoin:miter;stroke-opacity:1"
       d="M 132.77676,990.15345 C 135.30399,994.81911 152.60579,1002.4008 152.8002,1003.5672 C 153.80074,1009.5702 157.46585,1011.5377 154.74422,1014.2593 C 152.02259,1016.981 150.66177,1015.8146 147.35693,1018.3418 C 144.05209,1020.869 147.55133,1023.2018 140.94166,1023.3962 C 134.33198,1023.5906 132.38796,1023.9794 130.24953,1021.841 C 128.11111,1019.7026 127.13909,1021.6466 126.94469,1017.5642 C 126.75029,1013.4817 129.08312,1013.0929 126.36149,1010.3713 C 123.63985,1007.6497 121.69583,1005.3168 118.58539,1005.3168 C 115.47496,1005.3168 115.86376,1006.0944 115.28056,1004.928 C 114.69735,1003.7616 114.11414,998.12394 114.30854,996.37432 C 114.50295,994.6247 119.75181,987.62622 119.75181,987.62622 L 132.77676,990.15345 z "
       id="path3311"
       sodipodi:nodetypes="csssssssssscc" />
    <path
       style="fill:#6f918a;fill-rule:evenodd;stroke:#000000;stroke-width:1px;stroke-linecap:butt;stroke-linejoin:miter;stroke-opacity:1"
       d="M 173.40684,968.3804 C 164.07553,973.82366 173.40684,970.71322 159.40987,972.26844 C 145.41291,973.82366 131.41594,979.26692 131.41594,979.26692 C 131.41594,979.26692 137.63682,982.37736 138.41443,985.4878 C 139.19204,988.59823 147.74574,994.0415 140.74725,992.48628 C 133.74877,990.93106 130.05513,988.20942 123.63985,990.15345 C 117.22457,992.09748 115.08615,1000.2624 115.08615,1000.2624 C 115.08615,1000.2624 111.19811,1009.5937 111.19811,1005.7056 C 111.19811,1001.8176 113.53093,1001.04 109.64289,996.37432 C 105.75484,991.70867 103.42202,987.04301 101.08919,983.93258 C 98.756361,980.82214 94.090706,976.9341 95.645924,971.49083 C 97.201143,966.04757 99.53397,968.3804 102.64441,961.38191 C 105.75484,954.38343 108.86528,951.27299 113.53093,951.27299 C 118.19659,951.27299 147.74574,942.71929 147.74574,942.71929 L 160.96509,936.49842"
       id="path3305"
       sodipodi:nodetypes="cscssscsssssscc" />
    <path
       style="fill:none;fill-rule:evenodd;stroke:#000000;stroke-width:1px;stroke-linecap:butt;stroke-linejoin:miter;stroke-opacity:1"
       d="M 131.61035,979.46133 C 128.11111,973.82366 123.83426,973.04605 118.7798,968.7692 C 113.72534,964.49235 113.91974,965.85317 113.91974,965.85317"
       id="path3307" />
    <path
       style="fill:none;fill-rule:evenodd;stroke:#000000;stroke-width:1px;stroke-linecap:butt;stroke-linejoin:miter;stroke-opacity:1"
       d="M 131.80475,979.65573 C 133.94317,976.54529 133.35997,974.60127 132.97116,973.43485 C 132.58236,972.26844 125.77828,965.85317 125.77828,965.85317"
       id="path3309" />
    <path
       style="fill:none;fill-rule:evenodd;stroke:#000000;stroke-width:1px;stroke-linecap:butt;stroke-linejoin:miter;stroke-opacity:1"
       d="M 98.367556,916.28058 C 83.352992,916.8554 74.856974,932.96569 75.816891,931.05516 C 77.213332,928.27581 78.538523,925.22309 78.538523,925.22309"
       id="path3323"
       sodipodi:nodetypes="csc" />
    <path
       style="fill:none;fill-rule:evenodd;stroke:#000000;stroke-width:1px;stroke-linecap:butt;stroke-linejoin:miter;stroke-opacity:1"
       d="M 111.19811,905.00525 C 107.69887,899.56199 106.14365,899.95079 104.97723,896.45155 C 103.81082,892.95231 104.58843,887.89785 106.92126,885.56502"
       id="path3327" />
    <path
       style="fill:none;fill-rule:evenodd;stroke:#000000;stroke-width:1px;stroke-linecap:butt;stroke-linejoin:miter;stroke-opacity:1"
       d="M 95.25712,894.50753 C 93.313097,899.56199 88.647442,905.39405 88.647442,905.39405"
       id="path3329" />
    <path
       style="fill:none;fill-rule:evenodd;stroke:#000000;stroke-width:1px;stroke-linecap:butt;stroke-linejoin:miter;stroke-opacity:1"
       d="M 32.659584,898.00677 C 28.771538,907.72688 28.382734,910.83732 23.328274,910.83732"
       id="path3335" />
    <path
       style="fill:none;fill-rule:evenodd;stroke:#000000;stroke-width:1px;stroke-linecap:butt;stroke-linejoin:miter;stroke-opacity:1"
       d="M 47.822962,921.72385 C 41.990894,919.39102 34.992411,920.16863 34.992411,920.16863"
       id="path3337" />
    <path
       style="fill:#ff6600;fill-opacity:1;stroke:#000000;stroke-width:1.32343507;stroke-linecap:square;stroke-linejoin:round;stroke-miterlimit:4;stroke-dashoffset:0;stroke-opacity:1"
       d="M 125.85908,1006.9998 C 129.53905,1010.0379 129.64831,1017.5321 126.96012,1020.8384 C 124.27193,1024.1447 116.81355,1023.3061 113.13357,1020.2678 C 109.4536,1017.2297 109.54726,1009.4861 112.23545,1006.1798 C 114.92379,1002.8735 122.17909,1003.9617 125.85908,1006.9998 z "
       id="path3339"
       sodipodi:nodetypes="cssss" />
  </g>
</svg>
